<?xml version="1.0" encoding="utf-8" standalone="no"?>
<!DOCTYPE svg PUBLIC "-//W3C//DTD SVG 1.1//EN"
  "http://www.w3.org/Graphics/SVG/1.1/DTD/svg11.dtd">
<svg xmlns:xlink="http://www.w3.org/1999/xlink" width="864pt" height="432pt" viewBox="0 0 864 432" xmlns="http://www.w3.org/2000/svg" version="1.1">
 <metadata>
  <rdf:RDF xmlns:dc="http://purl.org/dc/elements/1.1/" xmlns:cc="http://creativecommons.org/ns#" xmlns:rdf="http://www.w3.org/1999/02/22-rdf-syntax-ns#">
   <cc:Work>
    <dc:type rdf:resource="http://purl.org/dc/dcmitype/StillImage"/>
    <dc:date>2025-12-11T01:11:41.144217</dc:date>
    <dc:format>image/svg+xml</dc:format>
    <dc:creator>
     <cc:Agent>
      <dc:title>Matplotlib v3.10.6, https://matplotlib.org/</dc:title>
     </cc:Agent>
    </dc:creator>
   </cc:Work>
  </rdf:RDF>
 </metadata>
 <defs>
  <style type="text/css">*{stroke-linejoin: round; stroke-linecap: butt}</style>
 </defs>
 <g id="figure_1">
  <g id="patch_1">
   <path d="M 0 432 
L 864 432 
L 864 0 
L 0 0 
z
" style="fill: #ffffff"/>
  </g>
  <g id="axes_1">
   <g id="patch_2">
    <path d="M 61.4 387.88 
L 851.04 387.88 
L 851.04 92.30325 
L 61.4 92.30325 
z
" style="fill: #ffffff"/>
   </g>
   <g id="FillBetweenPolyCollection_1"/>
   <g id="FillBetweenPolyCollection_2">
    <defs>
     <path id="mcb7d520927" d="M 97.292727 -107.478257 
L 97.292727 -7.699777 
L 100.900037 -1.262062 
L 104.507346 -72.821349 
L 108.114655 -215.733274 
L 111.721964 -230.608448 
L 115.329274 -233.027523 
L 118.936583 -263.189053 
L 122.543892 -236.102836 
L 126.151201 -234.498007 
L 129.758511 -204.394033 
L 133.36582 -234.226065 
L 136.973129 -212.07964 
L 140.580439 -237.22585 
L 144.187748 -231.740685 
L 147.795057 -217.690605 
L 151.402366 -224.627398 
L 155.009676 -290.802085 
L 158.616985 -121.076052 
L 162.224294 -71.335073 
L 165.831603 -262.210855 
L 169.438913 -321.806798 
L 173.046222 -243.580007 
L 176.653531 -280.075798 
L 180.260841 -248.921146 
L 183.86815 -273.966051 
L 187.475459 -158.289943 
L 191.082768 -166.163849 
L 194.690078 -6.137697 
L 198.297387 -134.732333 
L 201.904696 -61.422477 
L 205.512005 30.577617 
L 209.119315 -198.687459 
L 212.726624 -170.180973 
L 216.333933 -275.421035 
L 219.941243 -227.318195 
L 223.548552 -47.886622 
L 227.155861 -117.290349 
L 230.76317 -141.207612 
L 234.37048 -88.918988 
L 237.977789 -117.820659 
L 241.585098 -77.502684 
L 245.192407 -172.362748 
L 248.799717 -202.300943 
L 252.407026 -198.187427 
L 256.014335 -142.419782 
L 259.621645 -306.433656 
L 263.228954 -307.262078 
L 266.836263 -306.023181 
L 270.443572 -306.277257 
L 274.050882 -300.60641 
L 277.658191 -283.35171 
L 281.2655 -237.226214 
L 284.87281 -192.370639 
L 288.480119 -176.776852 
L 292.087428 -236.128744 
L 295.694737 -233.022855 
L 299.302047 -212.78632 
L 302.909356 -160.748224 
L 306.516665 -200.663792 
L 310.123974 -202.019277 
L 313.731284 -202.980878 
L 317.338593 -245.466425 
L 320.945902 -233.468895 
L 324.553212 -225.896794 
L 328.160521 -207.848996 
L 331.76783 -179.110692 
L 335.375139 -253.04516 
L 338.982449 -207.848932 
L 342.589758 -170.479543 
L 346.197067 -289.155574 
L 349.804376 -246.023111 
L 353.411686 -229.603771 
L 357.018995 -200.816086 
L 360.626304 -174.23049 
L 364.233614 -284.70876 
L 367.840923 -245.673953 
L 371.448232 -229.782187 
L 375.055541 -195.595544 
L 378.662851 -193.917181 
L 382.27016 -197.813524 
L 385.877469 -144.563289 
L 389.484778 -148.382412 
L 393.092088 -303.752162 
L 396.699397 -301.213687 
L 400.306706 -269.290611 
L 403.914016 -289.074212 
L 407.521325 -198.306427 
L 411.128634 -171.946768 
L 414.735943 -155.093258 
L 418.343253 -119.712157 
L 421.950562 -78.633803 
L 425.557871 -159.944424 
L 429.16518 -140.156345 
L 432.77249 -132.411805 
L 436.379799 -119.264085 
L 439.987108 -135.092842 
L 443.594418 -144.374943 
L 447.201727 -141.659563 
L 450.809036 -136.500405 
L 454.416345 -158.575827 
L 458.023655 -143.533953 
L 461.630964 -149.304469 
L 465.238273 -172.772988 
L 468.845582 -149.320467 
L 472.452892 -130.784112 
L 476.060201 -147.540074 
L 479.66751 -150.197632 
L 483.27482 -149.819337 
L 486.882129 -148.029396 
L 490.489438 -150.880704 
L 494.096747 -102.327462 
L 497.704057 -121.391786 
L 501.311366 -145.299957 
L 504.918675 -147.817395 
L 508.525984 -152.928648 
L 512.133294 -145.794802 
L 515.740603 -152.534011 
L 519.347912 -137.551188 
L 522.955222 -139.330117 
L 526.562531 -103.125768 
L 530.16984 -115.279884 
L 533.777149 -129.936204 
L 537.384459 -116.155797 
L 540.991768 -149.946352 
L 544.599077 -147.084547 
L 548.206386 -133.917485 
L 551.813696 -123.668209 
L 555.421005 -115.684728 
L 559.028314 -83.624664 
L 562.635624 -142.579457 
L 566.242933 -113.131226 
L 569.850242 -136.544033 
L 573.457551 -131.572639 
L 577.064861 -162.374247 
L 580.67217 -131.106126 
L 584.279479 -167.907722 
L 587.886788 -131.257592 
L 591.494098 -156.54595 
L 595.101407 -144.691983 
L 598.708716 -156.332117 
L 602.316026 -133.748489 
L 605.923335 -147.743759 
L 609.530644 -139.671732 
L 613.137953 -159.966091 
L 616.745263 -138.163413 
L 620.352572 -136.988571 
L 623.959881 -146.625388 
L 627.56719 -147.972462 
L 631.1745 -161.122417 
L 634.781809 -152.855772 
L 638.389118 -117.285888 
L 641.996428 -137.718201 
L 645.603737 -162.0224 
L 649.211046 -150.792002 
L 652.818355 -160.422634 
L 656.425665 -165.929928 
L 660.032974 -168.366149 
L 663.640283 -160.106343 
L 667.247593 -150.332818 
L 670.854902 -164.48605 
L 674.462211 -150.622987 
L 678.06952 -146.739673 
L 681.67683 -135.086991 
L 685.284139 -143.002167 
L 688.891448 -137.536378 
L 692.498757 -117.124101 
L 696.106067 -150.227123 
L 699.713376 -159.210453 
L 703.320685 -145.134896 
L 706.927995 -119.786495 
L 710.535304 -156.001657 
L 714.142613 -144.547124 
L 717.749922 -140.617925 
L 721.357232 -157.654892 
L 724.964541 -125.974234 
L 728.57185 -156.582058 
L 732.179159 -164.963142 
L 735.786469 -132.224364 
L 739.393778 -135.9929 
L 743.001087 -157.089022 
L 746.608397 -134.645648 
L 750.215706 -146.854342 
L 753.823015 -132.160635 
L 757.430324 -157.869691 
L 761.037634 -162.238221 
L 764.644943 -127.777301 
L 768.252252 -140.754159 
L 771.859561 -171.898552 
L 775.466871 -170.509028 
L 779.07418 -175.390188 
L 782.681489 -154.928873 
L 786.288799 -171.691776 
L 789.896108 -160.773811 
L 793.503417 -154.641777 
L 797.110726 -137.182705 
L 800.718036 -134.363078 
L 804.325345 -132.540887 
L 807.932654 -141.029265 
L 811.539963 -135.810161 
L 815.147273 -135.109502 
L 815.147273 -214.997705 
L 815.147273 -214.997705 
L 811.539963 -189.348246 
L 807.932654 -240.823241 
L 804.325345 -237.406753 
L 800.718036 -193.320523 
L 797.110726 -191.53403 
L 793.503417 -214.351872 
L 789.896108 -206.883435 
L 786.288799 -225.644229 
L 782.681489 -192.995573 
L 779.07418 -208.157787 
L 775.466871 -214.309255 
L 771.859561 -236.360589 
L 768.252252 -196.275505 
L 764.644943 -185.660224 
L 761.037634 -207.975739 
L 757.430324 -242.054574 
L 753.823015 -184.341888 
L 750.215706 -192.999309 
L 746.608397 -179.643226 
L 743.001087 -189.952508 
L 739.393778 -187.537473 
L 735.786469 -189.707444 
L 732.179159 -198.323941 
L 728.57185 -199.394602 
L 724.964541 -183.981552 
L 721.357232 -187.127813 
L 717.749922 -186.910131 
L 714.142613 -231.298119 
L 710.535304 -193.290102 
L 706.927995 -207.573757 
L 703.320685 -200.022934 
L 699.713376 -196.342715 
L 696.106067 -206.96752 
L 692.498757 -168.98814 
L 688.891448 -183.388032 
L 685.284139 -190.352003 
L 681.67683 -180.248198 
L 678.06952 -225.012765 
L 674.462211 -198.891611 
L 670.854902 -209.868529 
L 667.247593 -199.294131 
L 663.640283 -199.971828 
L 660.032974 -204.858282 
L 656.425665 -238.687372 
L 652.818355 -214.55065 
L 649.211046 -192.329117 
L 645.603737 -199.259194 
L 641.996428 -189.201573 
L 638.389118 -174.551609 
L 634.781809 -197.637586 
L 631.1745 -207.250211 
L 627.56719 -199.672445 
L 623.959881 -190.239249 
L 620.352572 -180.076149 
L 616.745263 -189.970939 
L 613.137953 -210.977549 
L 609.530644 -188.222433 
L 605.923335 -179.319187 
L 602.316026 -191.737925 
L 598.708716 -208.530477 
L 595.101407 -193.462956 
L 591.494098 -207.482855 
L 587.886788 -198.587756 
L 584.279479 -214.021758 
L 580.67217 -209.55671 
L 577.064861 -218.223013 
L 573.457551 -228.008224 
L 569.850242 -195.862944 
L 566.242933 -155.561916 
L 562.635624 -167.353255 
L 559.028314 -122.517423 
L 555.421005 -163.325731 
L 551.813696 -169.058613 
L 548.206386 -178.916944 
L 544.599077 -183.226371 
L 540.991768 -190.080012 
L 537.384459 -159.117919 
L 533.777149 -173.420273 
L 530.16984 -193.659943 
L 526.562531 -160.303143 
L 522.955222 -210.5729 
L 519.347912 -195.349174 
L 515.740603 -188.446413 
L 512.133294 -183.235591 
L 508.525984 -195.609472 
L 504.918675 -179.121239 
L 501.311366 -216.98734 
L 497.704057 -167.536407 
L 494.096747 -171.302909 
L 490.489438 -188.163296 
L 486.882129 -183.148063 
L 483.27482 -181.948382 
L 479.66751 -217.813567 
L 476.060201 -193.268198 
L 472.452892 -215.988116 
L 468.845582 -186.619834 
L 465.238273 -206.2581 
L 461.630964 -188.453506 
L 458.023655 -170.536352 
L 454.416345 -198.279789 
L 450.809036 -176.16785 
L 447.201727 -180.787615 
L 443.594418 -176.339491 
L 439.987108 -166.799817 
L 436.379799 -200.002413 
L 432.77249 -185.293344 
L 429.16518 -198.799387 
L 425.557871 -196.07239 
L 421.950562 -137.424438 
L 418.343253 -169.033664 
L 414.735943 -223.946434 
L 411.128634 -259.992945 
L 407.521325 -273.260419 
L 403.914016 -303.404072 
L 400.306706 -310.367726 
L 396.699397 -315.101194 
L 393.092088 -315.785923 
L 389.484778 -202.011879 
L 385.877469 -191.851573 
L 382.27016 -239.456631 
L 378.662851 -219.011785 
L 375.055541 -209.429395 
L 371.448232 -242.409975 
L 367.840923 -282.041983 
L 364.233614 -304.079462 
L 360.626304 -185.046138 
L 357.018995 -209.349226 
L 353.411686 -238.421881 
L 349.804376 -276.111503 
L 346.197067 -300.09755 
L 342.589758 -184.491426 
L 338.982449 -221.290264 
L 335.375139 -296.159113 
L 331.76783 -201.00038 
L 328.160521 -220.05634 
L 324.553212 -265.049134 
L 320.945902 -291.212773 
L 317.338593 -300.321024 
L 313.731284 -268.717882 
L 310.123974 -289.614353 
L 306.516665 -276.039768 
L 302.909356 -182.22741 
L 299.302047 -222.89439 
L 295.694737 -276.726869 
L 292.087428 -273.864529 
L 288.480119 -189.052056 
L 284.87281 -203.875246 
L 281.2655 -245.27483 
L 277.658191 -307.096892 
L 274.050882 -314.904379 
L 270.443572 -315.784147 
L 266.836263 -318.511328 
L 263.228954 -319.36751 
L 259.621645 -319.395804 
L 256.014335 -157.284288 
L 252.407026 -216.539157 
L 248.799717 -260.766837 
L 245.192407 -188.187259 
L 241.585098 -150.180947 
L 237.977789 -145.468057 
L 234.37048 -140.80701 
L 230.76317 -192.352989 
L 227.155861 -169.625138 
L 223.548552 -137.82749 
L 219.941243 -237.537739 
L 216.333933 -308.471269 
L 212.726624 -186.548768 
L 209.119315 -211.474094 
L 205.512005 -85.100843 
L 201.904696 -168.602825 
L 198.297387 -188.710785 
L 194.690078 -132.488052 
L 191.082768 -269.134706 
L 187.475459 -301.309379 
L 183.86815 -320.545458 
L 180.260841 -317.107693 
L 176.653531 -325.701215 
L 173.046222 -321.221117 
L 169.438913 -328.585504 
L 165.831603 -325.549732 
L 162.224294 -167.684345 
L 158.616985 -221.4256 
L 155.009676 -303.094487 
L 151.402366 -347.854813 
L 147.795057 -278.441135 
L 144.187748 -292.990293 
L 140.580439 -301.695014 
L 136.973129 -255.501409 
L 133.36582 -280.686218 
L 129.758511 -260.501134 
L 126.151201 -294.422167 
L 122.543892 -279.209725 
L 118.936583 -309.309056 
L 115.329274 -289.55187 
L 111.721964 -282.129178 
L 108.114655 -271.597853 
L 104.507346 -176.721744 
L 100.900037 -85.483426 
L 97.292727 -107.478257 
z
" style="stroke: #ffffff; stroke-opacity: 0.3"/>
    </defs>
    <g clip-path="url(#p4bdd36bb35)">
     <use xlink:href="#mcb7d520927" x="0" y="432" style="fill: #1f77b4; fill-opacity: 0.3; stroke: #ffffff; stroke-opacity: 0.3"/>
    </g>
   </g>
   <g id="matplotlib.axis_1">
    <g id="xtick_1">
     <g id="line2d_1">
      <path d="M 97.292727 387.88 
L 97.292727 92.30325 
" clip-path="url(#p4bdd36bb35)" style="fill: none; stroke: #b0b0b0; stroke-width: 0.8; stroke-linecap: square"/>
     </g>
     <g id="line2d_2">
      <defs>
       <path id="m5aaa434049" d="M 0 0 
L 0 3.5 
" style="stroke: #000000; stroke-width: 0.8"/>
      </defs>
      <g>
       <use xlink:href="#m5aaa434049" x="97.292727" y="387.88" style="stroke: #000000; stroke-width: 0.8"/>
      </g>
     </g>
     <g id="text_1">
      <!-- 0 -->
      <g transform="translate(94.111477 402.478437) scale(0.1 -0.1)">
       <defs>
        <path id="DejaVuSans-30" d="M 2034 4250 
Q 1547 4250 1301 3770 
Q 1056 3291 1056 2328 
Q 1056 1369 1301 889 
Q 1547 409 2034 409 
Q 2525 409 2770 889 
Q 3016 1369 3016 2328 
Q 3016 3291 2770 3770 
Q 2525 4250 2034 4250 
z
M 2034 4750 
Q 2819 4750 3233 4129 
Q 3647 3509 3647 2328 
Q 3647 1150 3233 529 
Q 2819 -91 2034 -91 
Q 1250 -91 836 529 
Q 422 1150 422 2328 
Q 422 3509 836 4129 
Q 1250 4750 2034 4750 
z
" transform="scale(0.015625)"/>
       </defs>
       <use xlink:href="#DejaVuSans-30"/>
      </g>
     </g>
    </g>
    <g id="xtick_2">
     <g id="line2d_3">
      <path d="M 458.023655 387.88 
L 458.023655 92.30325 
" clip-path="url(#p4bdd36bb35)" style="fill: none; stroke: #b0b0b0; stroke-width: 0.8; stroke-linecap: square"/>
     </g>
     <g id="line2d_4">
      <g>
       <use xlink:href="#m5aaa434049" x="458.023655" y="387.88" style="stroke: #000000; stroke-width: 0.8"/>
      </g>
     </g>
     <g id="text_2">
      <!-- 100 -->
      <g transform="translate(448.479905 402.478437) scale(0.1 -0.1)">
       <defs>
        <path id="DejaVuSans-31" d="M 794 531 
L 1825 531 
L 1825 4091 
L 703 3866 
L 703 4441 
L 1819 4666 
L 2450 4666 
L 2450 531 
L 3481 531 
L 3481 0 
L 794 0 
L 794 531 
z
" transform="scale(0.015625)"/>
       </defs>
       <use xlink:href="#DejaVuSans-31"/>
       <use xlink:href="#DejaVuSans-30" transform="translate(63.623047 0)"/>
       <use xlink:href="#DejaVuSans-30" transform="translate(127.246094 0)"/>
      </g>
     </g>
    </g>
    <g id="xtick_3">
     <g id="line2d_5">
      <path d="M 818.754582 387.88 
L 818.754582 92.30325 
" clip-path="url(#p4bdd36bb35)" style="fill: none; stroke: #b0b0b0; stroke-width: 0.8; stroke-linecap: square"/>
     </g>
     <g id="line2d_6">
      <g>
       <use xlink:href="#m5aaa434049" x="818.754582" y="387.88" style="stroke: #000000; stroke-width: 0.8"/>
      </g>
     </g>
     <g id="text_3">
      <!-- 200 -->
      <g transform="translate(809.210832 402.478437) scale(0.1 -0.1)">
       <defs>
        <path id="DejaVuSans-32" d="M 1228 531 
L 3431 531 
L 3431 0 
L 469 0 
L 469 531 
Q 828 903 1448 1529 
Q 2069 2156 2228 2338 
Q 2531 2678 2651 2914 
Q 2772 3150 2772 3378 
Q 2772 3750 2511 3984 
Q 2250 4219 1831 4219 
Q 1534 4219 1204 4116 
Q 875 4013 500 3803 
L 500 4441 
Q 881 4594 1212 4672 
Q 1544 4750 1819 4750 
Q 2544 4750 2975 4387 
Q 3406 4025 3406 3419 
Q 3406 3131 3298 2873 
Q 3191 2616 2906 2266 
Q 2828 2175 2409 1742 
Q 1991 1309 1228 531 
z
" transform="scale(0.015625)"/>
       </defs>
       <use xlink:href="#DejaVuSans-32"/>
       <use xlink:href="#DejaVuSans-30" transform="translate(63.623047 0)"/>
       <use xlink:href="#DejaVuSans-30" transform="translate(127.246094 0)"/>
      </g>
     </g>
    </g>
    <g id="text_4">
     <!-- Episode -->
     <g transform="translate(436.5825 416.156563) scale(0.1 -0.1)">
      <defs>
       <path id="DejaVuSans-45" d="M 628 4666 
L 3578 4666 
L 3578 4134 
L 1259 4134 
L 1259 2753 
L 3481 2753 
L 3481 2222 
L 1259 2222 
L 1259 531 
L 3634 531 
L 3634 0 
L 628 0 
L 628 4666 
z
" transform="scale(0.015625)"/>
       <path id="DejaVuSans-70" d="M 1159 525 
L 1159 -1331 
L 581 -1331 
L 581 3500 
L 1159 3500 
L 1159 2969 
Q 1341 3281 1617 3432 
Q 1894 3584 2278 3584 
Q 2916 3584 3314 3078 
Q 3713 2572 3713 1747 
Q 3713 922 3314 415 
Q 2916 -91 2278 -91 
Q 1894 -91 1617 61 
Q 1341 213 1159 525 
z
M 3116 1747 
Q 3116 2381 2855 2742 
Q 2594 3103 2138 3103 
Q 1681 3103 1420 2742 
Q 1159 2381 1159 1747 
Q 1159 1113 1420 752 
Q 1681 391 2138 391 
Q 2594 391 2855 752 
Q 3116 1113 3116 1747 
z
" transform="scale(0.015625)"/>
       <path id="DejaVuSans-69" d="M 603 3500 
L 1178 3500 
L 1178 0 
L 603 0 
L 603 3500 
z
M 603 4863 
L 1178 4863 
L 1178 4134 
L 603 4134 
L 603 4863 
z
" transform="scale(0.015625)"/>
       <path id="DejaVuSans-73" d="M 2834 3397 
L 2834 2853 
Q 2591 2978 2328 3040 
Q 2066 3103 1784 3103 
Q 1356 3103 1142 2972 
Q 928 2841 928 2578 
Q 928 2378 1081 2264 
Q 1234 2150 1697 2047 
L 1894 2003 
Q 2506 1872 2764 1633 
Q 3022 1394 3022 966 
Q 3022 478 2636 193 
Q 2250 -91 1575 -91 
Q 1294 -91 989 -36 
Q 684 19 347 128 
L 347 722 
Q 666 556 975 473 
Q 1284 391 1588 391 
Q 1994 391 2212 530 
Q 2431 669 2431 922 
Q 2431 1156 2273 1281 
Q 2116 1406 1581 1522 
L 1381 1569 
Q 847 1681 609 1914 
Q 372 2147 372 2553 
Q 372 3047 722 3315 
Q 1072 3584 1716 3584 
Q 2034 3584 2315 3537 
Q 2597 3491 2834 3397 
z
" transform="scale(0.015625)"/>
       <path id="DejaVuSans-6f" d="M 1959 3097 
Q 1497 3097 1228 2736 
Q 959 2375 959 1747 
Q 959 1119 1226 758 
Q 1494 397 1959 397 
Q 2419 397 2687 759 
Q 2956 1122 2956 1747 
Q 2956 2369 2687 2733 
Q 2419 3097 1959 3097 
z
M 1959 3584 
Q 2709 3584 3137 3096 
Q 3566 2609 3566 1747 
Q 3566 888 3137 398 
Q 2709 -91 1959 -91 
Q 1206 -91 779 398 
Q 353 888 353 1747 
Q 353 2609 779 3096 
Q 1206 3584 1959 3584 
z
" transform="scale(0.015625)"/>
       <path id="DejaVuSans-64" d="M 2906 2969 
L 2906 4863 
L 3481 4863 
L 3481 0 
L 2906 0 
L 2906 525 
Q 2725 213 2448 61 
Q 2172 -91 1784 -91 
Q 1150 -91 751 415 
Q 353 922 353 1747 
Q 353 2572 751 3078 
Q 1150 3584 1784 3584 
Q 2172 3584 2448 3432 
Q 2725 3281 2906 2969 
z
M 947 1747 
Q 947 1113 1208 752 
Q 1469 391 1925 391 
Q 2381 391 2643 752 
Q 2906 1113 2906 1747 
Q 2906 2381 2643 2742 
Q 2381 3103 1925 3103 
Q 1469 3103 1208 2742 
Q 947 2381 947 1747 
z
" transform="scale(0.015625)"/>
       <path id="DejaVuSans-65" d="M 3597 1894 
L 3597 1613 
L 953 1613 
Q 991 1019 1311 708 
Q 1631 397 2203 397 
Q 2534 397 2845 478 
Q 3156 559 3463 722 
L 3463 178 
Q 3153 47 2828 -22 
Q 2503 -91 2169 -91 
Q 1331 -91 842 396 
Q 353 884 353 1716 
Q 353 2575 817 3079 
Q 1281 3584 2069 3584 
Q 2775 3584 3186 3129 
Q 3597 2675 3597 1894 
z
M 3022 2063 
Q 3016 2534 2758 2815 
Q 2500 3097 2075 3097 
Q 1594 3097 1305 2825 
Q 1016 2553 972 2059 
L 3022 2063 
z
" transform="scale(0.015625)"/>
      </defs>
      <use xlink:href="#DejaVuSans-45"/>
      <use xlink:href="#DejaVuSans-70" transform="translate(63.183594 0)"/>
      <use xlink:href="#DejaVuSans-69" transform="translate(126.660156 0)"/>
      <use xlink:href="#DejaVuSans-73" transform="translate(154.443359 0)"/>
      <use xlink:href="#DejaVuSans-6f" transform="translate(206.542969 0)"/>
      <use xlink:href="#DejaVuSans-64" transform="translate(267.724609 0)"/>
      <use xlink:href="#DejaVuSans-65" transform="translate(331.201172 0)"/>
     </g>
    </g>
   </g>
   <g id="matplotlib.axis_2">
    <g id="ytick_1">
     <g id="line2d_7">
      <path d="M 61.4 387.88 
L 851.04 387.88 
" clip-path="url(#p4bdd36bb35)" style="fill: none; stroke: #b0b0b0; stroke-width: 0.8; stroke-linecap: square"/>
     </g>
     <g id="line2d_8">
      <defs>
       <path id="m94a62d1e38" d="M 0 0 
L -3.5 0 
" style="stroke: #000000; stroke-width: 0.8"/>
      </defs>
      <g>
       <use xlink:href="#m94a62d1e38" x="61.4" y="387.88" style="stroke: #000000; stroke-width: 0.8"/>
      </g>
     </g>
     <g id="text_5">
      <!-- −600 -->
      <g transform="translate(26.932812 391.679219) scale(0.1 -0.1)">
       <defs>
        <path id="DejaVuSans-2212" d="M 678 2272 
L 4684 2272 
L 4684 1741 
L 678 1741 
L 678 2272 
z
" transform="scale(0.015625)"/>
        <path id="DejaVuSans-36" d="M 2113 2584 
Q 1688 2584 1439 2293 
Q 1191 2003 1191 1497 
Q 1191 994 1439 701 
Q 1688 409 2113 409 
Q 2538 409 2786 701 
Q 3034 994 3034 1497 
Q 3034 2003 2786 2293 
Q 2538 2584 2113 2584 
z
M 3366 4563 
L 3366 3988 
Q 3128 4100 2886 4159 
Q 2644 4219 2406 4219 
Q 1781 4219 1451 3797 
Q 1122 3375 1075 2522 
Q 1259 2794 1537 2939 
Q 1816 3084 2150 3084 
Q 2853 3084 3261 2657 
Q 3669 2231 3669 1497 
Q 3669 778 3244 343 
Q 2819 -91 2113 -91 
Q 1303 -91 875 529 
Q 447 1150 447 2328 
Q 447 3434 972 4092 
Q 1497 4750 2381 4750 
Q 2619 4750 2861 4703 
Q 3103 4656 3366 4563 
z
" transform="scale(0.015625)"/>
       </defs>
       <use xlink:href="#DejaVuSans-2212"/>
       <use xlink:href="#DejaVuSans-36" transform="translate(83.789062 0)"/>
       <use xlink:href="#DejaVuSans-30" transform="translate(147.412109 0)"/>
       <use xlink:href="#DejaVuSans-30" transform="translate(211.035156 0)"/>
      </g>
     </g>
    </g>
    <g id="ytick_2">
     <g id="line2d_9">
      <path d="M 61.4 355.038139 
L 851.04 355.038139 
" clip-path="url(#p4bdd36bb35)" style="fill: none; stroke: #b0b0b0; stroke-width: 0.8; stroke-linecap: square"/>
     </g>
     <g id="line2d_10">
      <g>
       <use xlink:href="#m94a62d1e38" x="61.4" y="355.038139" style="stroke: #000000; stroke-width: 0.8"/>
      </g>
     </g>
     <g id="text_6">
      <!-- −500 -->
      <g transform="translate(26.932812 358.837358) scale(0.1 -0.1)">
       <defs>
        <path id="DejaVuSans-35" d="M 691 4666 
L 3169 4666 
L 3169 4134 
L 1269 4134 
L 1269 2991 
Q 1406 3038 1543 3061 
Q 1681 3084 1819 3084 
Q 2600 3084 3056 2656 
Q 3513 2228 3513 1497 
Q 3513 744 3044 326 
Q 2575 -91 1722 -91 
Q 1428 -91 1123 -41 
Q 819 9 494 109 
L 494 744 
Q 775 591 1075 516 
Q 1375 441 1709 441 
Q 2250 441 2565 725 
Q 2881 1009 2881 1497 
Q 2881 1984 2565 2268 
Q 2250 2553 1709 2553 
Q 1456 2553 1204 2497 
Q 953 2441 691 2322 
L 691 4666 
z
" transform="scale(0.015625)"/>
       </defs>
       <use xlink:href="#DejaVuSans-2212"/>
       <use xlink:href="#DejaVuSans-35" transform="translate(83.789062 0)"/>
       <use xlink:href="#DejaVuSans-30" transform="translate(147.412109 0)"/>
       <use xlink:href="#DejaVuSans-30" transform="translate(211.035156 0)"/>
      </g>
     </g>
    </g>
    <g id="ytick_3">
     <g id="line2d_11">
      <path d="M 61.4 322.196278 
L 851.04 322.196278 
" clip-path="url(#p4bdd36bb35)" style="fill: none; stroke: #b0b0b0; stroke-width: 0.8; stroke-linecap: square"/>
     </g>
     <g id="line2d_12">
      <g>
       <use xlink:href="#m94a62d1e38" x="61.4" y="322.196278" style="stroke: #000000; stroke-width: 0.8"/>
      </g>
     </g>
     <g id="text_7">
      <!-- −400 -->
      <g transform="translate(26.932812 325.995497) scale(0.1 -0.1)">
       <defs>
        <path id="DejaVuSans-34" d="M 2419 4116 
L 825 1625 
L 2419 1625 
L 2419 4116 
z
M 2253 4666 
L 3047 4666 
L 3047 1625 
L 3713 1625 
L 3713 1100 
L 3047 1100 
L 3047 0 
L 2419 0 
L 2419 1100 
L 313 1100 
L 313 1709 
L 2253 4666 
z
" transform="scale(0.015625)"/>
       </defs>
       <use xlink:href="#DejaVuSans-2212"/>
       <use xlink:href="#DejaVuSans-34" transform="translate(83.789062 0)"/>
       <use xlink:href="#DejaVuSans-30" transform="translate(147.412109 0)"/>
       <use xlink:href="#DejaVuSans-30" transform="translate(211.035156 0)"/>
      </g>
     </g>
    </g>
    <g id="ytick_4">
     <g id="line2d_13">
      <path d="M 61.4 289.354417 
L 851.04 289.354417 
" clip-path="url(#p4bdd36bb35)" style="fill: none; stroke: #b0b0b0; stroke-width: 0.8; stroke-linecap: square"/>
     </g>
     <g id="line2d_14">
      <g>
       <use xlink:href="#m94a62d1e38" x="61.4" y="289.354417" style="stroke: #000000; stroke-width: 0.8"/>
      </g>
     </g>
     <g id="text_8">
      <!-- −300 -->
      <g transform="translate(26.932812 293.153635) scale(0.1 -0.1)">
       <defs>
        <path id="DejaVuSans-33" d="M 2597 2516 
Q 3050 2419 3304 2112 
Q 3559 1806 3559 1356 
Q 3559 666 3084 287 
Q 2609 -91 1734 -91 
Q 1441 -91 1130 -33 
Q 819 25 488 141 
L 488 750 
Q 750 597 1062 519 
Q 1375 441 1716 441 
Q 2309 441 2620 675 
Q 2931 909 2931 1356 
Q 2931 1769 2642 2001 
Q 2353 2234 1838 2234 
L 1294 2234 
L 1294 2753 
L 1863 2753 
Q 2328 2753 2575 2939 
Q 2822 3125 2822 3475 
Q 2822 3834 2567 4026 
Q 2313 4219 1838 4219 
Q 1578 4219 1281 4162 
Q 984 4106 628 3988 
L 628 4550 
Q 988 4650 1302 4700 
Q 1616 4750 1894 4750 
Q 2613 4750 3031 4423 
Q 3450 4097 3450 3541 
Q 3450 3153 3228 2886 
Q 3006 2619 2597 2516 
z
" transform="scale(0.015625)"/>
       </defs>
       <use xlink:href="#DejaVuSans-2212"/>
       <use xlink:href="#DejaVuSans-33" transform="translate(83.789062 0)"/>
       <use xlink:href="#DejaVuSans-30" transform="translate(147.412109 0)"/>
       <use xlink:href="#DejaVuSans-30" transform="translate(211.035156 0)"/>
      </g>
     </g>
    </g>
    <g id="ytick_5">
     <g id="line2d_15">
      <path d="M 61.4 256.512556 
L 851.04 256.512556 
" clip-path="url(#p4bdd36bb35)" style="fill: none; stroke: #b0b0b0; stroke-width: 0.8; stroke-linecap: square"/>
     </g>
     <g id="line2d_16">
      <g>
       <use xlink:href="#m94a62d1e38" x="61.4" y="256.512556" style="stroke: #000000; stroke-width: 0.8"/>
      </g>
     </g>
     <g id="text_9">
      <!-- −200 -->
      <g transform="translate(26.932812 260.311774) scale(0.1 -0.1)">
       <use xlink:href="#DejaVuSans-2212"/>
       <use xlink:href="#DejaVuSans-32" transform="translate(83.789062 0)"/>
       <use xlink:href="#DejaVuSans-30" transform="translate(147.412109 0)"/>
       <use xlink:href="#DejaVuSans-30" transform="translate(211.035156 0)"/>
      </g>
     </g>
    </g>
    <g id="ytick_6">
     <g id="line2d_17">
      <path d="M 61.4 223.670694 
L 851.04 223.670694 
" clip-path="url(#p4bdd36bb35)" style="fill: none; stroke: #b0b0b0; stroke-width: 0.8; stroke-linecap: square"/>
     </g>
     <g id="line2d_18">
      <g>
       <use xlink:href="#m94a62d1e38" x="61.4" y="223.670694" style="stroke: #000000; stroke-width: 0.8"/>
      </g>
     </g>
     <g id="text_10">
      <!-- −100 -->
      <g transform="translate(26.932812 227.469913) scale(0.1 -0.1)">
       <use xlink:href="#DejaVuSans-2212"/>
       <use xlink:href="#DejaVuSans-31" transform="translate(83.789062 0)"/>
       <use xlink:href="#DejaVuSans-30" transform="translate(147.412109 0)"/>
       <use xlink:href="#DejaVuSans-30" transform="translate(211.035156 0)"/>
      </g>
     </g>
    </g>
    <g id="ytick_7">
     <g id="line2d_19">
      <path d="M 61.4 190.828833 
L 851.04 190.828833 
" clip-path="url(#p4bdd36bb35)" style="fill: none; stroke: #b0b0b0; stroke-width: 0.8; stroke-linecap: square"/>
     </g>
     <g id="line2d_20">
      <g>
       <use xlink:href="#m94a62d1e38" x="61.4" y="190.828833" style="stroke: #000000; stroke-width: 0.8"/>
      </g>
     </g>
     <g id="text_11">
      <!-- 0 -->
      <g transform="translate(48.0375 194.628052) scale(0.1 -0.1)">
       <use xlink:href="#DejaVuSans-30"/>
      </g>
     </g>
    </g>
    <g id="ytick_8">
     <g id="line2d_21">
      <path d="M 61.4 157.986972 
L 851.04 157.986972 
" clip-path="url(#p4bdd36bb35)" style="fill: none; stroke: #b0b0b0; stroke-width: 0.8; stroke-linecap: square"/>
     </g>
     <g id="line2d_22">
      <g>
       <use xlink:href="#m94a62d1e38" x="61.4" y="157.986972" style="stroke: #000000; stroke-width: 0.8"/>
      </g>
     </g>
     <g id="text_12">
      <!-- 100 -->
      <g transform="translate(35.3125 161.786191) scale(0.1 -0.1)">
       <use xlink:href="#DejaVuSans-31"/>
       <use xlink:href="#DejaVuSans-30" transform="translate(63.623047 0)"/>
       <use xlink:href="#DejaVuSans-30" transform="translate(127.246094 0)"/>
      </g>
     </g>
    </g>
    <g id="ytick_9">
     <g id="line2d_23">
      <path d="M 61.4 125.145111 
L 851.04 125.145111 
" clip-path="url(#p4bdd36bb35)" style="fill: none; stroke: #b0b0b0; stroke-width: 0.8; stroke-linecap: square"/>
     </g>
     <g id="line2d_24">
      <g>
       <use xlink:href="#m94a62d1e38" x="61.4" y="125.145111" style="stroke: #000000; stroke-width: 0.8"/>
      </g>
     </g>
     <g id="text_13">
      <!-- 200 -->
      <g transform="translate(35.3125 128.94433) scale(0.1 -0.1)">
       <use xlink:href="#DejaVuSans-32"/>
       <use xlink:href="#DejaVuSans-30" transform="translate(63.623047 0)"/>
       <use xlink:href="#DejaVuSans-30" transform="translate(127.246094 0)"/>
      </g>
     </g>
    </g>
    <g id="ytick_10">
     <g id="line2d_25">
      <path d="M 61.4 92.30325 
L 851.04 92.30325 
" clip-path="url(#p4bdd36bb35)" style="fill: none; stroke: #b0b0b0; stroke-width: 0.8; stroke-linecap: square"/>
     </g>
     <g id="line2d_26">
      <g>
       <use xlink:href="#m94a62d1e38" x="61.4" y="92.30325" style="stroke: #000000; stroke-width: 0.8"/>
      </g>
     </g>
     <g id="text_14">
      <!-- 300 -->
      <g transform="translate(35.3125 96.102469) scale(0.1 -0.1)">
       <use xlink:href="#DejaVuSans-33"/>
       <use xlink:href="#DejaVuSans-30" transform="translate(63.623047 0)"/>
       <use xlink:href="#DejaVuSans-30" transform="translate(127.246094 0)"/>
      </g>
     </g>
    </g>
    <g id="text_15">
     <!-- Reward -->
     <g transform="translate(20.853125 258.712719) rotate(-90) scale(0.1 -0.1)">
      <defs>
       <path id="DejaVuSans-52" d="M 2841 2188 
Q 3044 2119 3236 1894 
Q 3428 1669 3622 1275 
L 4263 0 
L 3584 0 
L 2988 1197 
Q 2756 1666 2539 1819 
Q 2322 1972 1947 1972 
L 1259 1972 
L 1259 0 
L 628 0 
L 628 4666 
L 2053 4666 
Q 2853 4666 3247 4331 
Q 3641 3997 3641 3322 
Q 3641 2881 3436 2590 
Q 3231 2300 2841 2188 
z
M 1259 4147 
L 1259 2491 
L 2053 2491 
Q 2509 2491 2742 2702 
Q 2975 2913 2975 3322 
Q 2975 3731 2742 3939 
Q 2509 4147 2053 4147 
L 1259 4147 
z
" transform="scale(0.015625)"/>
       <path id="DejaVuSans-77" d="M 269 3500 
L 844 3500 
L 1563 769 
L 2278 3500 
L 2956 3500 
L 3675 769 
L 4391 3500 
L 4966 3500 
L 4050 0 
L 3372 0 
L 2619 2869 
L 1863 0 
L 1184 0 
L 269 3500 
z
" transform="scale(0.015625)"/>
       <path id="DejaVuSans-61" d="M 2194 1759 
Q 1497 1759 1228 1600 
Q 959 1441 959 1056 
Q 959 750 1161 570 
Q 1363 391 1709 391 
Q 2188 391 2477 730 
Q 2766 1069 2766 1631 
L 2766 1759 
L 2194 1759 
z
M 3341 1997 
L 3341 0 
L 2766 0 
L 2766 531 
Q 2569 213 2275 61 
Q 1981 -91 1556 -91 
Q 1019 -91 701 211 
Q 384 513 384 1019 
Q 384 1609 779 1909 
Q 1175 2209 1959 2209 
L 2766 2209 
L 2766 2266 
Q 2766 2663 2505 2880 
Q 2244 3097 1772 3097 
Q 1472 3097 1187 3025 
Q 903 2953 641 2809 
L 641 3341 
Q 956 3463 1253 3523 
Q 1550 3584 1831 3584 
Q 2591 3584 2966 3190 
Q 3341 2797 3341 1997 
z
" transform="scale(0.015625)"/>
       <path id="DejaVuSans-72" d="M 2631 2963 
Q 2534 3019 2420 3045 
Q 2306 3072 2169 3072 
Q 1681 3072 1420 2755 
Q 1159 2438 1159 1844 
L 1159 0 
L 581 0 
L 581 3500 
L 1159 3500 
L 1159 2956 
Q 1341 3275 1631 3429 
Q 1922 3584 2338 3584 
Q 2397 3584 2469 3576 
Q 2541 3569 2628 3553 
L 2631 2963 
z
" transform="scale(0.015625)"/>
      </defs>
      <use xlink:href="#DejaVuSans-52"/>
      <use xlink:href="#DejaVuSans-65" transform="translate(64.982422 0)"/>
      <use xlink:href="#DejaVuSans-77" transform="translate(126.505859 0)"/>
      <use xlink:href="#DejaVuSans-61" transform="translate(208.292969 0)"/>
      <use xlink:href="#DejaVuSans-72" transform="translate(269.572266 0)"/>
      <use xlink:href="#DejaVuSans-64" transform="translate(308.935547 0)"/>
     </g>
    </g>
   </g>
   <g id="line2d_27">
    <path d="M 97.292727 374.410983 
L 100.900037 388.627256 
L 104.507346 307.228454 
L 108.114655 188.334437 
L 111.721964 175.631187 
L 115.329274 170.710303 
L 118.936583 145.750946 
L 122.543892 174.343719 
L 126.151201 167.539913 
L 129.758511 199.552417 
L 133.36582 174.543859 
L 136.973129 198.209475 
L 140.580439 162.539568 
L 144.187748 169.634511 
L 147.795057 183.93413 
L 151.402366 145.758895 
L 155.009676 135.051714 
L 158.616985 260.749174 
L 162.224294 312.490291 
L 165.831603 138.119706 
L 169.438913 106.803849 
L 173.046222 149.599438 
L 176.653531 129.111494 
L 180.260841 148.98558 
L 183.86815 134.744245 
L 187.475459 202.200339 
L 191.082768 214.350723 
L 194.690078 362.687125 
L 198.297387 270.278441 
L 201.904696 316.987349 
L 205.512005 404.738387 
L 209.119315 226.919223 
L 212.726624 253.635129 
L 216.333933 140.053848 
L 219.941243 199.572033 
L 223.548552 339.142944 
L 227.155861 288.542256 
L 230.76317 265.2197 
L 234.37048 317.137001 
L 237.977789 300.355642 
L 241.585098 318.158184 
L 245.192407 251.724997 
L 248.799717 200.46611 
L 252.407026 224.636708 
L 256.014335 282.147965 
L 259.621645 119.08527 
L 263.228954 118.685206 
L 266.836263 119.732745 
L 270.443572 120.969298 
L 274.050882 124.244606 
L 277.658191 136.775699 
L 281.2655 190.749478 
L 284.87281 233.877058 
L 288.480119 249.085546 
L 292.087428 177.003363 
L 295.694737 177.125138 
L 299.302047 214.159645 
L 302.909356 260.512183 
L 306.516665 193.64822 
L 310.123974 186.183185 
L 313.731284 196.15062 
L 317.338593 159.106276 
L 320.945902 169.659166 
L 324.553212 186.527036 
L 328.160521 218.047332 
L 331.76783 241.944464 
L 335.375139 157.397864 
L 338.982449 217.430402 
L 342.589758 254.514516 
L 346.197067 137.373438 
L 349.804376 170.932693 
L 353.411686 197.987174 
L 357.018995 226.917344 
L 360.626304 252.361686 
L 364.233614 137.605889 
L 367.840923 168.142032 
L 371.448232 195.903919 
L 375.055541 229.48753 
L 378.662851 225.535517 
L 382.27016 213.364922 
L 385.877469 263.792569 
L 389.484778 256.802855 
L 393.092088 122.230958 
L 396.699397 123.842559 
L 400.306706 142.170832 
L 403.914016 135.760858 
L 407.521325 196.216577 
L 411.128634 216.030144 
L 414.735943 242.480154 
L 418.343253 287.62709 
L 421.950562 323.970879 
L 425.557871 253.991593 
L 429.16518 262.522134 
L 432.77249 273.147426 
L 436.379799 272.366751 
L 439.987108 281.053671 
L 443.594418 271.642783 
L 447.201727 270.776411 
L 450.809036 275.665873 
L 454.416345 253.572192 
L 458.023655 274.964847 
L 461.630964 263.121012 
L 465.238273 242.484456 
L 468.845582 264.029849 
L 472.452892 258.613886 
L 476.060201 261.595864 
L 479.66751 247.994401 
L 483.27482 266.116141 
L 486.882129 266.411271 
L 490.489438 262.478 
L 494.096747 295.184814 
L 497.704057 287.535903 
L 501.311366 250.856351 
L 504.918675 268.530683 
L 508.525984 257.73094 
L 512.133294 267.484803 
L 515.740603 261.509788 
L 519.347912 265.549819 
L 522.955222 257.048491 
L 526.562531 300.285545 
L 530.16984 277.530087 
L 533.777149 280.321761 
L 537.384459 294.363142 
L 540.991768 261.986818 
L 544.599077 266.844541 
L 548.206386 275.582785 
L 551.813696 285.636589 
L 555.421005 292.49477 
L 559.028314 328.928956 
L 562.635624 277.033644 
L 566.242933 297.653429 
L 569.850242 265.796512 
L 573.457551 252.209569 
L 577.064861 241.70137 
L 580.67217 261.668582 
L 584.279479 241.03526 
L 587.886788 267.077326 
L 591.494098 249.985597 
L 595.101407 262.922531 
L 598.708716 249.568703 
L 602.316026 269.256793 
L 605.923335 268.468527 
L 609.530644 268.052917 
L 613.137953 246.52818 
L 616.745263 267.932824 
L 620.352572 273.46764 
L 623.959881 263.567682 
L 627.56719 258.177547 
L 631.1745 247.813686 
L 634.781809 256.753321 
L 638.389118 286.081251 
L 645.603737 251.359203 
L 649.211046 260.439441 
L 652.818355 244.513358 
L 656.425665 229.69135 
L 660.032974 245.387785 
L 663.640283 251.960915 
L 667.247593 257.186526 
L 670.854902 244.822711 
L 674.462211 257.242701 
L 678.06952 246.123781 
L 681.67683 274.332406 
L 685.284139 265.322915 
L 688.891448 271.537795 
L 692.498757 288.94388 
L 696.106067 253.402679 
L 699.713376 254.223416 
L 703.320685 259.421085 
L 706.927995 268.319874 
L 710.535304 257.354121 
L 714.142613 244.077378 
L 717.749922 268.235972 
L 721.357232 259.608648 
L 724.964541 277.022107 
L 728.57185 254.01167 
L 732.179159 250.356458 
L 735.786469 271.034096 
L 739.393778 270.234813 
L 743.001087 258.479235 
L 746.608397 274.855563 
L 750.215706 262.073175 
L 753.823015 273.748738 
L 757.430324 232.037868 
L 761.037634 246.89302 
L 764.644943 275.281237 
L 768.252252 263.485168 
L 771.859561 227.87043 
L 775.466871 239.590858 
L 779.07418 240.226012 
L 782.681489 258.037777 
L 786.288799 233.331998 
L 789.896108 248.171377 
L 793.503417 247.503175 
L 797.110726 267.641633 
L 800.718036 268.1582 
L 804.325345 247.02618 
L 807.932654 241.073747 
L 811.539963 269.420796 
L 815.147273 256.946396 
L 815.147273 256.946396 
" clip-path="url(#p4bdd36bb35)" style="fill: none; stroke: #1f77b4; stroke-width: 1.5; stroke-linecap: round"/>
   </g>
   <g id="patch_3">
    <path d="M 61.4 387.88 
L 61.4 92.30325 
" style="fill: none; stroke: #000000; stroke-width: 0.8; stroke-linejoin: miter; stroke-linecap: square"/>
   </g>
   <g id="patch_4">
    <path d="M 851.04 387.88 
L 851.04 92.30325 
" style="fill: none; stroke: #000000; stroke-width: 0.8; stroke-linejoin: miter; stroke-linecap: square"/>
   </g>
   <g id="patch_5">
    <path d="M 61.4 387.88 
L 851.04 387.88 
" style="fill: none; stroke: #000000; stroke-width: 0.8; stroke-linejoin: miter; stroke-linecap: square"/>
   </g>
   <g id="patch_6">
    <path d="M 61.4 92.30325 
L 851.04 92.30325 
" style="fill: none; stroke: #000000; stroke-width: 0.8; stroke-linejoin: miter; stroke-linecap: square"/>
   </g>
   <g id="text_16">
    <!-- LSTD -->
    <g transform="translate(440.783125 32.193375) scale(0.12 -0.12)">
     <defs>
      <path id="DejaVuSans-4c" d="M 628 4666 
L 1259 4666 
L 1259 531 
L 3531 531 
L 3531 0 
L 628 0 
L 628 4666 
z
" transform="scale(0.015625)"/>
      <path id="DejaVuSans-53" d="M 3425 4513 
L 3425 3897 
Q 3066 4069 2747 4153 
Q 2428 4238 2131 4238 
Q 1616 4238 1336 4038 
Q 1056 3838 1056 3469 
Q 1056 3159 1242 3001 
Q 1428 2844 1947 2747 
L 2328 2669 
Q 3034 2534 3370 2195 
Q 3706 1856 3706 1288 
Q 3706 609 3251 259 
Q 2797 -91 1919 -91 
Q 1588 -91 1214 -16 
Q 841 59 441 206 
L 441 856 
Q 825 641 1194 531 
Q 1563 422 1919 422 
Q 2459 422 2753 634 
Q 3047 847 3047 1241 
Q 3047 1584 2836 1778 
Q 2625 1972 2144 2069 
L 1759 2144 
Q 1053 2284 737 2584 
Q 422 2884 422 3419 
Q 422 4038 858 4394 
Q 1294 4750 2059 4750 
Q 2388 4750 2728 4690 
Q 3069 4631 3425 4513 
z
" transform="scale(0.015625)"/>
      <path id="DejaVuSans-54" d="M -19 4666 
L 3928 4666 
L 3928 4134 
L 2272 4134 
L 2272 0 
L 1638 0 
L 1638 4134 
L -19 4134 
L -19 4666 
z
" transform="scale(0.015625)"/>
      <path id="DejaVuSans-44" d="M 1259 4147 
L 1259 519 
L 2022 519 
Q 2988 519 3436 956 
Q 3884 1394 3884 2338 
Q 3884 3275 3436 3711 
Q 2988 4147 2022 4147 
L 1259 4147 
z
M 628 4666 
L 1925 4666 
Q 3281 4666 3915 4102 
Q 4550 3538 4550 2338 
Q 4550 1131 3912 565 
Q 3275 0 1925 0 
L 628 0 
L 628 4666 
z
" transform="scale(0.015625)"/>
     </defs>
     <use xlink:href="#DejaVuSans-4c"/>
     <use xlink:href="#DejaVuSans-53" transform="translate(55.712891 0)"/>
     <use xlink:href="#DejaVuSans-54" transform="translate(119.189453 0)"/>
     <use xlink:href="#DejaVuSans-44" transform="translate(180.273438 0)"/>
    </g>
    <!-- Best score Episode 20: 245.5 (255.8 ± 10.3) -->
    <g transform="translate(322.822187 45.63075) scale(0.12 -0.12)">
     <defs>
      <path id="DejaVuSans-42" d="M 1259 2228 
L 1259 519 
L 2272 519 
Q 2781 519 3026 730 
Q 3272 941 3272 1375 
Q 3272 1813 3026 2020 
Q 2781 2228 2272 2228 
L 1259 2228 
z
M 1259 4147 
L 1259 2741 
L 2194 2741 
Q 2656 2741 2882 2914 
Q 3109 3088 3109 3444 
Q 3109 3797 2882 3972 
Q 2656 4147 2194 4147 
L 1259 4147 
z
M 628 4666 
L 2241 4666 
Q 2963 4666 3353 4366 
Q 3744 4066 3744 3513 
Q 3744 3084 3544 2831 
Q 3344 2578 2956 2516 
Q 3422 2416 3680 2098 
Q 3938 1781 3938 1306 
Q 3938 681 3513 340 
Q 3088 0 2303 0 
L 628 0 
L 628 4666 
z
" transform="scale(0.015625)"/>
      <path id="DejaVuSans-74" d="M 1172 4494 
L 1172 3500 
L 2356 3500 
L 2356 3053 
L 1172 3053 
L 1172 1153 
Q 1172 725 1289 603 
Q 1406 481 1766 481 
L 2356 481 
L 2356 0 
L 1766 0 
Q 1100 0 847 248 
Q 594 497 594 1153 
L 594 3053 
L 172 3053 
L 172 3500 
L 594 3500 
L 594 4494 
L 1172 4494 
z
" transform="scale(0.015625)"/>
      <path id="DejaVuSans-20" transform="scale(0.015625)"/>
      <path id="DejaVuSans-63" d="M 3122 3366 
L 3122 2828 
Q 2878 2963 2633 3030 
Q 2388 3097 2138 3097 
Q 1578 3097 1268 2742 
Q 959 2388 959 1747 
Q 959 1106 1268 751 
Q 1578 397 2138 397 
Q 2388 397 2633 464 
Q 2878 531 3122 666 
L 3122 134 
Q 2881 22 2623 -34 
Q 2366 -91 2075 -91 
Q 1284 -91 818 406 
Q 353 903 353 1747 
Q 353 2603 823 3093 
Q 1294 3584 2113 3584 
Q 2378 3584 2631 3529 
Q 2884 3475 3122 3366 
z
" transform="scale(0.015625)"/>
      <path id="DejaVuSans-3a" d="M 750 794 
L 1409 794 
L 1409 0 
L 750 0 
L 750 794 
z
M 750 3309 
L 1409 3309 
L 1409 2516 
L 750 2516 
L 750 3309 
z
" transform="scale(0.015625)"/>
      <path id="DejaVuSans-2e" d="M 684 794 
L 1344 794 
L 1344 0 
L 684 0 
L 684 794 
z
" transform="scale(0.015625)"/>
      <path id="DejaVuSans-28" d="M 1984 4856 
Q 1566 4138 1362 3434 
Q 1159 2731 1159 2009 
Q 1159 1288 1364 580 
Q 1569 -128 1984 -844 
L 1484 -844 
Q 1016 -109 783 600 
Q 550 1309 550 2009 
Q 550 2706 781 3412 
Q 1013 4119 1484 4856 
L 1984 4856 
z
" transform="scale(0.015625)"/>
      <path id="DejaVuSans-38" d="M 2034 2216 
Q 1584 2216 1326 1975 
Q 1069 1734 1069 1313 
Q 1069 891 1326 650 
Q 1584 409 2034 409 
Q 2484 409 2743 651 
Q 3003 894 3003 1313 
Q 3003 1734 2745 1975 
Q 2488 2216 2034 2216 
z
M 1403 2484 
Q 997 2584 770 2862 
Q 544 3141 544 3541 
Q 544 4100 942 4425 
Q 1341 4750 2034 4750 
Q 2731 4750 3128 4425 
Q 3525 4100 3525 3541 
Q 3525 3141 3298 2862 
Q 3072 2584 2669 2484 
Q 3125 2378 3379 2068 
Q 3634 1759 3634 1313 
Q 3634 634 3220 271 
Q 2806 -91 2034 -91 
Q 1263 -91 848 271 
Q 434 634 434 1313 
Q 434 1759 690 2068 
Q 947 2378 1403 2484 
z
M 1172 3481 
Q 1172 3119 1398 2916 
Q 1625 2713 2034 2713 
Q 2441 2713 2670 2916 
Q 2900 3119 2900 3481 
Q 2900 3844 2670 4047 
Q 2441 4250 2034 4250 
Q 1625 4250 1398 4047 
Q 1172 3844 1172 3481 
z
" transform="scale(0.015625)"/>
      <path id="DejaVuSans-b1" d="M 2944 4013 
L 2944 2803 
L 4684 2803 
L 4684 2272 
L 2944 2272 
L 2944 1063 
L 2419 1063 
L 2419 2272 
L 678 2272 
L 678 2803 
L 2419 2803 
L 2419 4013 
L 2944 4013 
z
M 678 531 
L 4684 531 
L 4684 0 
L 678 0 
L 678 531 
z
" transform="scale(0.015625)"/>
      <path id="DejaVuSans-29" d="M 513 4856 
L 1013 4856 
Q 1481 4119 1714 3412 
Q 1947 2706 1947 2009 
Q 1947 1309 1714 600 
Q 1481 -109 1013 -844 
L 513 -844 
Q 928 -128 1133 580 
Q 1338 1288 1338 2009 
Q 1338 2731 1133 3434 
Q 928 4138 513 4856 
z
" transform="scale(0.015625)"/>
     </defs>
     <use xlink:href="#DejaVuSans-42"/>
     <use xlink:href="#DejaVuSans-65" transform="translate(68.603516 0)"/>
     <use xlink:href="#DejaVuSans-73" transform="translate(130.126953 0)"/>
     <use xlink:href="#DejaVuSans-74" transform="translate(182.226562 0)"/>
     <use xlink:href="#DejaVuSans-20" transform="translate(221.435547 0)"/>
     <use xlink:href="#DejaVuSans-73" transform="translate(253.222656 0)"/>
     <use xlink:href="#DejaVuSans-63" transform="translate(305.322266 0)"/>
     <use xlink:href="#DejaVuSans-6f" transform="translate(360.302734 0)"/>
     <use xlink:href="#DejaVuSans-72" transform="translate(421.484375 0)"/>
     <use xlink:href="#DejaVuSans-65" transform="translate(460.347656 0)"/>
     <use xlink:href="#DejaVuSans-20" transform="translate(521.871094 0)"/>
     <use xlink:href="#DejaVuSans-45" transform="translate(553.658203 0)"/>
     <use xlink:href="#DejaVuSans-70" transform="translate(616.841797 0)"/>
     <use xlink:href="#DejaVuSans-69" transform="translate(680.318359 0)"/>
     <use xlink:href="#DejaVuSans-73" transform="translate(708.101562 0)"/>
     <use xlink:href="#DejaVuSans-6f" transform="translate(760.201172 0)"/>
     <use xlink:href="#DejaVuSans-64" transform="translate(821.382812 0)"/>
     <use xlink:href="#DejaVuSans-65" transform="translate(884.859375 0)"/>
     <use xlink:href="#DejaVuSans-20" transform="translate(946.382812 0)"/>
     <use xlink:href="#DejaVuSans-32" transform="translate(978.169922 0)"/>
     <use xlink:href="#DejaVuSans-30" transform="translate(1041.792969 0)"/>
     <use xlink:href="#DejaVuSans-3a" transform="translate(1105.416016 0)"/>
     <use xlink:href="#DejaVuSans-20" transform="translate(1139.107422 0)"/>
     <use xlink:href="#DejaVuSans-32" transform="translate(1170.894531 0)"/>
     <use xlink:href="#DejaVuSans-34" transform="translate(1234.517578 0)"/>
     <use xlink:href="#DejaVuSans-35" transform="translate(1298.140625 0)"/>
     <use xlink:href="#DejaVuSans-2e" transform="translate(1361.763672 0)"/>
     <use xlink:href="#DejaVuSans-35" transform="translate(1393.550781 0)"/>
     <use xlink:href="#DejaVuSans-20" transform="translate(1457.173828 0)"/>
     <use xlink:href="#DejaVuSans-28" transform="translate(1488.960938 0)"/>
     <use xlink:href="#DejaVuSans-32" transform="translate(1527.974609 0)"/>
     <use xlink:href="#DejaVuSans-35" transform="translate(1591.597656 0)"/>
     <use xlink:href="#DejaVuSans-35" transform="translate(1655.220703 0)"/>
     <use xlink:href="#DejaVuSans-2e" transform="translate(1718.84375 0)"/>
     <use xlink:href="#DejaVuSans-38" transform="translate(1750.630859 0)"/>
     <use xlink:href="#DejaVuSans-20" transform="translate(1814.253906 0)"/>
     <use xlink:href="#DejaVuSans-b1" transform="translate(1846.041016 0)"/>
     <use xlink:href="#DejaVuSans-20" transform="translate(1929.830078 0)"/>
     <use xlink:href="#DejaVuSans-31" transform="translate(1961.617188 0)"/>
     <use xlink:href="#DejaVuSans-30" transform="translate(2025.240234 0)"/>
     <use xlink:href="#DejaVuSans-2e" transform="translate(2088.863281 0)"/>
     <use xlink:href="#DejaVuSans-33" transform="translate(2120.650391 0)"/>
     <use xlink:href="#DejaVuSans-29" transform="translate(2184.273438 0)"/>
    </g>
    <!-- x:state_interactions -->
    <g transform="translate(396.874375 59.068125) scale(0.12 -0.12)">
     <defs>
      <path id="DejaVuSans-78" d="M 3513 3500 
L 2247 1797 
L 3578 0 
L 2900 0 
L 1881 1375 
L 863 0 
L 184 0 
L 1544 1831 
L 300 3500 
L 978 3500 
L 1906 2253 
L 2834 3500 
L 3513 3500 
z
" transform="scale(0.015625)"/>
      <path id="DejaVuSans-5f" d="M 3263 -1063 
L 3263 -1509 
L -63 -1509 
L -63 -1063 
L 3263 -1063 
z
" transform="scale(0.015625)"/>
      <path id="DejaVuSans-6e" d="M 3513 2113 
L 3513 0 
L 2938 0 
L 2938 2094 
Q 2938 2591 2744 2837 
Q 2550 3084 2163 3084 
Q 1697 3084 1428 2787 
Q 1159 2491 1159 1978 
L 1159 0 
L 581 0 
L 581 3500 
L 1159 3500 
L 1159 2956 
Q 1366 3272 1645 3428 
Q 1925 3584 2291 3584 
Q 2894 3584 3203 3211 
Q 3513 2838 3513 2113 
z
" transform="scale(0.015625)"/>
     </defs>
     <use xlink:href="#DejaVuSans-78"/>
     <use xlink:href="#DejaVuSans-3a" transform="translate(59.179688 0)"/>
     <use xlink:href="#DejaVuSans-73" transform="translate(92.871094 0)"/>
     <use xlink:href="#DejaVuSans-74" transform="translate(144.970703 0)"/>
     <use xlink:href="#DejaVuSans-61" transform="translate(184.179688 0)"/>
     <use xlink:href="#DejaVuSans-74" transform="translate(245.458984 0)"/>
     <use xlink:href="#DejaVuSans-65" transform="translate(284.667969 0)"/>
     <use xlink:href="#DejaVuSans-5f" transform="translate(346.191406 0)"/>
     <use xlink:href="#DejaVuSans-69" transform="translate(396.191406 0)"/>
     <use xlink:href="#DejaVuSans-6e" transform="translate(423.974609 0)"/>
     <use xlink:href="#DejaVuSans-74" transform="translate(487.353516 0)"/>
     <use xlink:href="#DejaVuSans-65" transform="translate(526.5625 0)"/>
     <use xlink:href="#DejaVuSans-72" transform="translate(588.085938 0)"/>
     <use xlink:href="#DejaVuSans-61" transform="translate(629.199219 0)"/>
     <use xlink:href="#DejaVuSans-63" transform="translate(690.478516 0)"/>
     <use xlink:href="#DejaVuSans-74" transform="translate(745.458984 0)"/>
     <use xlink:href="#DejaVuSans-69" transform="translate(784.667969 0)"/>
     <use xlink:href="#DejaVuSans-6f" transform="translate(812.451172 0)"/>
     <use xlink:href="#DejaVuSans-6e" transform="translate(873.632812 0)"/>
     <use xlink:href="#DejaVuSans-73" transform="translate(937.011719 0)"/>
    </g>
    <!-- $\gamma$=9.990e-01, $\lambda$=5.000e-01, $\Delta$=1.000e-07 -->
    <g transform="translate(330.28 72.8415) scale(0.12 -0.12)">
     <defs>
      <path id="DejaVuSans-Oblique-3b3" d="M 1491 2950 
L 1838 788 
L 3456 3500 
L 4066 3500 
L 1972 0 
L 1713 -1331 
L 1138 -1331 
L 1397 0 
L 988 2613 
Q 925 3006 628 3006 
L 475 3006 
L 569 3500 
L 788 3500 
Q 1403 3500 1491 2950 
z
" transform="scale(0.015625)"/>
      <path id="DejaVuSans-3d" d="M 678 2906 
L 4684 2906 
L 4684 2381 
L 678 2381 
L 678 2906 
z
M 678 1631 
L 4684 1631 
L 4684 1100 
L 678 1100 
L 678 1631 
z
" transform="scale(0.015625)"/>
      <path id="DejaVuSans-39" d="M 703 97 
L 703 672 
Q 941 559 1184 500 
Q 1428 441 1663 441 
Q 2288 441 2617 861 
Q 2947 1281 2994 2138 
Q 2813 1869 2534 1725 
Q 2256 1581 1919 1581 
Q 1219 1581 811 2004 
Q 403 2428 403 3163 
Q 403 3881 828 4315 
Q 1253 4750 1959 4750 
Q 2769 4750 3195 4129 
Q 3622 3509 3622 2328 
Q 3622 1225 3098 567 
Q 2575 -91 1691 -91 
Q 1453 -91 1209 -44 
Q 966 3 703 97 
z
M 1959 2075 
Q 2384 2075 2632 2365 
Q 2881 2656 2881 3163 
Q 2881 3666 2632 3958 
Q 2384 4250 1959 4250 
Q 1534 4250 1286 3958 
Q 1038 3666 1038 3163 
Q 1038 2656 1286 2365 
Q 1534 2075 1959 2075 
z
" transform="scale(0.015625)"/>
      <path id="DejaVuSans-2d" d="M 313 2009 
L 1997 2009 
L 1997 1497 
L 313 1497 
L 313 2009 
z
" transform="scale(0.015625)"/>
      <path id="DejaVuSans-2c" d="M 750 794 
L 1409 794 
L 1409 256 
L 897 -744 
L 494 -744 
L 750 256 
L 750 794 
z
" transform="scale(0.015625)"/>
      <path id="DejaVuSans-Oblique-3bb" d="M 2350 4316 
L 3125 0 
L 2516 0 
L 2038 2588 
L 328 0 
L -281 0 
L 1903 3356 
L 1794 3975 
Q 1725 4369 1391 4369 
L 1091 4369 
L 1184 4863 
L 1550 4856 
Q 2253 4847 2350 4316 
z
" transform="scale(0.015625)"/>
      <path id="DejaVuSans-394" d="M 2188 4044 
L 906 525 
L 3472 525 
L 2188 4044 
z
M 50 0 
L 1831 4666 
L 2547 4666 
L 4325 0 
L 50 0 
z
" transform="scale(0.015625)"/>
      <path id="DejaVuSans-37" d="M 525 4666 
L 3525 4666 
L 3525 4397 
L 1831 0 
L 1172 0 
L 2766 4134 
L 525 4134 
L 525 4666 
z
" transform="scale(0.015625)"/>
     </defs>
     <use xlink:href="#DejaVuSans-Oblique-3b3" transform="translate(0 0.015625)"/>
     <use xlink:href="#DejaVuSans-3d" transform="translate(59.179688 0.015625)"/>
     <use xlink:href="#DejaVuSans-39" transform="translate(142.96875 0.015625)"/>
     <use xlink:href="#DejaVuSans-2e" transform="translate(206.591797 0.015625)"/>
     <use xlink:href="#DejaVuSans-39" transform="translate(238.378906 0.015625)"/>
     <use xlink:href="#DejaVuSans-39" transform="translate(302.001953 0.015625)"/>
     <use xlink:href="#DejaVuSans-30" transform="translate(365.625 0.015625)"/>
     <use xlink:href="#DejaVuSans-65" transform="translate(429.248047 0.015625)"/>
     <use xlink:href="#DejaVuSans-2d" transform="translate(490.771484 0.015625)"/>
     <use xlink:href="#DejaVuSans-30" transform="translate(526.855469 0.015625)"/>
     <use xlink:href="#DejaVuSans-31" transform="translate(590.478516 0.015625)"/>
     <use xlink:href="#DejaVuSans-2c" transform="translate(654.101562 0.015625)"/>
     <use xlink:href="#DejaVuSans-20" transform="translate(685.888672 0.015625)"/>
     <use xlink:href="#DejaVuSans-Oblique-3bb" transform="translate(717.675781 0.015625)"/>
     <use xlink:href="#DejaVuSans-3d" transform="translate(776.855469 0.015625)"/>
     <use xlink:href="#DejaVuSans-35" transform="translate(860.644531 0.015625)"/>
     <use xlink:href="#DejaVuSans-2e" transform="translate(924.267578 0.015625)"/>
     <use xlink:href="#DejaVuSans-30" transform="translate(956.054688 0.015625)"/>
     <use xlink:href="#DejaVuSans-30" transform="translate(1019.677734 0.015625)"/>
     <use xlink:href="#DejaVuSans-30" transform="translate(1083.300781 0.015625)"/>
     <use xlink:href="#DejaVuSans-65" transform="translate(1146.923828 0.015625)"/>
     <use xlink:href="#DejaVuSans-2d" transform="translate(1208.447266 0.015625)"/>
     <use xlink:href="#DejaVuSans-30" transform="translate(1244.53125 0.015625)"/>
     <use xlink:href="#DejaVuSans-31" transform="translate(1308.154297 0.015625)"/>
     <use xlink:href="#DejaVuSans-2c" transform="translate(1371.777344 0.015625)"/>
     <use xlink:href="#DejaVuSans-20" transform="translate(1403.564453 0.015625)"/>
     <use xlink:href="#DejaVuSans-394" transform="translate(1435.351562 0.015625)"/>
     <use xlink:href="#DejaVuSans-3d" transform="translate(1503.759766 0.015625)"/>
     <use xlink:href="#DejaVuSans-31" transform="translate(1587.548828 0.015625)"/>
     <use xlink:href="#DejaVuSans-2e" transform="translate(1651.171875 0.015625)"/>
     <use xlink:href="#DejaVuSans-30" transform="translate(1682.958984 0.015625)"/>
     <use xlink:href="#DejaVuSans-30" transform="translate(1746.582031 0.015625)"/>
     <use xlink:href="#DejaVuSans-30" transform="translate(1810.205078 0.015625)"/>
     <use xlink:href="#DejaVuSans-65" transform="translate(1873.828125 0.015625)"/>
     <use xlink:href="#DejaVuSans-2d" transform="translate(1935.351562 0.015625)"/>
     <use xlink:href="#DejaVuSans-30" transform="translate(1971.435547 0.015625)"/>
     <use xlink:href="#DejaVuSans-37" transform="translate(2035.058594 0.015625)"/>
    </g>
    <!-- lr=(1.000,0.000,0.000), er=(0.000,0.000,0.000) -->
    <g transform="translate(312.00625 86.30325) scale(0.12 -0.12)">
     <defs>
      <path id="DejaVuSans-6c" d="M 603 4863 
L 1178 4863 
L 1178 0 
L 603 0 
L 603 4863 
z
" transform="scale(0.015625)"/>
     </defs>
     <use xlink:href="#DejaVuSans-6c"/>
     <use xlink:href="#DejaVuSans-72" transform="translate(27.783203 0)"/>
     <use xlink:href="#DejaVuSans-3d" transform="translate(68.896484 0)"/>
     <use xlink:href="#DejaVuSans-28" transform="translate(152.685547 0)"/>
     <use xlink:href="#DejaVuSans-31" transform="translate(191.699219 0)"/>
     <use xlink:href="#DejaVuSans-2e" transform="translate(255.322266 0)"/>
     <use xlink:href="#DejaVuSans-30" transform="translate(287.109375 0)"/>
     <use xlink:href="#DejaVuSans-30" transform="translate(350.732422 0)"/>
     <use xlink:href="#DejaVuSans-30" transform="translate(414.355469 0)"/>
     <use xlink:href="#DejaVuSans-2c" transform="translate(477.978516 0)"/>
     <use xlink:href="#DejaVuSans-30" transform="translate(509.765625 0)"/>
     <use xlink:href="#DejaVuSans-2e" transform="translate(573.388672 0)"/>
     <use xlink:href="#DejaVuSans-30" transform="translate(605.175781 0)"/>
     <use xlink:href="#DejaVuSans-30" transform="translate(668.798828 0)"/>
     <use xlink:href="#DejaVuSans-30" transform="translate(732.421875 0)"/>
     <use xlink:href="#DejaVuSans-2c" transform="translate(796.044922 0)"/>
     <use xlink:href="#DejaVuSans-30" transform="translate(827.832031 0)"/>
     <use xlink:href="#DejaVuSans-2e" transform="translate(891.455078 0)"/>
     <use xlink:href="#DejaVuSans-30" transform="translate(923.242188 0)"/>
     <use xlink:href="#DejaVuSans-30" transform="translate(986.865234 0)"/>
     <use xlink:href="#DejaVuSans-30" transform="translate(1050.488281 0)"/>
     <use xlink:href="#DejaVuSans-29" transform="translate(1114.111328 0)"/>
     <use xlink:href="#DejaVuSans-2c" transform="translate(1153.125 0)"/>
     <use xlink:href="#DejaVuSans-20" transform="translate(1184.912109 0)"/>
     <use xlink:href="#DejaVuSans-65" transform="translate(1216.699219 0)"/>
     <use xlink:href="#DejaVuSans-72" transform="translate(1278.222656 0)"/>
     <use xlink:href="#DejaVuSans-3d" transform="translate(1319.335938 0)"/>
     <use xlink:href="#DejaVuSans-28" transform="translate(1403.125 0)"/>
     <use xlink:href="#DejaVuSans-30" transform="translate(1442.138672 0)"/>
     <use xlink:href="#DejaVuSans-2e" transform="translate(1505.761719 0)"/>
     <use xlink:href="#DejaVuSans-30" transform="translate(1537.548828 0)"/>
     <use xlink:href="#DejaVuSans-30" transform="translate(1601.171875 0)"/>
     <use xlink:href="#DejaVuSans-30" transform="translate(1664.794922 0)"/>
     <use xlink:href="#DejaVuSans-2c" transform="translate(1728.417969 0)"/>
     <use xlink:href="#DejaVuSans-30" transform="translate(1760.205078 0)"/>
     <use xlink:href="#DejaVuSans-2e" transform="translate(1823.828125 0)"/>
     <use xlink:href="#DejaVuSans-30" transform="translate(1855.615234 0)"/>
     <use xlink:href="#DejaVuSans-30" transform="translate(1919.238281 0)"/>
     <use xlink:href="#DejaVuSans-30" transform="translate(1982.861328 0)"/>
     <use xlink:href="#DejaVuSans-2c" transform="translate(2046.484375 0)"/>
     <use xlink:href="#DejaVuSans-30" transform="translate(2078.271484 0)"/>
     <use xlink:href="#DejaVuSans-2e" transform="translate(2141.894531 0)"/>
     <use xlink:href="#DejaVuSans-30" transform="translate(2173.681641 0)"/>
     <use xlink:href="#DejaVuSans-30" transform="translate(2237.304688 0)"/>
     <use xlink:href="#DejaVuSans-30" transform="translate(2300.927734 0)"/>
     <use xlink:href="#DejaVuSans-29" transform="translate(2364.550781 0)"/>
    </g>
   </g>
   <g id="legend_1">
    <g id="patch_7">
     <path d="M 769.26875 382.38 
L 843.34 382.38 
Q 845.54 382.38 845.54 380.18 
L 845.54 348.965781 
Q 845.54 346.765781 843.34 346.765781 
L 769.26875 346.765781 
Q 767.06875 346.765781 767.06875 348.965781 
L 767.06875 380.18 
Q 767.06875 382.38 769.26875 382.38 
z
" style="fill: #ffffff; opacity: 0.8; stroke: #cccccc; stroke-linejoin: miter"/>
    </g>
    <g id="line2d_28">
     <path d="M 771.46875 355.674062 
L 782.46875 355.674062 
L 793.46875 355.674062 
" style="fill: none; stroke: #1f77b4; stroke-width: 1.5; stroke-linecap: round"/>
    </g>
    <g id="text_17">
     <!-- $\mu$ -->
     <g style="fill: #262626" transform="translate(802.26875 359.524063) scale(0.11 -0.11)">
      <defs>
       <path id="DejaVuSans-Oblique-3bc" d="M -84 -1331 
L 856 3500 
L 1434 3500 
L 1009 1322 
Q 997 1256 987 1175 
Q 978 1094 978 1013 
Q 978 722 1161 565 
Q 1344 409 1684 409 
Q 2147 409 2431 671 
Q 2716 934 2816 1459 
L 3213 3500 
L 3788 3500 
L 3266 809 
Q 3253 750 3248 706 
Q 3244 663 3244 628 
Q 3244 531 3283 486 
Q 3322 441 3406 441 
Q 3438 441 3492 456 
Q 3547 472 3647 513 
L 3559 50 
Q 3422 -19 3297 -55 
Q 3172 -91 3053 -91 
Q 2847 -91 2730 40 
Q 2613 172 2613 403 
Q 2438 153 2195 31 
Q 1953 -91 1625 -91 
Q 1334 -91 1117 43 
Q 900 178 831 397 
L 494 -1331 
L -84 -1331 
z
" transform="scale(0.015625)"/>
      </defs>
      <use xlink:href="#DejaVuSans-Oblique-3bc" transform="translate(0 0.3125)"/>
     </g>
    </g>
    <g id="patch_8">
     <path d="M 771.46875 375.692344 
L 793.46875 375.692344 
L 793.46875 367.992344 
L 771.46875 367.992344 
z
" style="fill: #1f77b4; fill-opacity: 0.3; stroke: #ffffff; stroke-opacity: 0.3; stroke-linejoin: miter"/>
    </g>
    <g id="text_18">
     <!-- 95% CI -->
     <g style="fill: #262626" transform="translate(802.26875 375.692344) scale(0.11 -0.11)">
      <defs>
       <path id="DejaVuSans-25" d="M 4653 2053 
Q 4381 2053 4226 1822 
Q 4072 1591 4072 1178 
Q 4072 772 4226 539 
Q 4381 306 4653 306 
Q 4919 306 5073 539 
Q 5228 772 5228 1178 
Q 5228 1588 5073 1820 
Q 4919 2053 4653 2053 
z
M 4653 2450 
Q 5147 2450 5437 2106 
Q 5728 1763 5728 1178 
Q 5728 594 5436 251 
Q 5144 -91 4653 -91 
Q 4153 -91 3862 251 
Q 3572 594 3572 1178 
Q 3572 1766 3864 2108 
Q 4156 2450 4653 2450 
z
M 1428 4353 
Q 1159 4353 1004 4120 
Q 850 3888 850 3481 
Q 850 3069 1003 2837 
Q 1156 2606 1428 2606 
Q 1700 2606 1854 2837 
Q 2009 3069 2009 3481 
Q 2009 3884 1853 4118 
Q 1697 4353 1428 4353 
z
M 4250 4750 
L 4750 4750 
L 1831 -91 
L 1331 -91 
L 4250 4750 
z
M 1428 4750 
Q 1922 4750 2215 4408 
Q 2509 4066 2509 3481 
Q 2509 2891 2217 2550 
Q 1925 2209 1428 2209 
Q 931 2209 642 2551 
Q 353 2894 353 3481 
Q 353 4063 643 4406 
Q 934 4750 1428 4750 
z
" transform="scale(0.015625)"/>
       <path id="DejaVuSans-43" d="M 4122 4306 
L 4122 3641 
Q 3803 3938 3442 4084 
Q 3081 4231 2675 4231 
Q 1875 4231 1450 3742 
Q 1025 3253 1025 2328 
Q 1025 1406 1450 917 
Q 1875 428 2675 428 
Q 3081 428 3442 575 
Q 3803 722 4122 1019 
L 4122 359 
Q 3791 134 3420 21 
Q 3050 -91 2638 -91 
Q 1578 -91 968 557 
Q 359 1206 359 2328 
Q 359 3453 968 4101 
Q 1578 4750 2638 4750 
Q 3056 4750 3426 4639 
Q 3797 4528 4122 4306 
z
" transform="scale(0.015625)"/>
       <path id="DejaVuSans-49" d="M 628 4666 
L 1259 4666 
L 1259 0 
L 628 0 
L 628 4666 
z
" transform="scale(0.015625)"/>
      </defs>
      <use xlink:href="#DejaVuSans-39"/>
      <use xlink:href="#DejaVuSans-35" transform="translate(63.623047 0)"/>
      <use xlink:href="#DejaVuSans-25" transform="translate(127.246094 0)"/>
      <use xlink:href="#DejaVuSans-20" transform="translate(222.265625 0)"/>
      <use xlink:href="#DejaVuSans-43" transform="translate(254.052734 0)"/>
      <use xlink:href="#DejaVuSans-49" transform="translate(323.876953 0)"/>
     </g>
    </g>
   </g>
  </g>
 </g>
 <defs>
  <clipPath id="p4bdd36bb35">
   <rect x="61.4" y="92.30325" width="789.64" height="295.57675"/>
  </clipPath>
 </defs>
</svg>
