<?xml version="1.0" encoding="utf-8" standalone="no"?>
<!DOCTYPE svg PUBLIC "-//W3C//DTD SVG 1.1//EN"
  "http://www.w3.org/Graphics/SVG/1.1/DTD/svg11.dtd">
<svg xmlns:xlink="http://www.w3.org/1999/xlink" width="864pt" height="432pt" viewBox="0 0 864 432" xmlns="http://www.w3.org/2000/svg" version="1.1">
 <metadata>
  <rdf:RDF xmlns:dc="http://purl.org/dc/elements/1.1/" xmlns:cc="http://creativecommons.org/ns#" xmlns:rdf="http://www.w3.org/1999/02/22-rdf-syntax-ns#">
   <cc:Work>
    <dc:type rdf:resource="http://purl.org/dc/dcmitype/StillImage"/>
    <dc:date>2025-12-11T01:30:08.725370</dc:date>
    <dc:format>image/svg+xml</dc:format>
    <dc:creator>
     <cc:Agent>
      <dc:title>Matplotlib v3.10.6, https://matplotlib.org/</dc:title>
     </cc:Agent>
    </dc:creator>
   </cc:Work>
  </rdf:RDF>
 </metadata>
 <defs>
  <style type="text/css">*{stroke-linejoin: round; stroke-linecap: butt}</style>
 </defs>
 <g id="figure_1">
  <g id="patch_1">
   <path d="M 0 432 
L 864 432 
L 864 0 
L 0 0 
z
" style="fill: #ffffff"/>
  </g>
  <g id="axes_1">
   <g id="patch_2">
    <path d="M 61.4 387.88 
L 851.04 387.88 
L 851.04 92.30325 
L 61.4 92.30325 
z
" style="fill: #ffffff"/>
   </g>
   <g id="FillBetweenPolyCollection_1"/>
   <g id="FillBetweenPolyCollection_2">
    <defs>
     <path id="m03355abed6" d="M 97.292727 -157.771556 
L 97.292727 -110.659734 
L 100.900037 -119.553743 
L 104.507346 -199.412553 
L 108.114655 -119.602114 
L 111.721964 -70.388598 
L 115.329274 -136.52552 
L 118.936583 -69.917375 
L 122.543892 -160.200715 
L 126.151201 -109.350438 
L 129.758511 -198.897776 
L 133.36582 -116.684342 
L 136.973129 -106.21096 
L 140.580439 -83.377353 
L 144.187748 -96.375798 
L 147.795057 -119.505796 
L 151.402366 -76.075901 
L 155.009676 -96.997818 
L 158.616985 -125.261369 
L 162.224294 -92.282921 
L 165.831603 -55.510019 
L 169.438913 -139.247984 
L 173.046222 -157.088394 
L 176.653531 -180.154291 
L 180.260841 -126.541632 
L 183.86815 -111.380349 
L 187.475459 -155.580073 
L 191.082768 -152.376539 
L 194.690078 -162.700202 
L 198.297387 -172.403554 
L 201.904696 -139.481613 
L 205.512005 -165.313641 
L 209.119315 -153.281546 
L 212.726624 -140.300974 
L 216.333933 -147.716753 
L 219.941243 -177.366313 
L 223.548552 -209.656009 
L 227.155861 -203.093846 
L 230.76317 -177.458125 
L 234.37048 -180.460385 
L 237.977789 -208.994888 
L 241.585098 -210.085245 
L 245.192407 -218.324597 
L 248.799717 -244.10774 
L 252.407026 -219.711232 
L 256.014335 -228.149291 
L 259.621645 -219.917219 
L 263.228954 -242.98648 
L 266.836263 -245.978441 
L 270.443572 -245.874247 
L 274.050882 -244.929376 
L 277.658191 -265.013734 
L 281.2655 -289.339 
L 284.87281 -228.037434 
L 288.480119 -237.643879 
L 292.087428 -223.694535 
L 295.694737 -232.620761 
L 299.302047 -230.678583 
L 302.909356 -237.170179 
L 306.516665 -282.044423 
L 310.123974 -254.762352 
L 313.731284 -238.453163 
L 317.338593 -260.64484 
L 320.945902 -246.295366 
L 324.553212 -226.438483 
L 328.160521 -268.343733 
L 331.76783 -255.942772 
L 335.375139 -272.891962 
L 338.982449 -248.171071 
L 342.589758 -259.328277 
L 346.197067 -276.794979 
L 349.804376 -275.852048 
L 353.411686 -283.076916 
L 357.018995 -267.160454 
L 360.626304 -280.439668 
L 364.233614 -278.236563 
L 367.840923 -265.83519 
L 371.448232 -278.51906 
L 375.055541 -270.901897 
L 378.662851 -270.732346 
L 382.27016 -249.950803 
L 385.877469 -267.449892 
L 389.484778 -274.356724 
L 393.092088 -291.517293 
L 396.699397 -274.622767 
L 400.306706 -252.566231 
L 403.914016 -273.816507 
L 407.521325 -311.89175 
L 411.128634 -260.902542 
L 414.735943 -263.930148 
L 418.343253 -309.677709 
L 421.950562 -300.296388 
L 425.557871 -290.420903 
L 429.16518 -275.769653 
L 432.77249 -296.729103 
L 436.379799 -285.958062 
L 439.987108 -280.128611 
L 443.594418 -263.843336 
L 447.201727 -318.487374 
L 450.809036 -291.023321 
L 454.416345 -295.105202 
L 458.023655 -320.968191 
L 461.630964 -280.992158 
L 465.238273 -247.053872 
L 468.845582 -242.132165 
L 472.452892 -252.484659 
L 476.060201 -310.552401 
L 479.66751 -311.641801 
L 483.27482 -255.570485 
L 486.882129 -242.693971 
L 490.489438 -265.041752 
L 494.096747 -239.326944 
L 497.704057 -279.370562 
L 501.311366 -323.570209 
L 504.918675 -275.37171 
L 508.525984 -280.667495 
L 512.133294 -284.028623 
L 515.740603 -244.091586 
L 519.347912 -289.586616 
L 522.955222 -290.909113 
L 526.562531 -272.129706 
L 530.16984 -269.834297 
L 533.777149 -289.972761 
L 537.384459 -272.494495 
L 540.991768 -258.587572 
L 544.599077 -275.271267 
L 548.206386 -306.716585 
L 551.813696 -276.6204 
L 555.421005 -230.67869 
L 559.028314 -249.190874 
L 562.635624 -245.243847 
L 566.242933 -277.553323 
L 569.850242 -244.160561 
L 573.457551 -286.391467 
L 577.064861 -272.579574 
L 580.67217 -249.014911 
L 584.279479 -266.029771 
L 587.886788 -275.860702 
L 591.494098 -277.741648 
L 595.101407 -246.032055 
L 598.708716 -266.242686 
L 602.316026 -281.461801 
L 605.923335 -257.776404 
L 609.530644 -283.724973 
L 613.137953 -301.858784 
L 616.745263 -249.934135 
L 620.352572 -282.589002 
L 623.959881 -280.317677 
L 627.56719 -268.197316 
L 631.1745 -281.811203 
L 634.781809 -237.077568 
L 638.389118 -266.475824 
L 641.996428 -279.183713 
L 645.603737 -226.345374 
L 649.211046 -264.620767 
L 652.818355 -253.68095 
L 656.425665 -271.972103 
L 660.032974 -269.628886 
L 663.640283 -273.463699 
L 667.247593 -280.40965 
L 670.854902 -278.0518 
L 674.462211 -313.877523 
L 678.06952 -295.475643 
L 681.67683 -254.282077 
L 685.284139 -276.049741 
L 688.891448 -267.85123 
L 692.498757 -262.605514 
L 696.106067 -257.269604 
L 699.713376 -282.162589 
L 703.320685 -292.264679 
L 706.927995 -276.813744 
L 710.535304 -285.090018 
L 714.142613 -270.292186 
L 717.749922 -289.338119 
L 721.357232 -257.662806 
L 724.964541 -302.839274 
L 728.57185 -262.509282 
L 732.179159 -250.055494 
L 735.786469 -251.701953 
L 739.393778 -243.250359 
L 743.001087 -279.205296 
L 746.608397 -277.009554 
L 750.215706 -286.36457 
L 753.823015 -262.521012 
L 757.430324 -276.499207 
L 761.037634 -261.81777 
L 764.644943 -268.23722 
L 768.252252 -252.095518 
L 771.859561 -287.346182 
L 775.466871 -266.635004 
L 779.07418 -289.368578 
L 782.681489 -255.97593 
L 786.288799 -261.779576 
L 789.896108 -254.242064 
L 793.503417 -232.384874 
L 797.110726 -273.159111 
L 800.718036 -266.772759 
L 804.325345 -259.201679 
L 807.932654 -252.303837 
L 811.539963 -265.60068 
L 815.147273 -260.602517 
L 815.147273 -328.53303 
L 815.147273 -328.53303 
L 811.539963 -326.621618 
L 807.932654 -317.094572 
L 804.325345 -320.081004 
L 800.718036 -321.293989 
L 797.110726 -326.62645 
L 793.503417 -302.304836 
L 789.896108 -312.471079 
L 786.288799 -322.110715 
L 782.681489 -322.067908 
L 779.07418 -328.425837 
L 775.466871 -329.94562 
L 771.859561 -326.860932 
L 768.252252 -314.824634 
L 764.644943 -332.17745 
L 761.037634 -324.464187 
L 757.430324 -324.434895 
L 753.823015 -323.048231 
L 750.215706 -325.842295 
L 746.608397 -333.445338 
L 743.001087 -327.638206 
L 739.393778 -310.503803 
L 735.786469 -322.321151 
L 732.179159 -317.856669 
L 728.57185 -319.81383 
L 724.964541 -325.350052 
L 721.357232 -318.413972 
L 717.749922 -328.536033 
L 714.142613 -326.701556 
L 710.535304 -324.796147 
L 706.927995 -327.901863 
L 703.320685 -329.371378 
L 699.713376 -327.767601 
L 696.106067 -318.090275 
L 692.498757 -315.819224 
L 688.891448 -326.86759 
L 685.284139 -330.600556 
L 681.67683 -317.363444 
L 678.06952 -324.243189 
L 674.462211 -326.184517 
L 670.854902 -325.543305 
L 667.247593 -329.554555 
L 663.640283 -324.518922 
L 660.032974 -321.448383 
L 656.425665 -335.215185 
L 652.818355 -307.719525 
L 649.211046 -313.458063 
L 645.603737 -300.518837 
L 641.996428 -324.904458 
L 638.389118 -322.045652 
L 634.781809 -302.341749 
L 631.1745 -326.890309 
L 627.56719 -323.848909 
L 623.959881 -324.94025 
L 620.352572 -332.649989 
L 616.745263 -312.980325 
L 613.137953 -339.011729 
L 609.530644 -326.056604 
L 605.923335 -316.604479 
L 602.316026 -319.549182 
L 598.708716 -326.379471 
L 595.101407 -308.442906 
L 591.494098 -328.735647 
L 587.886788 -326.876711 
L 584.279479 -326.632343 
L 580.67217 -314.647397 
L 577.064861 -338.380791 
L 573.457551 -331.786891 
L 569.850242 -320.0025 
L 566.242933 -327.215873 
L 562.635624 -306.908997 
L 559.028314 -312.138835 
L 555.421005 -309.916485 
L 551.813696 -329.785753 
L 548.206386 -324.49188 
L 544.599077 -331.889327 
L 540.991768 -330.243998 
L 537.384459 -316.48746 
L 533.777149 -337.422108 
L 530.16984 -340.362647 
L 526.562531 -330.281641 
L 522.955222 -332.116877 
L 519.347912 -320.081534 
L 515.740603 -319.891071 
L 512.133294 -336.372368 
L 508.525984 -320.579816 
L 504.918675 -334.109158 
L 501.311366 -335.73022 
L 497.704057 -332.335142 
L 494.096747 -326.793815 
L 490.489438 -334.551968 
L 486.882129 -316.692467 
L 483.27482 -327.588512 
L 479.66751 -336.02916 
L 476.060201 -323.767291 
L 472.452892 -320.851515 
L 468.845582 -316.062147 
L 465.238273 -311.180845 
L 461.630964 -330.368102 
L 458.023655 -332.68778 
L 454.416345 -339.278396 
L 450.809036 -334.028348 
L 447.201727 -324.951525 
L 443.594418 -324.878355 
L 439.987108 -324.301864 
L 436.379799 -325.844711 
L 432.77249 -328.133142 
L 429.16518 -327.963819 
L 425.557871 -331.072489 
L 421.950562 -320.059146 
L 418.343253 -326.583613 
L 414.735943 -324.549053 
L 411.128634 -325.185557 
L 407.521325 -333.945777 
L 403.914016 -320.403271 
L 400.306706 -325.158779 
L 396.699397 -333.213168 
L 393.092088 -329.171056 
L 389.484778 -319.854549 
L 385.877469 -323.809253 
L 382.27016 -314.256928 
L 378.662851 -326.784964 
L 375.055541 -333.353645 
L 371.448232 -328.987029 
L 367.840923 -320.554832 
L 364.233614 -327.379985 
L 360.626304 -328.379307 
L 357.018995 -328.624532 
L 353.411686 -326.085384 
L 349.804376 -334.731962 
L 346.197067 -318.356392 
L 342.589758 -309.99336 
L 338.982449 -307.14609 
L 335.375139 -322.911945 
L 331.76783 -325.230735 
L 328.160521 -318.929966 
L 324.553212 -313.878812 
L 320.945902 -302.449335 
L 317.338593 -314.227549 
L 313.731284 -291.583394 
L 310.123974 -313.373801 
L 306.516665 -322.892424 
L 302.909356 -288.927101 
L 299.302047 -309.343951 
L 295.694737 -297.686166 
L 292.087428 -290.154592 
L 288.480119 -302.472175 
L 284.87281 -299.63547 
L 281.2655 -332.923463 
L 277.658191 -323.392715 
L 274.050882 -308.378541 
L 270.443572 -284.448868 
L 266.836263 -311.948002 
L 263.228954 -314.238379 
L 259.621645 -298.241084 
L 256.014335 -287.475486 
L 252.407026 -281.262222 
L 248.799717 -315.325488 
L 245.192407 -288.346423 
L 241.585098 -229.492349 
L 237.977789 -254.847636 
L 234.37048 -248.204931 
L 230.76317 -225.072186 
L 227.155861 -228.18226 
L 223.548552 -234.059971 
L 219.941243 -222.272246 
L 216.333933 -188.399301 
L 212.726624 -186.264288 
L 209.119315 -216.882251 
L 205.512005 -203.793797 
L 201.904696 -170.423036 
L 198.297387 -219.537305 
L 194.690078 -235.275283 
L 191.082768 -203.926698 
L 187.475459 -219.987126 
L 183.86815 -142.023649 
L 180.260841 -170.51685 
L 176.653531 -219.506871 
L 173.046222 -191.71966 
L 169.438913 -211.349884 
L 165.831603 -89.876108 
L 162.224294 -137.775044 
L 158.616985 -185.62343 
L 155.009676 -138.267955 
L 151.402366 -123.713093 
L 147.795057 -149.556844 
L 144.187748 -150.673589 
L 140.580439 -154.805268 
L 136.973129 -131.202668 
L 133.36582 -148.09952 
L 129.758511 -221.302715 
L 126.151201 -172.84335 
L 122.543892 -183.110985 
L 118.936583 -129.243242 
L 115.329274 -174.457066 
L 111.721964 -124.090336 
L 108.114655 -212.248199 
L 104.507346 -213.048476 
L 100.900037 -145.256254 
L 97.292727 -157.771556 
z
" style="stroke: #ffffff; stroke-opacity: 0.3"/>
    </defs>
    <g clip-path="url(#pe0ffc35f76)">
     <use xlink:href="#m03355abed6" x="0" y="432" style="fill: #1f77b4; fill-opacity: 0.3; stroke: #ffffff; stroke-opacity: 0.3"/>
    </g>
   </g>
   <g id="matplotlib.axis_1">
    <g id="xtick_1">
     <g id="line2d_1">
      <path d="M 97.292727 387.88 
L 97.292727 92.30325 
" clip-path="url(#pe0ffc35f76)" style="fill: none; stroke: #b0b0b0; stroke-width: 0.8; stroke-linecap: square"/>
     </g>
     <g id="line2d_2">
      <defs>
       <path id="mcf46c8a061" d="M 0 0 
L 0 3.5 
" style="stroke: #000000; stroke-width: 0.8"/>
      </defs>
      <g>
       <use xlink:href="#mcf46c8a061" x="97.292727" y="387.88" style="stroke: #000000; stroke-width: 0.8"/>
      </g>
     </g>
     <g id="text_1">
      <!-- 0 -->
      <g transform="translate(94.111477 402.478437) scale(0.1 -0.1)">
       <defs>
        <path id="DejaVuSans-30" d="M 2034 4250 
Q 1547 4250 1301 3770 
Q 1056 3291 1056 2328 
Q 1056 1369 1301 889 
Q 1547 409 2034 409 
Q 2525 409 2770 889 
Q 3016 1369 3016 2328 
Q 3016 3291 2770 3770 
Q 2525 4250 2034 4250 
z
M 2034 4750 
Q 2819 4750 3233 4129 
Q 3647 3509 3647 2328 
Q 3647 1150 3233 529 
Q 2819 -91 2034 -91 
Q 1250 -91 836 529 
Q 422 1150 422 2328 
Q 422 3509 836 4129 
Q 1250 4750 2034 4750 
z
" transform="scale(0.015625)"/>
       </defs>
       <use xlink:href="#DejaVuSans-30"/>
      </g>
     </g>
    </g>
    <g id="xtick_2">
     <g id="line2d_3">
      <path d="M 458.023655 387.88 
L 458.023655 92.30325 
" clip-path="url(#pe0ffc35f76)" style="fill: none; stroke: #b0b0b0; stroke-width: 0.8; stroke-linecap: square"/>
     </g>
     <g id="line2d_4">
      <g>
       <use xlink:href="#mcf46c8a061" x="458.023655" y="387.88" style="stroke: #000000; stroke-width: 0.8"/>
      </g>
     </g>
     <g id="text_2">
      <!-- 100 -->
      <g transform="translate(448.479905 402.478437) scale(0.1 -0.1)">
       <defs>
        <path id="DejaVuSans-31" d="M 794 531 
L 1825 531 
L 1825 4091 
L 703 3866 
L 703 4441 
L 1819 4666 
L 2450 4666 
L 2450 531 
L 3481 531 
L 3481 0 
L 794 0 
L 794 531 
z
" transform="scale(0.015625)"/>
       </defs>
       <use xlink:href="#DejaVuSans-31"/>
       <use xlink:href="#DejaVuSans-30" transform="translate(63.623047 0)"/>
       <use xlink:href="#DejaVuSans-30" transform="translate(127.246094 0)"/>
      </g>
     </g>
    </g>
    <g id="xtick_3">
     <g id="line2d_5">
      <path d="M 818.754582 387.88 
L 818.754582 92.30325 
" clip-path="url(#pe0ffc35f76)" style="fill: none; stroke: #b0b0b0; stroke-width: 0.8; stroke-linecap: square"/>
     </g>
     <g id="line2d_6">
      <g>
       <use xlink:href="#mcf46c8a061" x="818.754582" y="387.88" style="stroke: #000000; stroke-width: 0.8"/>
      </g>
     </g>
     <g id="text_3">
      <!-- 200 -->
      <g transform="translate(809.210832 402.478437) scale(0.1 -0.1)">
       <defs>
        <path id="DejaVuSans-32" d="M 1228 531 
L 3431 531 
L 3431 0 
L 469 0 
L 469 531 
Q 828 903 1448 1529 
Q 2069 2156 2228 2338 
Q 2531 2678 2651 2914 
Q 2772 3150 2772 3378 
Q 2772 3750 2511 3984 
Q 2250 4219 1831 4219 
Q 1534 4219 1204 4116 
Q 875 4013 500 3803 
L 500 4441 
Q 881 4594 1212 4672 
Q 1544 4750 1819 4750 
Q 2544 4750 2975 4387 
Q 3406 4025 3406 3419 
Q 3406 3131 3298 2873 
Q 3191 2616 2906 2266 
Q 2828 2175 2409 1742 
Q 1991 1309 1228 531 
z
" transform="scale(0.015625)"/>
       </defs>
       <use xlink:href="#DejaVuSans-32"/>
       <use xlink:href="#DejaVuSans-30" transform="translate(63.623047 0)"/>
       <use xlink:href="#DejaVuSans-30" transform="translate(127.246094 0)"/>
      </g>
     </g>
    </g>
    <g id="text_4">
     <!-- Episode -->
     <g transform="translate(436.5825 416.156563) scale(0.1 -0.1)">
      <defs>
       <path id="DejaVuSans-45" d="M 628 4666 
L 3578 4666 
L 3578 4134 
L 1259 4134 
L 1259 2753 
L 3481 2753 
L 3481 2222 
L 1259 2222 
L 1259 531 
L 3634 531 
L 3634 0 
L 628 0 
L 628 4666 
z
" transform="scale(0.015625)"/>
       <path id="DejaVuSans-70" d="M 1159 525 
L 1159 -1331 
L 581 -1331 
L 581 3500 
L 1159 3500 
L 1159 2969 
Q 1341 3281 1617 3432 
Q 1894 3584 2278 3584 
Q 2916 3584 3314 3078 
Q 3713 2572 3713 1747 
Q 3713 922 3314 415 
Q 2916 -91 2278 -91 
Q 1894 -91 1617 61 
Q 1341 213 1159 525 
z
M 3116 1747 
Q 3116 2381 2855 2742 
Q 2594 3103 2138 3103 
Q 1681 3103 1420 2742 
Q 1159 2381 1159 1747 
Q 1159 1113 1420 752 
Q 1681 391 2138 391 
Q 2594 391 2855 752 
Q 3116 1113 3116 1747 
z
" transform="scale(0.015625)"/>
       <path id="DejaVuSans-69" d="M 603 3500 
L 1178 3500 
L 1178 0 
L 603 0 
L 603 3500 
z
M 603 4863 
L 1178 4863 
L 1178 4134 
L 603 4134 
L 603 4863 
z
" transform="scale(0.015625)"/>
       <path id="DejaVuSans-73" d="M 2834 3397 
L 2834 2853 
Q 2591 2978 2328 3040 
Q 2066 3103 1784 3103 
Q 1356 3103 1142 2972 
Q 928 2841 928 2578 
Q 928 2378 1081 2264 
Q 1234 2150 1697 2047 
L 1894 2003 
Q 2506 1872 2764 1633 
Q 3022 1394 3022 966 
Q 3022 478 2636 193 
Q 2250 -91 1575 -91 
Q 1294 -91 989 -36 
Q 684 19 347 128 
L 347 722 
Q 666 556 975 473 
Q 1284 391 1588 391 
Q 1994 391 2212 530 
Q 2431 669 2431 922 
Q 2431 1156 2273 1281 
Q 2116 1406 1581 1522 
L 1381 1569 
Q 847 1681 609 1914 
Q 372 2147 372 2553 
Q 372 3047 722 3315 
Q 1072 3584 1716 3584 
Q 2034 3584 2315 3537 
Q 2597 3491 2834 3397 
z
" transform="scale(0.015625)"/>
       <path id="DejaVuSans-6f" d="M 1959 3097 
Q 1497 3097 1228 2736 
Q 959 2375 959 1747 
Q 959 1119 1226 758 
Q 1494 397 1959 397 
Q 2419 397 2687 759 
Q 2956 1122 2956 1747 
Q 2956 2369 2687 2733 
Q 2419 3097 1959 3097 
z
M 1959 3584 
Q 2709 3584 3137 3096 
Q 3566 2609 3566 1747 
Q 3566 888 3137 398 
Q 2709 -91 1959 -91 
Q 1206 -91 779 398 
Q 353 888 353 1747 
Q 353 2609 779 3096 
Q 1206 3584 1959 3584 
z
" transform="scale(0.015625)"/>
       <path id="DejaVuSans-64" d="M 2906 2969 
L 2906 4863 
L 3481 4863 
L 3481 0 
L 2906 0 
L 2906 525 
Q 2725 213 2448 61 
Q 2172 -91 1784 -91 
Q 1150 -91 751 415 
Q 353 922 353 1747 
Q 353 2572 751 3078 
Q 1150 3584 1784 3584 
Q 2172 3584 2448 3432 
Q 2725 3281 2906 2969 
z
M 947 1747 
Q 947 1113 1208 752 
Q 1469 391 1925 391 
Q 2381 391 2643 752 
Q 2906 1113 2906 1747 
Q 2906 2381 2643 2742 
Q 2381 3103 1925 3103 
Q 1469 3103 1208 2742 
Q 947 2381 947 1747 
z
" transform="scale(0.015625)"/>
       <path id="DejaVuSans-65" d="M 3597 1894 
L 3597 1613 
L 953 1613 
Q 991 1019 1311 708 
Q 1631 397 2203 397 
Q 2534 397 2845 478 
Q 3156 559 3463 722 
L 3463 178 
Q 3153 47 2828 -22 
Q 2503 -91 2169 -91 
Q 1331 -91 842 396 
Q 353 884 353 1716 
Q 353 2575 817 3079 
Q 1281 3584 2069 3584 
Q 2775 3584 3186 3129 
Q 3597 2675 3597 1894 
z
M 3022 2063 
Q 3016 2534 2758 2815 
Q 2500 3097 2075 3097 
Q 1594 3097 1305 2825 
Q 1016 2553 972 2059 
L 3022 2063 
z
" transform="scale(0.015625)"/>
      </defs>
      <use xlink:href="#DejaVuSans-45"/>
      <use xlink:href="#DejaVuSans-70" transform="translate(63.183594 0)"/>
      <use xlink:href="#DejaVuSans-69" transform="translate(126.660156 0)"/>
      <use xlink:href="#DejaVuSans-73" transform="translate(154.443359 0)"/>
      <use xlink:href="#DejaVuSans-6f" transform="translate(206.542969 0)"/>
      <use xlink:href="#DejaVuSans-64" transform="translate(267.724609 0)"/>
      <use xlink:href="#DejaVuSans-65" transform="translate(331.201172 0)"/>
     </g>
    </g>
   </g>
   <g id="matplotlib.axis_2">
    <g id="ytick_1">
     <g id="line2d_7">
      <path d="M 61.4 387.88 
L 851.04 387.88 
" clip-path="url(#pe0ffc35f76)" style="fill: none; stroke: #b0b0b0; stroke-width: 0.8; stroke-linecap: square"/>
     </g>
     <g id="line2d_8">
      <defs>
       <path id="mfcf06bd0f5" d="M 0 0 
L -3.5 0 
" style="stroke: #000000; stroke-width: 0.8"/>
      </defs>
      <g>
       <use xlink:href="#mfcf06bd0f5" x="61.4" y="387.88" style="stroke: #000000; stroke-width: 0.8"/>
      </g>
     </g>
     <g id="text_5">
      <!-- −600 -->
      <g transform="translate(26.932812 391.679219) scale(0.1 -0.1)">
       <defs>
        <path id="DejaVuSans-2212" d="M 678 2272 
L 4684 2272 
L 4684 1741 
L 678 1741 
L 678 2272 
z
" transform="scale(0.015625)"/>
        <path id="DejaVuSans-36" d="M 2113 2584 
Q 1688 2584 1439 2293 
Q 1191 2003 1191 1497 
Q 1191 994 1439 701 
Q 1688 409 2113 409 
Q 2538 409 2786 701 
Q 3034 994 3034 1497 
Q 3034 2003 2786 2293 
Q 2538 2584 2113 2584 
z
M 3366 4563 
L 3366 3988 
Q 3128 4100 2886 4159 
Q 2644 4219 2406 4219 
Q 1781 4219 1451 3797 
Q 1122 3375 1075 2522 
Q 1259 2794 1537 2939 
Q 1816 3084 2150 3084 
Q 2853 3084 3261 2657 
Q 3669 2231 3669 1497 
Q 3669 778 3244 343 
Q 2819 -91 2113 -91 
Q 1303 -91 875 529 
Q 447 1150 447 2328 
Q 447 3434 972 4092 
Q 1497 4750 2381 4750 
Q 2619 4750 2861 4703 
Q 3103 4656 3366 4563 
z
" transform="scale(0.015625)"/>
       </defs>
       <use xlink:href="#DejaVuSans-2212"/>
       <use xlink:href="#DejaVuSans-36" transform="translate(83.789062 0)"/>
       <use xlink:href="#DejaVuSans-30" transform="translate(147.412109 0)"/>
       <use xlink:href="#DejaVuSans-30" transform="translate(211.035156 0)"/>
      </g>
     </g>
    </g>
    <g id="ytick_2">
     <g id="line2d_9">
      <path d="M 61.4 355.038139 
L 851.04 355.038139 
" clip-path="url(#pe0ffc35f76)" style="fill: none; stroke: #b0b0b0; stroke-width: 0.8; stroke-linecap: square"/>
     </g>
     <g id="line2d_10">
      <g>
       <use xlink:href="#mfcf06bd0f5" x="61.4" y="355.038139" style="stroke: #000000; stroke-width: 0.8"/>
      </g>
     </g>
     <g id="text_6">
      <!-- −500 -->
      <g transform="translate(26.932812 358.837358) scale(0.1 -0.1)">
       <defs>
        <path id="DejaVuSans-35" d="M 691 4666 
L 3169 4666 
L 3169 4134 
L 1269 4134 
L 1269 2991 
Q 1406 3038 1543 3061 
Q 1681 3084 1819 3084 
Q 2600 3084 3056 2656 
Q 3513 2228 3513 1497 
Q 3513 744 3044 326 
Q 2575 -91 1722 -91 
Q 1428 -91 1123 -41 
Q 819 9 494 109 
L 494 744 
Q 775 591 1075 516 
Q 1375 441 1709 441 
Q 2250 441 2565 725 
Q 2881 1009 2881 1497 
Q 2881 1984 2565 2268 
Q 2250 2553 1709 2553 
Q 1456 2553 1204 2497 
Q 953 2441 691 2322 
L 691 4666 
z
" transform="scale(0.015625)"/>
       </defs>
       <use xlink:href="#DejaVuSans-2212"/>
       <use xlink:href="#DejaVuSans-35" transform="translate(83.789062 0)"/>
       <use xlink:href="#DejaVuSans-30" transform="translate(147.412109 0)"/>
       <use xlink:href="#DejaVuSans-30" transform="translate(211.035156 0)"/>
      </g>
     </g>
    </g>
    <g id="ytick_3">
     <g id="line2d_11">
      <path d="M 61.4 322.196278 
L 851.04 322.196278 
" clip-path="url(#pe0ffc35f76)" style="fill: none; stroke: #b0b0b0; stroke-width: 0.8; stroke-linecap: square"/>
     </g>
     <g id="line2d_12">
      <g>
       <use xlink:href="#mfcf06bd0f5" x="61.4" y="322.196278" style="stroke: #000000; stroke-width: 0.8"/>
      </g>
     </g>
     <g id="text_7">
      <!-- −400 -->
      <g transform="translate(26.932812 325.995497) scale(0.1 -0.1)">
       <defs>
        <path id="DejaVuSans-34" d="M 2419 4116 
L 825 1625 
L 2419 1625 
L 2419 4116 
z
M 2253 4666 
L 3047 4666 
L 3047 1625 
L 3713 1625 
L 3713 1100 
L 3047 1100 
L 3047 0 
L 2419 0 
L 2419 1100 
L 313 1100 
L 313 1709 
L 2253 4666 
z
" transform="scale(0.015625)"/>
       </defs>
       <use xlink:href="#DejaVuSans-2212"/>
       <use xlink:href="#DejaVuSans-34" transform="translate(83.789062 0)"/>
       <use xlink:href="#DejaVuSans-30" transform="translate(147.412109 0)"/>
       <use xlink:href="#DejaVuSans-30" transform="translate(211.035156 0)"/>
      </g>
     </g>
    </g>
    <g id="ytick_4">
     <g id="line2d_13">
      <path d="M 61.4 289.354417 
L 851.04 289.354417 
" clip-path="url(#pe0ffc35f76)" style="fill: none; stroke: #b0b0b0; stroke-width: 0.8; stroke-linecap: square"/>
     </g>
     <g id="line2d_14">
      <g>
       <use xlink:href="#mfcf06bd0f5" x="61.4" y="289.354417" style="stroke: #000000; stroke-width: 0.8"/>
      </g>
     </g>
     <g id="text_8">
      <!-- −300 -->
      <g transform="translate(26.932812 293.153635) scale(0.1 -0.1)">
       <defs>
        <path id="DejaVuSans-33" d="M 2597 2516 
Q 3050 2419 3304 2112 
Q 3559 1806 3559 1356 
Q 3559 666 3084 287 
Q 2609 -91 1734 -91 
Q 1441 -91 1130 -33 
Q 819 25 488 141 
L 488 750 
Q 750 597 1062 519 
Q 1375 441 1716 441 
Q 2309 441 2620 675 
Q 2931 909 2931 1356 
Q 2931 1769 2642 2001 
Q 2353 2234 1838 2234 
L 1294 2234 
L 1294 2753 
L 1863 2753 
Q 2328 2753 2575 2939 
Q 2822 3125 2822 3475 
Q 2822 3834 2567 4026 
Q 2313 4219 1838 4219 
Q 1578 4219 1281 4162 
Q 984 4106 628 3988 
L 628 4550 
Q 988 4650 1302 4700 
Q 1616 4750 1894 4750 
Q 2613 4750 3031 4423 
Q 3450 4097 3450 3541 
Q 3450 3153 3228 2886 
Q 3006 2619 2597 2516 
z
" transform="scale(0.015625)"/>
       </defs>
       <use xlink:href="#DejaVuSans-2212"/>
       <use xlink:href="#DejaVuSans-33" transform="translate(83.789062 0)"/>
       <use xlink:href="#DejaVuSans-30" transform="translate(147.412109 0)"/>
       <use xlink:href="#DejaVuSans-30" transform="translate(211.035156 0)"/>
      </g>
     </g>
    </g>
    <g id="ytick_5">
     <g id="line2d_15">
      <path d="M 61.4 256.512556 
L 851.04 256.512556 
" clip-path="url(#pe0ffc35f76)" style="fill: none; stroke: #b0b0b0; stroke-width: 0.8; stroke-linecap: square"/>
     </g>
     <g id="line2d_16">
      <g>
       <use xlink:href="#mfcf06bd0f5" x="61.4" y="256.512556" style="stroke: #000000; stroke-width: 0.8"/>
      </g>
     </g>
     <g id="text_9">
      <!-- −200 -->
      <g transform="translate(26.932812 260.311774) scale(0.1 -0.1)">
       <use xlink:href="#DejaVuSans-2212"/>
       <use xlink:href="#DejaVuSans-32" transform="translate(83.789062 0)"/>
       <use xlink:href="#DejaVuSans-30" transform="translate(147.412109 0)"/>
       <use xlink:href="#DejaVuSans-30" transform="translate(211.035156 0)"/>
      </g>
     </g>
    </g>
    <g id="ytick_6">
     <g id="line2d_17">
      <path d="M 61.4 223.670694 
L 851.04 223.670694 
" clip-path="url(#pe0ffc35f76)" style="fill: none; stroke: #b0b0b0; stroke-width: 0.8; stroke-linecap: square"/>
     </g>
     <g id="line2d_18">
      <g>
       <use xlink:href="#mfcf06bd0f5" x="61.4" y="223.670694" style="stroke: #000000; stroke-width: 0.8"/>
      </g>
     </g>
     <g id="text_10">
      <!-- −100 -->
      <g transform="translate(26.932812 227.469913) scale(0.1 -0.1)">
       <use xlink:href="#DejaVuSans-2212"/>
       <use xlink:href="#DejaVuSans-31" transform="translate(83.789062 0)"/>
       <use xlink:href="#DejaVuSans-30" transform="translate(147.412109 0)"/>
       <use xlink:href="#DejaVuSans-30" transform="translate(211.035156 0)"/>
      </g>
     </g>
    </g>
    <g id="ytick_7">
     <g id="line2d_19">
      <path d="M 61.4 190.828833 
L 851.04 190.828833 
" clip-path="url(#pe0ffc35f76)" style="fill: none; stroke: #b0b0b0; stroke-width: 0.8; stroke-linecap: square"/>
     </g>
     <g id="line2d_20">
      <g>
       <use xlink:href="#mfcf06bd0f5" x="61.4" y="190.828833" style="stroke: #000000; stroke-width: 0.8"/>
      </g>
     </g>
     <g id="text_11">
      <!-- 0 -->
      <g transform="translate(48.0375 194.628052) scale(0.1 -0.1)">
       <use xlink:href="#DejaVuSans-30"/>
      </g>
     </g>
    </g>
    <g id="ytick_8">
     <g id="line2d_21">
      <path d="M 61.4 157.986972 
L 851.04 157.986972 
" clip-path="url(#pe0ffc35f76)" style="fill: none; stroke: #b0b0b0; stroke-width: 0.8; stroke-linecap: square"/>
     </g>
     <g id="line2d_22">
      <g>
       <use xlink:href="#mfcf06bd0f5" x="61.4" y="157.986972" style="stroke: #000000; stroke-width: 0.8"/>
      </g>
     </g>
     <g id="text_12">
      <!-- 100 -->
      <g transform="translate(35.3125 161.786191) scale(0.1 -0.1)">
       <use xlink:href="#DejaVuSans-31"/>
       <use xlink:href="#DejaVuSans-30" transform="translate(63.623047 0)"/>
       <use xlink:href="#DejaVuSans-30" transform="translate(127.246094 0)"/>
      </g>
     </g>
    </g>
    <g id="ytick_9">
     <g id="line2d_23">
      <path d="M 61.4 125.145111 
L 851.04 125.145111 
" clip-path="url(#pe0ffc35f76)" style="fill: none; stroke: #b0b0b0; stroke-width: 0.8; stroke-linecap: square"/>
     </g>
     <g id="line2d_24">
      <g>
       <use xlink:href="#mfcf06bd0f5" x="61.4" y="125.145111" style="stroke: #000000; stroke-width: 0.8"/>
      </g>
     </g>
     <g id="text_13">
      <!-- 200 -->
      <g transform="translate(35.3125 128.94433) scale(0.1 -0.1)">
       <use xlink:href="#DejaVuSans-32"/>
       <use xlink:href="#DejaVuSans-30" transform="translate(63.623047 0)"/>
       <use xlink:href="#DejaVuSans-30" transform="translate(127.246094 0)"/>
      </g>
     </g>
    </g>
    <g id="ytick_10">
     <g id="line2d_25">
      <path d="M 61.4 92.30325 
L 851.04 92.30325 
" clip-path="url(#pe0ffc35f76)" style="fill: none; stroke: #b0b0b0; stroke-width: 0.8; stroke-linecap: square"/>
     </g>
     <g id="line2d_26">
      <g>
       <use xlink:href="#mfcf06bd0f5" x="61.4" y="92.30325" style="stroke: #000000; stroke-width: 0.8"/>
      </g>
     </g>
     <g id="text_14">
      <!-- 300 -->
      <g transform="translate(35.3125 96.102469) scale(0.1 -0.1)">
       <use xlink:href="#DejaVuSans-33"/>
       <use xlink:href="#DejaVuSans-30" transform="translate(63.623047 0)"/>
       <use xlink:href="#DejaVuSans-30" transform="translate(127.246094 0)"/>
      </g>
     </g>
    </g>
    <g id="text_15">
     <!-- Reward -->
     <g transform="translate(20.853125 258.712719) rotate(-90) scale(0.1 -0.1)">
      <defs>
       <path id="DejaVuSans-52" d="M 2841 2188 
Q 3044 2119 3236 1894 
Q 3428 1669 3622 1275 
L 4263 0 
L 3584 0 
L 2988 1197 
Q 2756 1666 2539 1819 
Q 2322 1972 1947 1972 
L 1259 1972 
L 1259 0 
L 628 0 
L 628 4666 
L 2053 4666 
Q 2853 4666 3247 4331 
Q 3641 3997 3641 3322 
Q 3641 2881 3436 2590 
Q 3231 2300 2841 2188 
z
M 1259 4147 
L 1259 2491 
L 2053 2491 
Q 2509 2491 2742 2702 
Q 2975 2913 2975 3322 
Q 2975 3731 2742 3939 
Q 2509 4147 2053 4147 
L 1259 4147 
z
" transform="scale(0.015625)"/>
       <path id="DejaVuSans-77" d="M 269 3500 
L 844 3500 
L 1563 769 
L 2278 3500 
L 2956 3500 
L 3675 769 
L 4391 3500 
L 4966 3500 
L 4050 0 
L 3372 0 
L 2619 2869 
L 1863 0 
L 1184 0 
L 269 3500 
z
" transform="scale(0.015625)"/>
       <path id="DejaVuSans-61" d="M 2194 1759 
Q 1497 1759 1228 1600 
Q 959 1441 959 1056 
Q 959 750 1161 570 
Q 1363 391 1709 391 
Q 2188 391 2477 730 
Q 2766 1069 2766 1631 
L 2766 1759 
L 2194 1759 
z
M 3341 1997 
L 3341 0 
L 2766 0 
L 2766 531 
Q 2569 213 2275 61 
Q 1981 -91 1556 -91 
Q 1019 -91 701 211 
Q 384 513 384 1019 
Q 384 1609 779 1909 
Q 1175 2209 1959 2209 
L 2766 2209 
L 2766 2266 
Q 2766 2663 2505 2880 
Q 2244 3097 1772 3097 
Q 1472 3097 1187 3025 
Q 903 2953 641 2809 
L 641 3341 
Q 956 3463 1253 3523 
Q 1550 3584 1831 3584 
Q 2591 3584 2966 3190 
Q 3341 2797 3341 1997 
z
" transform="scale(0.015625)"/>
       <path id="DejaVuSans-72" d="M 2631 2963 
Q 2534 3019 2420 3045 
Q 2306 3072 2169 3072 
Q 1681 3072 1420 2755 
Q 1159 2438 1159 1844 
L 1159 0 
L 581 0 
L 581 3500 
L 1159 3500 
L 1159 2956 
Q 1341 3275 1631 3429 
Q 1922 3584 2338 3584 
Q 2397 3584 2469 3576 
Q 2541 3569 2628 3553 
L 2631 2963 
z
" transform="scale(0.015625)"/>
      </defs>
      <use xlink:href="#DejaVuSans-52"/>
      <use xlink:href="#DejaVuSans-65" transform="translate(64.982422 0)"/>
      <use xlink:href="#DejaVuSans-77" transform="translate(126.505859 0)"/>
      <use xlink:href="#DejaVuSans-61" transform="translate(208.292969 0)"/>
      <use xlink:href="#DejaVuSans-72" transform="translate(269.572266 0)"/>
      <use xlink:href="#DejaVuSans-64" transform="translate(308.935547 0)"/>
     </g>
    </g>
   </g>
   <g id="line2d_27">
    <path d="M 97.292727 297.784355 
L 100.900037 299.595001 
L 104.507346 225.769486 
L 108.114655 266.074844 
L 111.721964 334.760533 
L 115.329274 276.508707 
L 118.936583 332.419691 
L 122.543892 260.34415 
L 126.151201 290.903106 
L 129.758511 221.899754 
L 133.36582 299.608069 
L 136.973129 313.293186 
L 140.580439 312.90869 
L 144.187748 308.475307 
L 147.795057 297.46868 
L 151.402366 332.105503 
L 155.009676 314.367114 
L 158.616985 276.557601 
L 162.224294 316.971017 
L 165.831603 359.306937 
L 169.438913 256.701066 
L 173.046222 257.595973 
L 176.653531 232.169419 
L 180.260841 283.470759 
L 183.86815 305.298001 
L 187.475459 244.216401 
L 191.082768 253.848382 
L 194.690078 233.012258 
L 198.297387 236.029571 
L 201.904696 277.047675 
L 205.512005 247.446281 
L 209.119315 246.918101 
L 212.726624 268.717369 
L 216.333933 263.941973 
L 219.941243 232.180721 
L 223.548552 210.14201 
L 227.155861 216.361947 
L 230.76317 230.734844 
L 234.37048 217.667342 
L 237.977789 200.078738 
L 241.585098 212.211203 
L 245.192407 178.66449 
L 248.799717 152.283386 
L 252.407026 181.513273 
L 256.014335 174.187611 
L 259.621645 172.920848 
L 263.228954 153.38757 
L 266.836263 153.036778 
L 270.443572 166.838442 
L 274.050882 155.346041 
L 277.658191 137.796776 
L 281.2655 120.868768 
L 284.87281 168.163548 
L 288.480119 161.941973 
L 292.087428 175.075436 
L 295.694737 166.846537 
L 299.302047 161.988733 
L 302.909356 168.95136 
L 306.516665 129.531577 
L 310.123974 147.931923 
L 313.731284 166.981722 
L 317.338593 144.563806 
L 320.945902 157.62765 
L 324.553212 161.841353 
L 328.160521 138.363151 
L 331.76783 141.413246 
L 335.375139 134.098046 
L 338.982449 154.341419 
L 342.589758 147.339181 
L 346.197067 134.424315 
L 349.804376 126.707995 
L 353.411686 127.41885 
L 357.018995 134.107507 
L 360.626304 127.590512 
L 364.233614 129.191726 
L 367.840923 138.804989 
L 371.448232 128.246956 
L 375.055541 129.872229 
L 378.662851 133.241345 
L 382.27016 149.896135 
L 385.877469 136.370427 
L 389.484778 134.894363 
L 393.092088 121.655826 
L 396.699397 128.082032 
L 400.306706 143.137495 
L 403.914016 134.890111 
L 407.521325 109.081237 
L 411.128634 138.955951 
L 414.735943 137.760399 
L 418.343253 113.869339 
L 421.950562 121.822233 
L 425.557871 121.253304 
L 429.16518 130.133264 
L 432.77249 119.568877 
L 436.379799 126.098613 
L 439.987108 129.784762 
L 443.594418 137.639155 
L 447.201727 110.28055 
L 450.809036 119.474165 
L 454.416345 114.808201 
L 458.023655 105.172015 
L 461.630964 126.31987 
L 465.238273 152.882641 
L 468.845582 152.902844 
L 472.452892 145.331913 
L 476.060201 114.840154 
L 479.66751 108.164519 
L 483.27482 140.420502 
L 486.882129 152.306781 
L 490.489438 132.20314 
L 494.096747 148.939621 
L 497.704057 126.147148 
L 501.311366 102.349786 
L 504.918675 127.259566 
L 508.525984 131.376344 
L 512.133294 121.799505 
L 515.740603 150.008672 
L 519.347912 127.165925 
L 522.955222 120.487005 
L 526.562531 130.794326 
L 530.16984 126.901528 
L 533.777149 118.302566 
L 537.384459 137.509023 
L 540.991768 137.584215 
L 544.599077 128.419703 
L 548.206386 116.395767 
L 551.813696 128.796923 
L 555.421005 161.702413 
L 559.028314 151.335146 
L 562.635624 155.923578 
L 566.242933 129.615402 
L 569.850242 149.918469 
L 573.457551 122.910821 
L 577.064861 126.519817 
L 580.67217 150.168846 
L 584.279479 135.668943 
L 587.886788 130.631293 
L 591.494098 128.761353 
L 595.101407 154.76252 
L 598.708716 135.688921 
L 602.316026 131.494509 
L 605.923335 144.809559 
L 609.530644 127.109211 
L 613.137953 111.564744 
L 616.745263 150.54277 
L 620.352572 124.380504 
L 623.959881 129.371036 
L 627.56719 135.976887 
L 631.1745 127.649244 
L 634.781809 162.290341 
L 638.389118 137.739262 
L 641.996428 129.955914 
L 645.603737 168.567894 
L 649.211046 142.960585 
L 652.818355 151.299762 
L 656.425665 128.406356 
L 660.032974 136.461366 
L 663.640283 133.008689 
L 667.247593 127.017897 
L 670.854902 130.202447 
L 674.462211 111.96898 
L 678.06952 122.140584 
L 681.67683 146.17724 
L 685.284139 128.674851 
L 688.891448 134.64059 
L 692.498757 142.787631 
L 696.106067 144.32006 
L 699.713376 127.034905 
L 703.320685 121.181971 
L 706.927995 129.642197 
L 710.535304 127.056917 
L 714.142613 133.503129 
L 717.749922 123.062924 
L 721.357232 143.961611 
L 724.964541 117.905337 
L 728.57185 140.838444 
L 732.179159 148.043919 
L 735.786469 144.988448 
L 739.393778 155.122919 
L 743.001087 128.578249 
L 746.608397 126.772554 
L 750.215706 125.896568 
L 753.823015 139.215379 
L 757.430324 131.532949 
L 761.037634 138.859021 
L 764.644943 131.792665 
L 768.252252 148.539924 
L 771.859561 124.896443 
L 775.466871 133.709688 
L 779.07418 123.102793 
L 782.681489 142.978081 
L 786.288799 140.054855 
L 789.896108 148.643428 
L 793.503417 164.655145 
L 797.110726 132.107219 
L 800.718036 137.966626 
L 804.325345 142.358659 
L 807.932654 147.300796 
L 811.539963 135.888851 
L 815.147273 137.432226 
L 815.147273 137.432226 
" clip-path="url(#pe0ffc35f76)" style="fill: none; stroke: #1f77b4; stroke-width: 1.5; stroke-linecap: round"/>
   </g>
   <g id="patch_3">
    <path d="M 61.4 387.88 
L 61.4 92.30325 
" style="fill: none; stroke: #000000; stroke-width: 0.8; stroke-linejoin: miter; stroke-linecap: square"/>
   </g>
   <g id="patch_4">
    <path d="M 851.04 387.88 
L 851.04 92.30325 
" style="fill: none; stroke: #000000; stroke-width: 0.8; stroke-linejoin: miter; stroke-linecap: square"/>
   </g>
   <g id="patch_5">
    <path d="M 61.4 387.88 
L 851.04 387.88 
" style="fill: none; stroke: #000000; stroke-width: 0.8; stroke-linejoin: miter; stroke-linecap: square"/>
   </g>
   <g id="patch_6">
    <path d="M 61.4 92.30325 
L 851.04 92.30325 
" style="fill: none; stroke: #000000; stroke-width: 0.8; stroke-linejoin: miter; stroke-linecap: square"/>
   </g>
   <g id="text_16">
    <!-- SARSATD0 -->
    <g transform="translate(424.361875 32.193375) scale(0.12 -0.12)">
     <defs>
      <path id="DejaVuSans-53" d="M 3425 4513 
L 3425 3897 
Q 3066 4069 2747 4153 
Q 2428 4238 2131 4238 
Q 1616 4238 1336 4038 
Q 1056 3838 1056 3469 
Q 1056 3159 1242 3001 
Q 1428 2844 1947 2747 
L 2328 2669 
Q 3034 2534 3370 2195 
Q 3706 1856 3706 1288 
Q 3706 609 3251 259 
Q 2797 -91 1919 -91 
Q 1588 -91 1214 -16 
Q 841 59 441 206 
L 441 856 
Q 825 641 1194 531 
Q 1563 422 1919 422 
Q 2459 422 2753 634 
Q 3047 847 3047 1241 
Q 3047 1584 2836 1778 
Q 2625 1972 2144 2069 
L 1759 2144 
Q 1053 2284 737 2584 
Q 422 2884 422 3419 
Q 422 4038 858 4394 
Q 1294 4750 2059 4750 
Q 2388 4750 2728 4690 
Q 3069 4631 3425 4513 
z
" transform="scale(0.015625)"/>
      <path id="DejaVuSans-41" d="M 2188 4044 
L 1331 1722 
L 3047 1722 
L 2188 4044 
z
M 1831 4666 
L 2547 4666 
L 4325 0 
L 3669 0 
L 3244 1197 
L 1141 1197 
L 716 0 
L 50 0 
L 1831 4666 
z
" transform="scale(0.015625)"/>
      <path id="DejaVuSans-54" d="M -19 4666 
L 3928 4666 
L 3928 4134 
L 2272 4134 
L 2272 0 
L 1638 0 
L 1638 4134 
L -19 4134 
L -19 4666 
z
" transform="scale(0.015625)"/>
      <path id="DejaVuSans-44" d="M 1259 4147 
L 1259 519 
L 2022 519 
Q 2988 519 3436 956 
Q 3884 1394 3884 2338 
Q 3884 3275 3436 3711 
Q 2988 4147 2022 4147 
L 1259 4147 
z
M 628 4666 
L 1925 4666 
Q 3281 4666 3915 4102 
Q 4550 3538 4550 2338 
Q 4550 1131 3912 565 
Q 3275 0 1925 0 
L 628 0 
L 628 4666 
z
" transform="scale(0.015625)"/>
     </defs>
     <use xlink:href="#DejaVuSans-53"/>
     <use xlink:href="#DejaVuSans-41" transform="translate(65.351562 0)"/>
     <use xlink:href="#DejaVuSans-52" transform="translate(133.759766 0)"/>
     <use xlink:href="#DejaVuSans-53" transform="translate(203.242188 0)"/>
     <use xlink:href="#DejaVuSans-41" transform="translate(268.59375 0)"/>
     <use xlink:href="#DejaVuSans-54" transform="translate(329.251953 0)"/>
     <use xlink:href="#DejaVuSans-44" transform="translate(390.335938 0)"/>
     <use xlink:href="#DejaVuSans-30" transform="translate(467.337891 0)"/>
    </g>
    <!-- Best score Episode 112: 250.9 (269.4 ± 18.5) -->
    <g transform="translate(319.004687 45.63075) scale(0.12 -0.12)">
     <defs>
      <path id="DejaVuSans-42" d="M 1259 2228 
L 1259 519 
L 2272 519 
Q 2781 519 3026 730 
Q 3272 941 3272 1375 
Q 3272 1813 3026 2020 
Q 2781 2228 2272 2228 
L 1259 2228 
z
M 1259 4147 
L 1259 2741 
L 2194 2741 
Q 2656 2741 2882 2914 
Q 3109 3088 3109 3444 
Q 3109 3797 2882 3972 
Q 2656 4147 2194 4147 
L 1259 4147 
z
M 628 4666 
L 2241 4666 
Q 2963 4666 3353 4366 
Q 3744 4066 3744 3513 
Q 3744 3084 3544 2831 
Q 3344 2578 2956 2516 
Q 3422 2416 3680 2098 
Q 3938 1781 3938 1306 
Q 3938 681 3513 340 
Q 3088 0 2303 0 
L 628 0 
L 628 4666 
z
" transform="scale(0.015625)"/>
      <path id="DejaVuSans-74" d="M 1172 4494 
L 1172 3500 
L 2356 3500 
L 2356 3053 
L 1172 3053 
L 1172 1153 
Q 1172 725 1289 603 
Q 1406 481 1766 481 
L 2356 481 
L 2356 0 
L 1766 0 
Q 1100 0 847 248 
Q 594 497 594 1153 
L 594 3053 
L 172 3053 
L 172 3500 
L 594 3500 
L 594 4494 
L 1172 4494 
z
" transform="scale(0.015625)"/>
      <path id="DejaVuSans-20" transform="scale(0.015625)"/>
      <path id="DejaVuSans-63" d="M 3122 3366 
L 3122 2828 
Q 2878 2963 2633 3030 
Q 2388 3097 2138 3097 
Q 1578 3097 1268 2742 
Q 959 2388 959 1747 
Q 959 1106 1268 751 
Q 1578 397 2138 397 
Q 2388 397 2633 464 
Q 2878 531 3122 666 
L 3122 134 
Q 2881 22 2623 -34 
Q 2366 -91 2075 -91 
Q 1284 -91 818 406 
Q 353 903 353 1747 
Q 353 2603 823 3093 
Q 1294 3584 2113 3584 
Q 2378 3584 2631 3529 
Q 2884 3475 3122 3366 
z
" transform="scale(0.015625)"/>
      <path id="DejaVuSans-3a" d="M 750 794 
L 1409 794 
L 1409 0 
L 750 0 
L 750 794 
z
M 750 3309 
L 1409 3309 
L 1409 2516 
L 750 2516 
L 750 3309 
z
" transform="scale(0.015625)"/>
      <path id="DejaVuSans-2e" d="M 684 794 
L 1344 794 
L 1344 0 
L 684 0 
L 684 794 
z
" transform="scale(0.015625)"/>
      <path id="DejaVuSans-39" d="M 703 97 
L 703 672 
Q 941 559 1184 500 
Q 1428 441 1663 441 
Q 2288 441 2617 861 
Q 2947 1281 2994 2138 
Q 2813 1869 2534 1725 
Q 2256 1581 1919 1581 
Q 1219 1581 811 2004 
Q 403 2428 403 3163 
Q 403 3881 828 4315 
Q 1253 4750 1959 4750 
Q 2769 4750 3195 4129 
Q 3622 3509 3622 2328 
Q 3622 1225 3098 567 
Q 2575 -91 1691 -91 
Q 1453 -91 1209 -44 
Q 966 3 703 97 
z
M 1959 2075 
Q 2384 2075 2632 2365 
Q 2881 2656 2881 3163 
Q 2881 3666 2632 3958 
Q 2384 4250 1959 4250 
Q 1534 4250 1286 3958 
Q 1038 3666 1038 3163 
Q 1038 2656 1286 2365 
Q 1534 2075 1959 2075 
z
" transform="scale(0.015625)"/>
      <path id="DejaVuSans-28" d="M 1984 4856 
Q 1566 4138 1362 3434 
Q 1159 2731 1159 2009 
Q 1159 1288 1364 580 
Q 1569 -128 1984 -844 
L 1484 -844 
Q 1016 -109 783 600 
Q 550 1309 550 2009 
Q 550 2706 781 3412 
Q 1013 4119 1484 4856 
L 1984 4856 
z
" transform="scale(0.015625)"/>
      <path id="DejaVuSans-b1" d="M 2944 4013 
L 2944 2803 
L 4684 2803 
L 4684 2272 
L 2944 2272 
L 2944 1063 
L 2419 1063 
L 2419 2272 
L 678 2272 
L 678 2803 
L 2419 2803 
L 2419 4013 
L 2944 4013 
z
M 678 531 
L 4684 531 
L 4684 0 
L 678 0 
L 678 531 
z
" transform="scale(0.015625)"/>
      <path id="DejaVuSans-38" d="M 2034 2216 
Q 1584 2216 1326 1975 
Q 1069 1734 1069 1313 
Q 1069 891 1326 650 
Q 1584 409 2034 409 
Q 2484 409 2743 651 
Q 3003 894 3003 1313 
Q 3003 1734 2745 1975 
Q 2488 2216 2034 2216 
z
M 1403 2484 
Q 997 2584 770 2862 
Q 544 3141 544 3541 
Q 544 4100 942 4425 
Q 1341 4750 2034 4750 
Q 2731 4750 3128 4425 
Q 3525 4100 3525 3541 
Q 3525 3141 3298 2862 
Q 3072 2584 2669 2484 
Q 3125 2378 3379 2068 
Q 3634 1759 3634 1313 
Q 3634 634 3220 271 
Q 2806 -91 2034 -91 
Q 1263 -91 848 271 
Q 434 634 434 1313 
Q 434 1759 690 2068 
Q 947 2378 1403 2484 
z
M 1172 3481 
Q 1172 3119 1398 2916 
Q 1625 2713 2034 2713 
Q 2441 2713 2670 2916 
Q 2900 3119 2900 3481 
Q 2900 3844 2670 4047 
Q 2441 4250 2034 4250 
Q 1625 4250 1398 4047 
Q 1172 3844 1172 3481 
z
" transform="scale(0.015625)"/>
      <path id="DejaVuSans-29" d="M 513 4856 
L 1013 4856 
Q 1481 4119 1714 3412 
Q 1947 2706 1947 2009 
Q 1947 1309 1714 600 
Q 1481 -109 1013 -844 
L 513 -844 
Q 928 -128 1133 580 
Q 1338 1288 1338 2009 
Q 1338 2731 1133 3434 
Q 928 4138 513 4856 
z
" transform="scale(0.015625)"/>
     </defs>
     <use xlink:href="#DejaVuSans-42"/>
     <use xlink:href="#DejaVuSans-65" transform="translate(68.603516 0)"/>
     <use xlink:href="#DejaVuSans-73" transform="translate(130.126953 0)"/>
     <use xlink:href="#DejaVuSans-74" transform="translate(182.226562 0)"/>
     <use xlink:href="#DejaVuSans-20" transform="translate(221.435547 0)"/>
     <use xlink:href="#DejaVuSans-73" transform="translate(253.222656 0)"/>
     <use xlink:href="#DejaVuSans-63" transform="translate(305.322266 0)"/>
     <use xlink:href="#DejaVuSans-6f" transform="translate(360.302734 0)"/>
     <use xlink:href="#DejaVuSans-72" transform="translate(421.484375 0)"/>
     <use xlink:href="#DejaVuSans-65" transform="translate(460.347656 0)"/>
     <use xlink:href="#DejaVuSans-20" transform="translate(521.871094 0)"/>
     <use xlink:href="#DejaVuSans-45" transform="translate(553.658203 0)"/>
     <use xlink:href="#DejaVuSans-70" transform="translate(616.841797 0)"/>
     <use xlink:href="#DejaVuSans-69" transform="translate(680.318359 0)"/>
     <use xlink:href="#DejaVuSans-73" transform="translate(708.101562 0)"/>
     <use xlink:href="#DejaVuSans-6f" transform="translate(760.201172 0)"/>
     <use xlink:href="#DejaVuSans-64" transform="translate(821.382812 0)"/>
     <use xlink:href="#DejaVuSans-65" transform="translate(884.859375 0)"/>
     <use xlink:href="#DejaVuSans-20" transform="translate(946.382812 0)"/>
     <use xlink:href="#DejaVuSans-31" transform="translate(978.169922 0)"/>
     <use xlink:href="#DejaVuSans-31" transform="translate(1041.792969 0)"/>
     <use xlink:href="#DejaVuSans-32" transform="translate(1105.416016 0)"/>
     <use xlink:href="#DejaVuSans-3a" transform="translate(1169.039062 0)"/>
     <use xlink:href="#DejaVuSans-20" transform="translate(1202.730469 0)"/>
     <use xlink:href="#DejaVuSans-32" transform="translate(1234.517578 0)"/>
     <use xlink:href="#DejaVuSans-35" transform="translate(1298.140625 0)"/>
     <use xlink:href="#DejaVuSans-30" transform="translate(1361.763672 0)"/>
     <use xlink:href="#DejaVuSans-2e" transform="translate(1425.386719 0)"/>
     <use xlink:href="#DejaVuSans-39" transform="translate(1457.173828 0)"/>
     <use xlink:href="#DejaVuSans-20" transform="translate(1520.796875 0)"/>
     <use xlink:href="#DejaVuSans-28" transform="translate(1552.583984 0)"/>
     <use xlink:href="#DejaVuSans-32" transform="translate(1591.597656 0)"/>
     <use xlink:href="#DejaVuSans-36" transform="translate(1655.220703 0)"/>
     <use xlink:href="#DejaVuSans-39" transform="translate(1718.84375 0)"/>
     <use xlink:href="#DejaVuSans-2e" transform="translate(1782.466797 0)"/>
     <use xlink:href="#DejaVuSans-34" transform="translate(1814.253906 0)"/>
     <use xlink:href="#DejaVuSans-20" transform="translate(1877.876953 0)"/>
     <use xlink:href="#DejaVuSans-b1" transform="translate(1909.664062 0)"/>
     <use xlink:href="#DejaVuSans-20" transform="translate(1993.453125 0)"/>
     <use xlink:href="#DejaVuSans-31" transform="translate(2025.240234 0)"/>
     <use xlink:href="#DejaVuSans-38" transform="translate(2088.863281 0)"/>
     <use xlink:href="#DejaVuSans-2e" transform="translate(2152.486328 0)"/>
     <use xlink:href="#DejaVuSans-35" transform="translate(2184.273438 0)"/>
     <use xlink:href="#DejaVuSans-29" transform="translate(2247.896484 0)"/>
    </g>
    <!-- x:state_interactions -->
    <g transform="translate(396.874375 59.068125) scale(0.12 -0.12)">
     <defs>
      <path id="DejaVuSans-78" d="M 3513 3500 
L 2247 1797 
L 3578 0 
L 2900 0 
L 1881 1375 
L 863 0 
L 184 0 
L 1544 1831 
L 300 3500 
L 978 3500 
L 1906 2253 
L 2834 3500 
L 3513 3500 
z
" transform="scale(0.015625)"/>
      <path id="DejaVuSans-5f" d="M 3263 -1063 
L 3263 -1509 
L -63 -1509 
L -63 -1063 
L 3263 -1063 
z
" transform="scale(0.015625)"/>
      <path id="DejaVuSans-6e" d="M 3513 2113 
L 3513 0 
L 2938 0 
L 2938 2094 
Q 2938 2591 2744 2837 
Q 2550 3084 2163 3084 
Q 1697 3084 1428 2787 
Q 1159 2491 1159 1978 
L 1159 0 
L 581 0 
L 581 3500 
L 1159 3500 
L 1159 2956 
Q 1366 3272 1645 3428 
Q 1925 3584 2291 3584 
Q 2894 3584 3203 3211 
Q 3513 2838 3513 2113 
z
" transform="scale(0.015625)"/>
     </defs>
     <use xlink:href="#DejaVuSans-78"/>
     <use xlink:href="#DejaVuSans-3a" transform="translate(59.179688 0)"/>
     <use xlink:href="#DejaVuSans-73" transform="translate(92.871094 0)"/>
     <use xlink:href="#DejaVuSans-74" transform="translate(144.970703 0)"/>
     <use xlink:href="#DejaVuSans-61" transform="translate(184.179688 0)"/>
     <use xlink:href="#DejaVuSans-74" transform="translate(245.458984 0)"/>
     <use xlink:href="#DejaVuSans-65" transform="translate(284.667969 0)"/>
     <use xlink:href="#DejaVuSans-5f" transform="translate(346.191406 0)"/>
     <use xlink:href="#DejaVuSans-69" transform="translate(396.191406 0)"/>
     <use xlink:href="#DejaVuSans-6e" transform="translate(423.974609 0)"/>
     <use xlink:href="#DejaVuSans-74" transform="translate(487.353516 0)"/>
     <use xlink:href="#DejaVuSans-65" transform="translate(526.5625 0)"/>
     <use xlink:href="#DejaVuSans-72" transform="translate(588.085938 0)"/>
     <use xlink:href="#DejaVuSans-61" transform="translate(629.199219 0)"/>
     <use xlink:href="#DejaVuSans-63" transform="translate(690.478516 0)"/>
     <use xlink:href="#DejaVuSans-74" transform="translate(745.458984 0)"/>
     <use xlink:href="#DejaVuSans-69" transform="translate(784.667969 0)"/>
     <use xlink:href="#DejaVuSans-6f" transform="translate(812.451172 0)"/>
     <use xlink:href="#DejaVuSans-6e" transform="translate(873.632812 0)"/>
     <use xlink:href="#DejaVuSans-73" transform="translate(937.011719 0)"/>
    </g>
    <!-- $\gamma$=9.900e-01, $\lambda$=0.000e+00, $\Delta$=1.000e-06 -->
    <g transform="translate(327.4 72.8415) scale(0.12 -0.12)">
     <defs>
      <path id="DejaVuSans-Oblique-3b3" d="M 1491 2950 
L 1838 788 
L 3456 3500 
L 4066 3500 
L 1972 0 
L 1713 -1331 
L 1138 -1331 
L 1397 0 
L 988 2613 
Q 925 3006 628 3006 
L 475 3006 
L 569 3500 
L 788 3500 
Q 1403 3500 1491 2950 
z
" transform="scale(0.015625)"/>
      <path id="DejaVuSans-3d" d="M 678 2906 
L 4684 2906 
L 4684 2381 
L 678 2381 
L 678 2906 
z
M 678 1631 
L 4684 1631 
L 4684 1100 
L 678 1100 
L 678 1631 
z
" transform="scale(0.015625)"/>
      <path id="DejaVuSans-2d" d="M 313 2009 
L 1997 2009 
L 1997 1497 
L 313 1497 
L 313 2009 
z
" transform="scale(0.015625)"/>
      <path id="DejaVuSans-2c" d="M 750 794 
L 1409 794 
L 1409 256 
L 897 -744 
L 494 -744 
L 750 256 
L 750 794 
z
" transform="scale(0.015625)"/>
      <path id="DejaVuSans-Oblique-3bb" d="M 2350 4316 
L 3125 0 
L 2516 0 
L 2038 2588 
L 328 0 
L -281 0 
L 1903 3356 
L 1794 3975 
Q 1725 4369 1391 4369 
L 1091 4369 
L 1184 4863 
L 1550 4856 
Q 2253 4847 2350 4316 
z
" transform="scale(0.015625)"/>
      <path id="DejaVuSans-2b" d="M 2944 4013 
L 2944 2272 
L 4684 2272 
L 4684 1741 
L 2944 1741 
L 2944 0 
L 2419 0 
L 2419 1741 
L 678 1741 
L 678 2272 
L 2419 2272 
L 2419 4013 
L 2944 4013 
z
" transform="scale(0.015625)"/>
      <path id="DejaVuSans-394" d="M 2188 4044 
L 906 525 
L 3472 525 
L 2188 4044 
z
M 50 0 
L 1831 4666 
L 2547 4666 
L 4325 0 
L 50 0 
z
" transform="scale(0.015625)"/>
     </defs>
     <use xlink:href="#DejaVuSans-Oblique-3b3" transform="translate(0 0.015625)"/>
     <use xlink:href="#DejaVuSans-3d" transform="translate(59.179688 0.015625)"/>
     <use xlink:href="#DejaVuSans-39" transform="translate(142.96875 0.015625)"/>
     <use xlink:href="#DejaVuSans-2e" transform="translate(206.591797 0.015625)"/>
     <use xlink:href="#DejaVuSans-39" transform="translate(238.378906 0.015625)"/>
     <use xlink:href="#DejaVuSans-30" transform="translate(302.001953 0.015625)"/>
     <use xlink:href="#DejaVuSans-30" transform="translate(365.625 0.015625)"/>
     <use xlink:href="#DejaVuSans-65" transform="translate(429.248047 0.015625)"/>
     <use xlink:href="#DejaVuSans-2d" transform="translate(490.771484 0.015625)"/>
     <use xlink:href="#DejaVuSans-30" transform="translate(526.855469 0.015625)"/>
     <use xlink:href="#DejaVuSans-31" transform="translate(590.478516 0.015625)"/>
     <use xlink:href="#DejaVuSans-2c" transform="translate(654.101562 0.015625)"/>
     <use xlink:href="#DejaVuSans-20" transform="translate(685.888672 0.015625)"/>
     <use xlink:href="#DejaVuSans-Oblique-3bb" transform="translate(717.675781 0.015625)"/>
     <use xlink:href="#DejaVuSans-3d" transform="translate(776.855469 0.015625)"/>
     <use xlink:href="#DejaVuSans-30" transform="translate(860.644531 0.015625)"/>
     <use xlink:href="#DejaVuSans-2e" transform="translate(924.267578 0.015625)"/>
     <use xlink:href="#DejaVuSans-30" transform="translate(956.054688 0.015625)"/>
     <use xlink:href="#DejaVuSans-30" transform="translate(1019.677734 0.015625)"/>
     <use xlink:href="#DejaVuSans-30" transform="translate(1083.300781 0.015625)"/>
     <use xlink:href="#DejaVuSans-65" transform="translate(1146.923828 0.015625)"/>
     <use xlink:href="#DejaVuSans-2b" transform="translate(1208.447266 0.015625)"/>
     <use xlink:href="#DejaVuSans-30" transform="translate(1292.236328 0.015625)"/>
     <use xlink:href="#DejaVuSans-30" transform="translate(1355.859375 0.015625)"/>
     <use xlink:href="#DejaVuSans-2c" transform="translate(1419.482422 0.015625)"/>
     <use xlink:href="#DejaVuSans-20" transform="translate(1451.269531 0.015625)"/>
     <use xlink:href="#DejaVuSans-394" transform="translate(1483.056641 0.015625)"/>
     <use xlink:href="#DejaVuSans-3d" transform="translate(1551.464844 0.015625)"/>
     <use xlink:href="#DejaVuSans-31" transform="translate(1635.253906 0.015625)"/>
     <use xlink:href="#DejaVuSans-2e" transform="translate(1698.876953 0.015625)"/>
     <use xlink:href="#DejaVuSans-30" transform="translate(1730.664062 0.015625)"/>
     <use xlink:href="#DejaVuSans-30" transform="translate(1794.287109 0.015625)"/>
     <use xlink:href="#DejaVuSans-30" transform="translate(1857.910156 0.015625)"/>
     <use xlink:href="#DejaVuSans-65" transform="translate(1921.533203 0.015625)"/>
     <use xlink:href="#DejaVuSans-2d" transform="translate(1983.056641 0.015625)"/>
     <use xlink:href="#DejaVuSans-30" transform="translate(2019.140625 0.015625)"/>
     <use xlink:href="#DejaVuSans-36" transform="translate(2082.763672 0.015625)"/>
    </g>
    <!-- lr=(0.100,0.100,0.000), er=(0.000,0.000,0.000) -->
    <g transform="translate(312.00625 86.30325) scale(0.12 -0.12)">
     <defs>
      <path id="DejaVuSans-6c" d="M 603 4863 
L 1178 4863 
L 1178 0 
L 603 0 
L 603 4863 
z
" transform="scale(0.015625)"/>
     </defs>
     <use xlink:href="#DejaVuSans-6c"/>
     <use xlink:href="#DejaVuSans-72" transform="translate(27.783203 0)"/>
     <use xlink:href="#DejaVuSans-3d" transform="translate(68.896484 0)"/>
     <use xlink:href="#DejaVuSans-28" transform="translate(152.685547 0)"/>
     <use xlink:href="#DejaVuSans-30" transform="translate(191.699219 0)"/>
     <use xlink:href="#DejaVuSans-2e" transform="translate(255.322266 0)"/>
     <use xlink:href="#DejaVuSans-31" transform="translate(287.109375 0)"/>
     <use xlink:href="#DejaVuSans-30" transform="translate(350.732422 0)"/>
     <use xlink:href="#DejaVuSans-30" transform="translate(414.355469 0)"/>
     <use xlink:href="#DejaVuSans-2c" transform="translate(477.978516 0)"/>
     <use xlink:href="#DejaVuSans-30" transform="translate(509.765625 0)"/>
     <use xlink:href="#DejaVuSans-2e" transform="translate(573.388672 0)"/>
     <use xlink:href="#DejaVuSans-31" transform="translate(605.175781 0)"/>
     <use xlink:href="#DejaVuSans-30" transform="translate(668.798828 0)"/>
     <use xlink:href="#DejaVuSans-30" transform="translate(732.421875 0)"/>
     <use xlink:href="#DejaVuSans-2c" transform="translate(796.044922 0)"/>
     <use xlink:href="#DejaVuSans-30" transform="translate(827.832031 0)"/>
     <use xlink:href="#DejaVuSans-2e" transform="translate(891.455078 0)"/>
     <use xlink:href="#DejaVuSans-30" transform="translate(923.242188 0)"/>
     <use xlink:href="#DejaVuSans-30" transform="translate(986.865234 0)"/>
     <use xlink:href="#DejaVuSans-30" transform="translate(1050.488281 0)"/>
     <use xlink:href="#DejaVuSans-29" transform="translate(1114.111328 0)"/>
     <use xlink:href="#DejaVuSans-2c" transform="translate(1153.125 0)"/>
     <use xlink:href="#DejaVuSans-20" transform="translate(1184.912109 0)"/>
     <use xlink:href="#DejaVuSans-65" transform="translate(1216.699219 0)"/>
     <use xlink:href="#DejaVuSans-72" transform="translate(1278.222656 0)"/>
     <use xlink:href="#DejaVuSans-3d" transform="translate(1319.335938 0)"/>
     <use xlink:href="#DejaVuSans-28" transform="translate(1403.125 0)"/>
     <use xlink:href="#DejaVuSans-30" transform="translate(1442.138672 0)"/>
     <use xlink:href="#DejaVuSans-2e" transform="translate(1505.761719 0)"/>
     <use xlink:href="#DejaVuSans-30" transform="translate(1537.548828 0)"/>
     <use xlink:href="#DejaVuSans-30" transform="translate(1601.171875 0)"/>
     <use xlink:href="#DejaVuSans-30" transform="translate(1664.794922 0)"/>
     <use xlink:href="#DejaVuSans-2c" transform="translate(1728.417969 0)"/>
     <use xlink:href="#DejaVuSans-30" transform="translate(1760.205078 0)"/>
     <use xlink:href="#DejaVuSans-2e" transform="translate(1823.828125 0)"/>
     <use xlink:href="#DejaVuSans-30" transform="translate(1855.615234 0)"/>
     <use xlink:href="#DejaVuSans-30" transform="translate(1919.238281 0)"/>
     <use xlink:href="#DejaVuSans-30" transform="translate(1982.861328 0)"/>
     <use xlink:href="#DejaVuSans-2c" transform="translate(2046.484375 0)"/>
     <use xlink:href="#DejaVuSans-30" transform="translate(2078.271484 0)"/>
     <use xlink:href="#DejaVuSans-2e" transform="translate(2141.894531 0)"/>
     <use xlink:href="#DejaVuSans-30" transform="translate(2173.681641 0)"/>
     <use xlink:href="#DejaVuSans-30" transform="translate(2237.304688 0)"/>
     <use xlink:href="#DejaVuSans-30" transform="translate(2300.927734 0)"/>
     <use xlink:href="#DejaVuSans-29" transform="translate(2364.550781 0)"/>
    </g>
   </g>
   <g id="legend_1">
    <g id="patch_7">
     <path d="M 769.26875 382.38 
L 843.34 382.38 
Q 845.54 382.38 845.54 380.18 
L 845.54 348.965781 
Q 845.54 346.765781 843.34 346.765781 
L 769.26875 346.765781 
Q 767.06875 346.765781 767.06875 348.965781 
L 767.06875 380.18 
Q 767.06875 382.38 769.26875 382.38 
z
" style="fill: #ffffff; opacity: 0.8; stroke: #cccccc; stroke-linejoin: miter"/>
    </g>
    <g id="line2d_28">
     <path d="M 771.46875 355.674062 
L 782.46875 355.674062 
L 793.46875 355.674062 
" style="fill: none; stroke: #1f77b4; stroke-width: 1.5; stroke-linecap: round"/>
    </g>
    <g id="text_17">
     <!-- $\mu$ -->
     <g style="fill: #262626" transform="translate(802.26875 359.524063) scale(0.11 -0.11)">
      <defs>
       <path id="DejaVuSans-Oblique-3bc" d="M -84 -1331 
L 856 3500 
L 1434 3500 
L 1009 1322 
Q 997 1256 987 1175 
Q 978 1094 978 1013 
Q 978 722 1161 565 
Q 1344 409 1684 409 
Q 2147 409 2431 671 
Q 2716 934 2816 1459 
L 3213 3500 
L 3788 3500 
L 3266 809 
Q 3253 750 3248 706 
Q 3244 663 3244 628 
Q 3244 531 3283 486 
Q 3322 441 3406 441 
Q 3438 441 3492 456 
Q 3547 472 3647 513 
L 3559 50 
Q 3422 -19 3297 -55 
Q 3172 -91 3053 -91 
Q 2847 -91 2730 40 
Q 2613 172 2613 403 
Q 2438 153 2195 31 
Q 1953 -91 1625 -91 
Q 1334 -91 1117 43 
Q 900 178 831 397 
L 494 -1331 
L -84 -1331 
z
" transform="scale(0.015625)"/>
      </defs>
      <use xlink:href="#DejaVuSans-Oblique-3bc" transform="translate(0 0.3125)"/>
     </g>
    </g>
    <g id="patch_8">
     <path d="M 771.46875 375.692344 
L 793.46875 375.692344 
L 793.46875 367.992344 
L 771.46875 367.992344 
z
" style="fill: #1f77b4; fill-opacity: 0.3; stroke: #ffffff; stroke-opacity: 0.3; stroke-linejoin: miter"/>
    </g>
    <g id="text_18">
     <!-- 95% CI -->
     <g style="fill: #262626" transform="translate(802.26875 375.692344) scale(0.11 -0.11)">
      <defs>
       <path id="DejaVuSans-25" d="M 4653 2053 
Q 4381 2053 4226 1822 
Q 4072 1591 4072 1178 
Q 4072 772 4226 539 
Q 4381 306 4653 306 
Q 4919 306 5073 539 
Q 5228 772 5228 1178 
Q 5228 1588 5073 1820 
Q 4919 2053 4653 2053 
z
M 4653 2450 
Q 5147 2450 5437 2106 
Q 5728 1763 5728 1178 
Q 5728 594 5436 251 
Q 5144 -91 4653 -91 
Q 4153 -91 3862 251 
Q 3572 594 3572 1178 
Q 3572 1766 3864 2108 
Q 4156 2450 4653 2450 
z
M 1428 4353 
Q 1159 4353 1004 4120 
Q 850 3888 850 3481 
Q 850 3069 1003 2837 
Q 1156 2606 1428 2606 
Q 1700 2606 1854 2837 
Q 2009 3069 2009 3481 
Q 2009 3884 1853 4118 
Q 1697 4353 1428 4353 
z
M 4250 4750 
L 4750 4750 
L 1831 -91 
L 1331 -91 
L 4250 4750 
z
M 1428 4750 
Q 1922 4750 2215 4408 
Q 2509 4066 2509 3481 
Q 2509 2891 2217 2550 
Q 1925 2209 1428 2209 
Q 931 2209 642 2551 
Q 353 2894 353 3481 
Q 353 4063 643 4406 
Q 934 4750 1428 4750 
z
" transform="scale(0.015625)"/>
       <path id="DejaVuSans-43" d="M 4122 4306 
L 4122 3641 
Q 3803 3938 3442 4084 
Q 3081 4231 2675 4231 
Q 1875 4231 1450 3742 
Q 1025 3253 1025 2328 
Q 1025 1406 1450 917 
Q 1875 428 2675 428 
Q 3081 428 3442 575 
Q 3803 722 4122 1019 
L 4122 359 
Q 3791 134 3420 21 
Q 3050 -91 2638 -91 
Q 1578 -91 968 557 
Q 359 1206 359 2328 
Q 359 3453 968 4101 
Q 1578 4750 2638 4750 
Q 3056 4750 3426 4639 
Q 3797 4528 4122 4306 
z
" transform="scale(0.015625)"/>
       <path id="DejaVuSans-49" d="M 628 4666 
L 1259 4666 
L 1259 0 
L 628 0 
L 628 4666 
z
" transform="scale(0.015625)"/>
      </defs>
      <use xlink:href="#DejaVuSans-39"/>
      <use xlink:href="#DejaVuSans-35" transform="translate(63.623047 0)"/>
      <use xlink:href="#DejaVuSans-25" transform="translate(127.246094 0)"/>
      <use xlink:href="#DejaVuSans-20" transform="translate(222.265625 0)"/>
      <use xlink:href="#DejaVuSans-43" transform="translate(254.052734 0)"/>
      <use xlink:href="#DejaVuSans-49" transform="translate(323.876953 0)"/>
     </g>
    </g>
   </g>
  </g>
 </g>
 <defs>
  <clipPath id="pe0ffc35f76">
   <rect x="61.4" y="92.30325" width="789.64" height="295.57675"/>
  </clipPath>
 </defs>
</svg>
