<?xml version="1.0" encoding="utf-8" standalone="no"?>
<!DOCTYPE svg PUBLIC "-//W3C//DTD SVG 1.1//EN"
  "http://www.w3.org/Graphics/SVG/1.1/DTD/svg11.dtd">
<svg xmlns:xlink="http://www.w3.org/1999/xlink" width="864pt" height="432pt" viewBox="0 0 864 432" xmlns="http://www.w3.org/2000/svg" version="1.1">
 <metadata>
  <rdf:RDF xmlns:dc="http://purl.org/dc/elements/1.1/" xmlns:cc="http://creativecommons.org/ns#" xmlns:rdf="http://www.w3.org/1999/02/22-rdf-syntax-ns#">
   <cc:Work>
    <dc:type rdf:resource="http://purl.org/dc/dcmitype/StillImage"/>
    <dc:date>2025-12-11T01:22:56.383864</dc:date>
    <dc:format>image/svg+xml</dc:format>
    <dc:creator>
     <cc:Agent>
      <dc:title>Matplotlib v3.10.6, https://matplotlib.org/</dc:title>
     </cc:Agent>
    </dc:creator>
   </cc:Work>
  </rdf:RDF>
 </metadata>
 <defs>
  <style type="text/css">*{stroke-linejoin: round; stroke-linecap: butt}</style>
 </defs>
 <g id="figure_1">
  <g id="patch_1">
   <path d="M 0 432 
L 864 432 
L 864 0 
L 0 0 
z
" style="fill: #ffffff"/>
  </g>
  <g id="axes_1">
   <g id="patch_2">
    <path d="M 61.4 387.88 
L 851.04 387.88 
L 851.04 92.30325 
L 61.4 92.30325 
z
" style="fill: #ffffff"/>
   </g>
   <g id="FillBetweenPolyCollection_1"/>
   <g id="FillBetweenPolyCollection_2">
    <defs>
     <path id="m11a0d5636c" d="M 97.292727 -90.100164 
L 97.292727 -30.889452 
L 100.900037 -85.079143 
L 104.507346 -192.733009 
L 108.114655 -22.686911 
L 111.721964 -181.534731 
L 115.329274 -141.043804 
L 118.936583 -52.682284 
L 122.543892 -139.211883 
L 126.151201 -155.154884 
L 129.758511 -165.114427 
L 133.36582 -112.92309 
L 136.973129 -112.324873 
L 140.580439 -96.296405 
L 144.187748 -110.300606 
L 147.795057 -177.210062 
L 151.402366 -163.818833 
L 155.009676 -107.930745 
L 158.616985 -164.957155 
L 162.224294 -98.46663 
L 165.831603 -61.692509 
L 169.438913 -115.694373 
L 173.046222 -114.336208 
L 176.653531 -43.400483 
L 180.260841 -110.375409 
L 183.86815 -140.323103 
L 187.475459 -128.818603 
L 191.082768 -132.172837 
L 194.690078 -121.310734 
L 198.297387 -162.154028 
L 201.904696 -160.712581 
L 205.512005 -105.297957 
L 209.119315 -158.358363 
L 212.726624 -146.645122 
L 216.333933 -132.566585 
L 219.941243 -151.97526 
L 223.548552 -56.797256 
L 227.155861 -197.244529 
L 230.76317 -179.084972 
L 234.37048 -159.233428 
L 237.977789 -164.212876 
L 241.585098 -189.453945 
L 245.192407 -187.486923 
L 248.799717 -215.907085 
L 252.407026 -181.653149 
L 256.014335 -260.357314 
L 259.621645 -263.484893 
L 263.228954 -209.845773 
L 266.836263 -208.178852 
L 270.443572 -229.962202 
L 274.050882 -270.735261 
L 277.658191 -247.139304 
L 281.2655 -199.264341 
L 284.87281 -246.28535 
L 288.480119 -256.776833 
L 292.087428 -263.600405 
L 295.694737 -230.288064 
L 299.302047 -229.947211 
L 302.909356 -228.152983 
L 306.516665 -268.010718 
L 310.123974 -278.642512 
L 313.731284 -238.489043 
L 317.338593 -248.68436 
L 320.945902 -269.324354 
L 324.553212 -264.426843 
L 328.160521 -261.684564 
L 331.76783 -271.117474 
L 335.375139 -270.606871 
L 338.982449 -282.427982 
L 342.589758 -263.069178 
L 346.197067 -244.439242 
L 349.804376 -268.68284 
L 353.411686 -260.796751 
L 357.018995 -284.430632 
L 360.626304 -264.754291 
L 364.233614 -267.035371 
L 367.840923 -272.053232 
L 371.448232 -281.896963 
L 375.055541 -253.934073 
L 378.662851 -287.067882 
L 382.27016 -250.152482 
L 385.877469 -272.96052 
L 389.484778 -269.398292 
L 393.092088 -272.521025 
L 396.699397 -264.52311 
L 400.306706 -248.41201 
L 403.914016 -249.002227 
L 407.521325 -263.020733 
L 411.128634 -288.845757 
L 414.735943 -237.700029 
L 418.343253 -284.765614 
L 421.950562 -274.909566 
L 425.557871 -279.160271 
L 429.16518 -278.919815 
L 432.77249 -286.0419 
L 436.379799 -312.88246 
L 439.987108 -292.959202 
L 443.594418 -243.008595 
L 447.201727 -288.28819 
L 450.809036 -252.578876 
L 454.416345 -258.905128 
L 458.023655 -284.992134 
L 461.630964 -289.591493 
L 465.238273 -270.305806 
L 468.845582 -246.927285 
L 472.452892 -273.979467 
L 476.060201 -259.959447 
L 479.66751 -245.072841 
L 483.27482 -229.3862 
L 486.882129 -261.369233 
L 490.489438 -292.852711 
L 494.096747 -245.851984 
L 497.704057 -279.634802 
L 501.311366 -267.990547 
L 504.918675 -261.878449 
L 508.525984 -266.294332 
L 512.133294 -265.575775 
L 515.740603 -234.683331 
L 519.347912 -236.271374 
L 522.955222 -219.594099 
L 526.562531 -250.066051 
L 530.16984 -247.451164 
L 533.777149 -256.813374 
L 537.384459 -259.629176 
L 540.991768 -232.019274 
L 544.599077 -252.427385 
L 548.206386 -253.878671 
L 551.813696 -266.713984 
L 555.421005 -243.108009 
L 559.028314 -237.753136 
L 562.635624 -230.482383 
L 566.242933 -260.757165 
L 569.850242 -237.322249 
L 573.457551 -250.893259 
L 577.064861 -270.983275 
L 580.67217 -265.522065 
L 584.279479 -239.742861 
L 587.886788 -240.513687 
L 591.494098 -242.581784 
L 595.101407 -229.599459 
L 598.708716 -255.293764 
L 602.316026 -246.920504 
L 605.923335 -250.605463 
L 609.530644 -254.267573 
L 613.137953 -248.481982 
L 616.745263 -250.632226 
L 620.352572 -267.138696 
L 623.959881 -265.155293 
L 627.56719 -239.903685 
L 631.1745 -253.699208 
L 634.781809 -222.038976 
L 638.389118 -274.214639 
L 641.996428 -274.589807 
L 645.603737 -256.564719 
L 649.211046 -274.301456 
L 652.818355 -233.216049 
L 656.425665 -241.442518 
L 660.032974 -246.933788 
L 663.640283 -236.702686 
L 667.247593 -218.768754 
L 670.854902 -218.920782 
L 674.462211 -254.815995 
L 678.06952 -246.584265 
L 681.67683 -229.303541 
L 685.284139 -239.503161 
L 688.891448 -268.323735 
L 692.498757 -263.226415 
L 696.106067 -243.951891 
L 699.713376 -250.721361 
L 703.320685 -234.035415 
L 706.927995 -263.038032 
L 710.535304 -221.692115 
L 714.142613 -248.847044 
L 717.749922 -288.412827 
L 721.357232 -218.492909 
L 724.964541 -288.026155 
L 728.57185 -250.689754 
L 732.179159 -240.980845 
L 735.786469 -256.766447 
L 739.393778 -239.520377 
L 743.001087 -229.404339 
L 746.608397 -266.445856 
L 750.215706 -255.997552 
L 753.823015 -235.278759 
L 757.430324 -224.331642 
L 761.037634 -258.657046 
L 764.644943 -224.636707 
L 768.252252 -261.406326 
L 771.859561 -253.74454 
L 775.466871 -253.802998 
L 779.07418 -231.908683 
L 782.681489 -265.371312 
L 786.288799 -227.792361 
L 789.896108 -260.465691 
L 793.503417 -221.964027 
L 797.110726 -245.808726 
L 800.718036 -247.978666 
L 804.325345 -241.965247 
L 807.932654 -217.752273 
L 811.539963 -228.416056 
L 815.147273 -220.100402 
L 815.147273 -256.71414 
L 815.147273 -256.71414 
L 811.539963 -299.975133 
L 807.932654 -309.407513 
L 804.325345 -310.609817 
L 800.718036 -304.599397 
L 797.110726 -312.710576 
L 793.503417 -287.250967 
L 789.896108 -328.089832 
L 786.288799 -294.27591 
L 782.681489 -326.483163 
L 779.07418 -290.534127 
L 775.466871 -314.92607 
L 771.859561 -326.126469 
L 768.252252 -323.107954 
L 764.644943 -283.426029 
L 761.037634 -323.04024 
L 757.430324 -292.575915 
L 753.823015 -294.278329 
L 750.215706 -317.707059 
L 746.608397 -323.271654 
L 743.001087 -300.399348 
L 739.393778 -315.601299 
L 735.786469 -320.974966 
L 732.179159 -306.414016 
L 728.57185 -312.869344 
L 724.964541 -326.992103 
L 721.357232 -285.157915 
L 717.749922 -326.274017 
L 714.142613 -318.763228 
L 710.535304 -272.511152 
L 706.927995 -309.531246 
L 703.320685 -297.305549 
L 699.713376 -306.818181 
L 696.106067 -314.526669 
L 692.498757 -330.801342 
L 688.891448 -323.11566 
L 685.284139 -307.077187 
L 681.67683 -295.431641 
L 678.06952 -313.848709 
L 674.462211 -312.617236 
L 670.854902 -253.836032 
L 667.247593 -287.086155 
L 663.640283 -304.19322 
L 660.032974 -305.321033 
L 656.425665 -307.200955 
L 652.818355 -304.40856 
L 649.211046 -331.964746 
L 645.603737 -313.076223 
L 641.996428 -323.349324 
L 638.389118 -327.632782 
L 634.781809 -280.69112 
L 631.1745 -313.520988 
L 627.56719 -297.320783 
L 623.959881 -320.568533 
L 620.352572 -324.683539 
L 616.745263 -309.988609 
L 613.137953 -319.711277 
L 609.530644 -306.359403 
L 605.923335 -313.176423 
L 602.316026 -308.96415 
L 598.708716 -323.022734 
L 595.101407 -307.008711 
L 591.494098 -301.566822 
L 587.886788 -312.048124 
L 584.279479 -310.097355 
L 580.67217 -322.265038 
L 577.064861 -331.606071 
L 573.457551 -331.166146 
L 569.850242 -286.536931 
L 566.242933 -321.697699 
L 562.635624 -293.854134 
L 559.028314 -303.203194 
L 555.421005 -306.683092 
L 551.813696 -321.554053 
L 548.206386 -314.122101 
L 544.599077 -314.759064 
L 540.991768 -309.062216 
L 537.384459 -315.786605 
L 533.777149 -315.450145 
L 530.16984 -317.189226 
L 526.562531 -316.049433 
L 522.955222 -306.225281 
L 519.347912 -308.381009 
L 515.740603 -294.581031 
L 512.133294 -326.032444 
L 508.525984 -320.256794 
L 504.918675 -324.290629 
L 501.311366 -325.303458 
L 497.704057 -324.362463 
L 494.096747 -303.030963 
L 490.489438 -337.826548 
L 486.882129 -319.009423 
L 483.27482 -294.125795 
L 479.66751 -313.273132 
L 476.060201 -320.180499 
L 472.452892 -334.300246 
L 468.845582 -312.688998 
L 465.238273 -325.52738 
L 461.630964 -331.523512 
L 458.023655 -332.205279 
L 454.416345 -320.800127 
L 450.809036 -317.72895 
L 447.201727 -323.950805 
L 443.594418 -315.541323 
L 439.987108 -335.109784 
L 436.379799 -326.253886 
L 432.77249 -329.921937 
L 429.16518 -326.879817 
L 425.557871 -326.294111 
L 421.950562 -329.408918 
L 418.343253 -326.175221 
L 414.735943 -306.906319 
L 411.128634 -327.140363 
L 407.521325 -322.780124 
L 403.914016 -318.411138 
L 400.306706 -313.651245 
L 396.699397 -321.043279 
L 393.092088 -328.041027 
L 389.484778 -315.507747 
L 385.877469 -319.430381 
L 382.27016 -318.654552 
L 378.662851 -327.54868 
L 375.055541 -314.741531 
L 371.448232 -333.190903 
L 367.840923 -316.133761 
L 364.233614 -320.25216 
L 360.626304 -329.50098 
L 357.018995 -323.240206 
L 353.411686 -321.086522 
L 349.804376 -322.256396 
L 346.197067 -316.117299 
L 342.589758 -324.053285 
L 338.982449 -331.371785 
L 335.375139 -324.629274 
L 331.76783 -330.529604 
L 328.160521 -322.274588 
L 324.553212 -321.356231 
L 320.945902 -313.136569 
L 317.338593 -307.543395 
L 313.731284 -301.300495 
L 310.123974 -319.543384 
L 306.516665 -316.323964 
L 302.909356 -298.96547 
L 299.302047 -299.393934 
L 295.694737 -304.495729 
L 292.087428 -323.589866 
L 288.480119 -318.572796 
L 284.87281 -309.641231 
L 281.2655 -274.341311 
L 277.658191 -319.515268 
L 274.050882 -317.00017 
L 270.443572 -306.639657 
L 266.836263 -277.459084 
L 263.228954 -285.705383 
L 259.621645 -310.260236 
L 256.014335 -308.410803 
L 252.407026 -257.59861 
L 248.799717 -284.068869 
L 245.192407 -275.161325 
L 241.585098 -285.723878 
L 237.977789 -171.887211 
L 234.37048 -190.212581 
L 230.76317 -214.46234 
L 227.155861 -285.274623 
L 223.548552 -130.452277 
L 219.941243 -194.501659 
L 216.333933 -212.156138 
L 212.726624 -185.21899 
L 209.119315 -195.456259 
L 205.512005 -162.517663 
L 201.904696 -190.675821 
L 198.297387 -176.9501 
L 194.690078 -161.900312 
L 191.082768 -164.50669 
L 187.475459 -170.958209 
L 183.86815 -166.748248 
L 180.260841 -151.963445 
L 176.653531 -117.905309 
L 173.046222 -160.849465 
L 169.438913 -154.278683 
L 165.831603 -107.036937 
L 162.224294 -141.768355 
L 158.616985 -171.884211 
L 155.009676 -172.895133 
L 151.402366 -211.93849 
L 147.795057 -228.347616 
L 144.187748 -143.835689 
L 140.580439 -156.789227 
L 136.973129 -146.112379 
L 133.36582 -187.128501 
L 129.758511 -200.239394 
L 126.151201 -208.463493 
L 122.543892 -177.154218 
L 118.936583 -83.712027 
L 115.329274 -216.440749 
L 111.721964 -225.477115 
L 108.114655 -52.883256 
L 104.507346 -202.816374 
L 100.900037 -117.770315 
L 97.292727 -90.100164 
z
" style="stroke: #ffffff; stroke-opacity: 0.3"/>
    </defs>
    <g clip-path="url(#p2df5fd69ca)">
     <use xlink:href="#m11a0d5636c" x="0" y="432" style="fill: #1f77b4; fill-opacity: 0.3; stroke: #ffffff; stroke-opacity: 0.3"/>
    </g>
   </g>
   <g id="matplotlib.axis_1">
    <g id="xtick_1">
     <g id="line2d_1">
      <path d="M 97.292727 387.88 
L 97.292727 92.30325 
" clip-path="url(#p2df5fd69ca)" style="fill: none; stroke: #b0b0b0; stroke-width: 0.8; stroke-linecap: square"/>
     </g>
     <g id="line2d_2">
      <defs>
       <path id="mfe2c45f8f4" d="M 0 0 
L 0 3.5 
" style="stroke: #000000; stroke-width: 0.8"/>
      </defs>
      <g>
       <use xlink:href="#mfe2c45f8f4" x="97.292727" y="387.88" style="stroke: #000000; stroke-width: 0.8"/>
      </g>
     </g>
     <g id="text_1">
      <!-- 0 -->
      <g transform="translate(94.111477 402.478437) scale(0.1 -0.1)">
       <defs>
        <path id="DejaVuSans-30" d="M 2034 4250 
Q 1547 4250 1301 3770 
Q 1056 3291 1056 2328 
Q 1056 1369 1301 889 
Q 1547 409 2034 409 
Q 2525 409 2770 889 
Q 3016 1369 3016 2328 
Q 3016 3291 2770 3770 
Q 2525 4250 2034 4250 
z
M 2034 4750 
Q 2819 4750 3233 4129 
Q 3647 3509 3647 2328 
Q 3647 1150 3233 529 
Q 2819 -91 2034 -91 
Q 1250 -91 836 529 
Q 422 1150 422 2328 
Q 422 3509 836 4129 
Q 1250 4750 2034 4750 
z
" transform="scale(0.015625)"/>
       </defs>
       <use xlink:href="#DejaVuSans-30"/>
      </g>
     </g>
    </g>
    <g id="xtick_2">
     <g id="line2d_3">
      <path d="M 458.023655 387.88 
L 458.023655 92.30325 
" clip-path="url(#p2df5fd69ca)" style="fill: none; stroke: #b0b0b0; stroke-width: 0.8; stroke-linecap: square"/>
     </g>
     <g id="line2d_4">
      <g>
       <use xlink:href="#mfe2c45f8f4" x="458.023655" y="387.88" style="stroke: #000000; stroke-width: 0.8"/>
      </g>
     </g>
     <g id="text_2">
      <!-- 100 -->
      <g transform="translate(448.479905 402.478437) scale(0.1 -0.1)">
       <defs>
        <path id="DejaVuSans-31" d="M 794 531 
L 1825 531 
L 1825 4091 
L 703 3866 
L 703 4441 
L 1819 4666 
L 2450 4666 
L 2450 531 
L 3481 531 
L 3481 0 
L 794 0 
L 794 531 
z
" transform="scale(0.015625)"/>
       </defs>
       <use xlink:href="#DejaVuSans-31"/>
       <use xlink:href="#DejaVuSans-30" transform="translate(63.623047 0)"/>
       <use xlink:href="#DejaVuSans-30" transform="translate(127.246094 0)"/>
      </g>
     </g>
    </g>
    <g id="xtick_3">
     <g id="line2d_5">
      <path d="M 818.754582 387.88 
L 818.754582 92.30325 
" clip-path="url(#p2df5fd69ca)" style="fill: none; stroke: #b0b0b0; stroke-width: 0.8; stroke-linecap: square"/>
     </g>
     <g id="line2d_6">
      <g>
       <use xlink:href="#mfe2c45f8f4" x="818.754582" y="387.88" style="stroke: #000000; stroke-width: 0.8"/>
      </g>
     </g>
     <g id="text_3">
      <!-- 200 -->
      <g transform="translate(809.210832 402.478437) scale(0.1 -0.1)">
       <defs>
        <path id="DejaVuSans-32" d="M 1228 531 
L 3431 531 
L 3431 0 
L 469 0 
L 469 531 
Q 828 903 1448 1529 
Q 2069 2156 2228 2338 
Q 2531 2678 2651 2914 
Q 2772 3150 2772 3378 
Q 2772 3750 2511 3984 
Q 2250 4219 1831 4219 
Q 1534 4219 1204 4116 
Q 875 4013 500 3803 
L 500 4441 
Q 881 4594 1212 4672 
Q 1544 4750 1819 4750 
Q 2544 4750 2975 4387 
Q 3406 4025 3406 3419 
Q 3406 3131 3298 2873 
Q 3191 2616 2906 2266 
Q 2828 2175 2409 1742 
Q 1991 1309 1228 531 
z
" transform="scale(0.015625)"/>
       </defs>
       <use xlink:href="#DejaVuSans-32"/>
       <use xlink:href="#DejaVuSans-30" transform="translate(63.623047 0)"/>
       <use xlink:href="#DejaVuSans-30" transform="translate(127.246094 0)"/>
      </g>
     </g>
    </g>
    <g id="text_4">
     <!-- Episode -->
     <g transform="translate(436.5825 416.156563) scale(0.1 -0.1)">
      <defs>
       <path id="DejaVuSans-45" d="M 628 4666 
L 3578 4666 
L 3578 4134 
L 1259 4134 
L 1259 2753 
L 3481 2753 
L 3481 2222 
L 1259 2222 
L 1259 531 
L 3634 531 
L 3634 0 
L 628 0 
L 628 4666 
z
" transform="scale(0.015625)"/>
       <path id="DejaVuSans-70" d="M 1159 525 
L 1159 -1331 
L 581 -1331 
L 581 3500 
L 1159 3500 
L 1159 2969 
Q 1341 3281 1617 3432 
Q 1894 3584 2278 3584 
Q 2916 3584 3314 3078 
Q 3713 2572 3713 1747 
Q 3713 922 3314 415 
Q 2916 -91 2278 -91 
Q 1894 -91 1617 61 
Q 1341 213 1159 525 
z
M 3116 1747 
Q 3116 2381 2855 2742 
Q 2594 3103 2138 3103 
Q 1681 3103 1420 2742 
Q 1159 2381 1159 1747 
Q 1159 1113 1420 752 
Q 1681 391 2138 391 
Q 2594 391 2855 752 
Q 3116 1113 3116 1747 
z
" transform="scale(0.015625)"/>
       <path id="DejaVuSans-69" d="M 603 3500 
L 1178 3500 
L 1178 0 
L 603 0 
L 603 3500 
z
M 603 4863 
L 1178 4863 
L 1178 4134 
L 603 4134 
L 603 4863 
z
" transform="scale(0.015625)"/>
       <path id="DejaVuSans-73" d="M 2834 3397 
L 2834 2853 
Q 2591 2978 2328 3040 
Q 2066 3103 1784 3103 
Q 1356 3103 1142 2972 
Q 928 2841 928 2578 
Q 928 2378 1081 2264 
Q 1234 2150 1697 2047 
L 1894 2003 
Q 2506 1872 2764 1633 
Q 3022 1394 3022 966 
Q 3022 478 2636 193 
Q 2250 -91 1575 -91 
Q 1294 -91 989 -36 
Q 684 19 347 128 
L 347 722 
Q 666 556 975 473 
Q 1284 391 1588 391 
Q 1994 391 2212 530 
Q 2431 669 2431 922 
Q 2431 1156 2273 1281 
Q 2116 1406 1581 1522 
L 1381 1569 
Q 847 1681 609 1914 
Q 372 2147 372 2553 
Q 372 3047 722 3315 
Q 1072 3584 1716 3584 
Q 2034 3584 2315 3537 
Q 2597 3491 2834 3397 
z
" transform="scale(0.015625)"/>
       <path id="DejaVuSans-6f" d="M 1959 3097 
Q 1497 3097 1228 2736 
Q 959 2375 959 1747 
Q 959 1119 1226 758 
Q 1494 397 1959 397 
Q 2419 397 2687 759 
Q 2956 1122 2956 1747 
Q 2956 2369 2687 2733 
Q 2419 3097 1959 3097 
z
M 1959 3584 
Q 2709 3584 3137 3096 
Q 3566 2609 3566 1747 
Q 3566 888 3137 398 
Q 2709 -91 1959 -91 
Q 1206 -91 779 398 
Q 353 888 353 1747 
Q 353 2609 779 3096 
Q 1206 3584 1959 3584 
z
" transform="scale(0.015625)"/>
       <path id="DejaVuSans-64" d="M 2906 2969 
L 2906 4863 
L 3481 4863 
L 3481 0 
L 2906 0 
L 2906 525 
Q 2725 213 2448 61 
Q 2172 -91 1784 -91 
Q 1150 -91 751 415 
Q 353 922 353 1747 
Q 353 2572 751 3078 
Q 1150 3584 1784 3584 
Q 2172 3584 2448 3432 
Q 2725 3281 2906 2969 
z
M 947 1747 
Q 947 1113 1208 752 
Q 1469 391 1925 391 
Q 2381 391 2643 752 
Q 2906 1113 2906 1747 
Q 2906 2381 2643 2742 
Q 2381 3103 1925 3103 
Q 1469 3103 1208 2742 
Q 947 2381 947 1747 
z
" transform="scale(0.015625)"/>
       <path id="DejaVuSans-65" d="M 3597 1894 
L 3597 1613 
L 953 1613 
Q 991 1019 1311 708 
Q 1631 397 2203 397 
Q 2534 397 2845 478 
Q 3156 559 3463 722 
L 3463 178 
Q 3153 47 2828 -22 
Q 2503 -91 2169 -91 
Q 1331 -91 842 396 
Q 353 884 353 1716 
Q 353 2575 817 3079 
Q 1281 3584 2069 3584 
Q 2775 3584 3186 3129 
Q 3597 2675 3597 1894 
z
M 3022 2063 
Q 3016 2534 2758 2815 
Q 2500 3097 2075 3097 
Q 1594 3097 1305 2825 
Q 1016 2553 972 2059 
L 3022 2063 
z
" transform="scale(0.015625)"/>
      </defs>
      <use xlink:href="#DejaVuSans-45"/>
      <use xlink:href="#DejaVuSans-70" transform="translate(63.183594 0)"/>
      <use xlink:href="#DejaVuSans-69" transform="translate(126.660156 0)"/>
      <use xlink:href="#DejaVuSans-73" transform="translate(154.443359 0)"/>
      <use xlink:href="#DejaVuSans-6f" transform="translate(206.542969 0)"/>
      <use xlink:href="#DejaVuSans-64" transform="translate(267.724609 0)"/>
      <use xlink:href="#DejaVuSans-65" transform="translate(331.201172 0)"/>
     </g>
    </g>
   </g>
   <g id="matplotlib.axis_2">
    <g id="ytick_1">
     <g id="line2d_7">
      <path d="M 61.4 387.88 
L 851.04 387.88 
" clip-path="url(#p2df5fd69ca)" style="fill: none; stroke: #b0b0b0; stroke-width: 0.8; stroke-linecap: square"/>
     </g>
     <g id="line2d_8">
      <defs>
       <path id="me3e66b2dcf" d="M 0 0 
L -3.5 0 
" style="stroke: #000000; stroke-width: 0.8"/>
      </defs>
      <g>
       <use xlink:href="#me3e66b2dcf" x="61.4" y="387.88" style="stroke: #000000; stroke-width: 0.8"/>
      </g>
     </g>
     <g id="text_5">
      <!-- −600 -->
      <g transform="translate(26.932812 391.679219) scale(0.1 -0.1)">
       <defs>
        <path id="DejaVuSans-2212" d="M 678 2272 
L 4684 2272 
L 4684 1741 
L 678 1741 
L 678 2272 
z
" transform="scale(0.015625)"/>
        <path id="DejaVuSans-36" d="M 2113 2584 
Q 1688 2584 1439 2293 
Q 1191 2003 1191 1497 
Q 1191 994 1439 701 
Q 1688 409 2113 409 
Q 2538 409 2786 701 
Q 3034 994 3034 1497 
Q 3034 2003 2786 2293 
Q 2538 2584 2113 2584 
z
M 3366 4563 
L 3366 3988 
Q 3128 4100 2886 4159 
Q 2644 4219 2406 4219 
Q 1781 4219 1451 3797 
Q 1122 3375 1075 2522 
Q 1259 2794 1537 2939 
Q 1816 3084 2150 3084 
Q 2853 3084 3261 2657 
Q 3669 2231 3669 1497 
Q 3669 778 3244 343 
Q 2819 -91 2113 -91 
Q 1303 -91 875 529 
Q 447 1150 447 2328 
Q 447 3434 972 4092 
Q 1497 4750 2381 4750 
Q 2619 4750 2861 4703 
Q 3103 4656 3366 4563 
z
" transform="scale(0.015625)"/>
       </defs>
       <use xlink:href="#DejaVuSans-2212"/>
       <use xlink:href="#DejaVuSans-36" transform="translate(83.789062 0)"/>
       <use xlink:href="#DejaVuSans-30" transform="translate(147.412109 0)"/>
       <use xlink:href="#DejaVuSans-30" transform="translate(211.035156 0)"/>
      </g>
     </g>
    </g>
    <g id="ytick_2">
     <g id="line2d_9">
      <path d="M 61.4 355.038139 
L 851.04 355.038139 
" clip-path="url(#p2df5fd69ca)" style="fill: none; stroke: #b0b0b0; stroke-width: 0.8; stroke-linecap: square"/>
     </g>
     <g id="line2d_10">
      <g>
       <use xlink:href="#me3e66b2dcf" x="61.4" y="355.038139" style="stroke: #000000; stroke-width: 0.8"/>
      </g>
     </g>
     <g id="text_6">
      <!-- −500 -->
      <g transform="translate(26.932812 358.837358) scale(0.1 -0.1)">
       <defs>
        <path id="DejaVuSans-35" d="M 691 4666 
L 3169 4666 
L 3169 4134 
L 1269 4134 
L 1269 2991 
Q 1406 3038 1543 3061 
Q 1681 3084 1819 3084 
Q 2600 3084 3056 2656 
Q 3513 2228 3513 1497 
Q 3513 744 3044 326 
Q 2575 -91 1722 -91 
Q 1428 -91 1123 -41 
Q 819 9 494 109 
L 494 744 
Q 775 591 1075 516 
Q 1375 441 1709 441 
Q 2250 441 2565 725 
Q 2881 1009 2881 1497 
Q 2881 1984 2565 2268 
Q 2250 2553 1709 2553 
Q 1456 2553 1204 2497 
Q 953 2441 691 2322 
L 691 4666 
z
" transform="scale(0.015625)"/>
       </defs>
       <use xlink:href="#DejaVuSans-2212"/>
       <use xlink:href="#DejaVuSans-35" transform="translate(83.789062 0)"/>
       <use xlink:href="#DejaVuSans-30" transform="translate(147.412109 0)"/>
       <use xlink:href="#DejaVuSans-30" transform="translate(211.035156 0)"/>
      </g>
     </g>
    </g>
    <g id="ytick_3">
     <g id="line2d_11">
      <path d="M 61.4 322.196278 
L 851.04 322.196278 
" clip-path="url(#p2df5fd69ca)" style="fill: none; stroke: #b0b0b0; stroke-width: 0.8; stroke-linecap: square"/>
     </g>
     <g id="line2d_12">
      <g>
       <use xlink:href="#me3e66b2dcf" x="61.4" y="322.196278" style="stroke: #000000; stroke-width: 0.8"/>
      </g>
     </g>
     <g id="text_7">
      <!-- −400 -->
      <g transform="translate(26.932812 325.995497) scale(0.1 -0.1)">
       <defs>
        <path id="DejaVuSans-34" d="M 2419 4116 
L 825 1625 
L 2419 1625 
L 2419 4116 
z
M 2253 4666 
L 3047 4666 
L 3047 1625 
L 3713 1625 
L 3713 1100 
L 3047 1100 
L 3047 0 
L 2419 0 
L 2419 1100 
L 313 1100 
L 313 1709 
L 2253 4666 
z
" transform="scale(0.015625)"/>
       </defs>
       <use xlink:href="#DejaVuSans-2212"/>
       <use xlink:href="#DejaVuSans-34" transform="translate(83.789062 0)"/>
       <use xlink:href="#DejaVuSans-30" transform="translate(147.412109 0)"/>
       <use xlink:href="#DejaVuSans-30" transform="translate(211.035156 0)"/>
      </g>
     </g>
    </g>
    <g id="ytick_4">
     <g id="line2d_13">
      <path d="M 61.4 289.354417 
L 851.04 289.354417 
" clip-path="url(#p2df5fd69ca)" style="fill: none; stroke: #b0b0b0; stroke-width: 0.8; stroke-linecap: square"/>
     </g>
     <g id="line2d_14">
      <g>
       <use xlink:href="#me3e66b2dcf" x="61.4" y="289.354417" style="stroke: #000000; stroke-width: 0.8"/>
      </g>
     </g>
     <g id="text_8">
      <!-- −300 -->
      <g transform="translate(26.932812 293.153635) scale(0.1 -0.1)">
       <defs>
        <path id="DejaVuSans-33" d="M 2597 2516 
Q 3050 2419 3304 2112 
Q 3559 1806 3559 1356 
Q 3559 666 3084 287 
Q 2609 -91 1734 -91 
Q 1441 -91 1130 -33 
Q 819 25 488 141 
L 488 750 
Q 750 597 1062 519 
Q 1375 441 1716 441 
Q 2309 441 2620 675 
Q 2931 909 2931 1356 
Q 2931 1769 2642 2001 
Q 2353 2234 1838 2234 
L 1294 2234 
L 1294 2753 
L 1863 2753 
Q 2328 2753 2575 2939 
Q 2822 3125 2822 3475 
Q 2822 3834 2567 4026 
Q 2313 4219 1838 4219 
Q 1578 4219 1281 4162 
Q 984 4106 628 3988 
L 628 4550 
Q 988 4650 1302 4700 
Q 1616 4750 1894 4750 
Q 2613 4750 3031 4423 
Q 3450 4097 3450 3541 
Q 3450 3153 3228 2886 
Q 3006 2619 2597 2516 
z
" transform="scale(0.015625)"/>
       </defs>
       <use xlink:href="#DejaVuSans-2212"/>
       <use xlink:href="#DejaVuSans-33" transform="translate(83.789062 0)"/>
       <use xlink:href="#DejaVuSans-30" transform="translate(147.412109 0)"/>
       <use xlink:href="#DejaVuSans-30" transform="translate(211.035156 0)"/>
      </g>
     </g>
    </g>
    <g id="ytick_5">
     <g id="line2d_15">
      <path d="M 61.4 256.512556 
L 851.04 256.512556 
" clip-path="url(#p2df5fd69ca)" style="fill: none; stroke: #b0b0b0; stroke-width: 0.8; stroke-linecap: square"/>
     </g>
     <g id="line2d_16">
      <g>
       <use xlink:href="#me3e66b2dcf" x="61.4" y="256.512556" style="stroke: #000000; stroke-width: 0.8"/>
      </g>
     </g>
     <g id="text_9">
      <!-- −200 -->
      <g transform="translate(26.932812 260.311774) scale(0.1 -0.1)">
       <use xlink:href="#DejaVuSans-2212"/>
       <use xlink:href="#DejaVuSans-32" transform="translate(83.789062 0)"/>
       <use xlink:href="#DejaVuSans-30" transform="translate(147.412109 0)"/>
       <use xlink:href="#DejaVuSans-30" transform="translate(211.035156 0)"/>
      </g>
     </g>
    </g>
    <g id="ytick_6">
     <g id="line2d_17">
      <path d="M 61.4 223.670694 
L 851.04 223.670694 
" clip-path="url(#p2df5fd69ca)" style="fill: none; stroke: #b0b0b0; stroke-width: 0.8; stroke-linecap: square"/>
     </g>
     <g id="line2d_18">
      <g>
       <use xlink:href="#me3e66b2dcf" x="61.4" y="223.670694" style="stroke: #000000; stroke-width: 0.8"/>
      </g>
     </g>
     <g id="text_10">
      <!-- −100 -->
      <g transform="translate(26.932812 227.469913) scale(0.1 -0.1)">
       <use xlink:href="#DejaVuSans-2212"/>
       <use xlink:href="#DejaVuSans-31" transform="translate(83.789062 0)"/>
       <use xlink:href="#DejaVuSans-30" transform="translate(147.412109 0)"/>
       <use xlink:href="#DejaVuSans-30" transform="translate(211.035156 0)"/>
      </g>
     </g>
    </g>
    <g id="ytick_7">
     <g id="line2d_19">
      <path d="M 61.4 190.828833 
L 851.04 190.828833 
" clip-path="url(#p2df5fd69ca)" style="fill: none; stroke: #b0b0b0; stroke-width: 0.8; stroke-linecap: square"/>
     </g>
     <g id="line2d_20">
      <g>
       <use xlink:href="#me3e66b2dcf" x="61.4" y="190.828833" style="stroke: #000000; stroke-width: 0.8"/>
      </g>
     </g>
     <g id="text_11">
      <!-- 0 -->
      <g transform="translate(48.0375 194.628052) scale(0.1 -0.1)">
       <use xlink:href="#DejaVuSans-30"/>
      </g>
     </g>
    </g>
    <g id="ytick_8">
     <g id="line2d_21">
      <path d="M 61.4 157.986972 
L 851.04 157.986972 
" clip-path="url(#p2df5fd69ca)" style="fill: none; stroke: #b0b0b0; stroke-width: 0.8; stroke-linecap: square"/>
     </g>
     <g id="line2d_22">
      <g>
       <use xlink:href="#me3e66b2dcf" x="61.4" y="157.986972" style="stroke: #000000; stroke-width: 0.8"/>
      </g>
     </g>
     <g id="text_12">
      <!-- 100 -->
      <g transform="translate(35.3125 161.786191) scale(0.1 -0.1)">
       <use xlink:href="#DejaVuSans-31"/>
       <use xlink:href="#DejaVuSans-30" transform="translate(63.623047 0)"/>
       <use xlink:href="#DejaVuSans-30" transform="translate(127.246094 0)"/>
      </g>
     </g>
    </g>
    <g id="ytick_9">
     <g id="line2d_23">
      <path d="M 61.4 125.145111 
L 851.04 125.145111 
" clip-path="url(#p2df5fd69ca)" style="fill: none; stroke: #b0b0b0; stroke-width: 0.8; stroke-linecap: square"/>
     </g>
     <g id="line2d_24">
      <g>
       <use xlink:href="#me3e66b2dcf" x="61.4" y="125.145111" style="stroke: #000000; stroke-width: 0.8"/>
      </g>
     </g>
     <g id="text_13">
      <!-- 200 -->
      <g transform="translate(35.3125 128.94433) scale(0.1 -0.1)">
       <use xlink:href="#DejaVuSans-32"/>
       <use xlink:href="#DejaVuSans-30" transform="translate(63.623047 0)"/>
       <use xlink:href="#DejaVuSans-30" transform="translate(127.246094 0)"/>
      </g>
     </g>
    </g>
    <g id="ytick_10">
     <g id="line2d_25">
      <path d="M 61.4 92.30325 
L 851.04 92.30325 
" clip-path="url(#p2df5fd69ca)" style="fill: none; stroke: #b0b0b0; stroke-width: 0.8; stroke-linecap: square"/>
     </g>
     <g id="line2d_26">
      <g>
       <use xlink:href="#me3e66b2dcf" x="61.4" y="92.30325" style="stroke: #000000; stroke-width: 0.8"/>
      </g>
     </g>
     <g id="text_14">
      <!-- 300 -->
      <g transform="translate(35.3125 96.102469) scale(0.1 -0.1)">
       <use xlink:href="#DejaVuSans-33"/>
       <use xlink:href="#DejaVuSans-30" transform="translate(63.623047 0)"/>
       <use xlink:href="#DejaVuSans-30" transform="translate(127.246094 0)"/>
      </g>
     </g>
    </g>
    <g id="text_15">
     <!-- Reward -->
     <g transform="translate(20.853125 258.712719) rotate(-90) scale(0.1 -0.1)">
      <defs>
       <path id="DejaVuSans-52" d="M 2841 2188 
Q 3044 2119 3236 1894 
Q 3428 1669 3622 1275 
L 4263 0 
L 3584 0 
L 2988 1197 
Q 2756 1666 2539 1819 
Q 2322 1972 1947 1972 
L 1259 1972 
L 1259 0 
L 628 0 
L 628 4666 
L 2053 4666 
Q 2853 4666 3247 4331 
Q 3641 3997 3641 3322 
Q 3641 2881 3436 2590 
Q 3231 2300 2841 2188 
z
M 1259 4147 
L 1259 2491 
L 2053 2491 
Q 2509 2491 2742 2702 
Q 2975 2913 2975 3322 
Q 2975 3731 2742 3939 
Q 2509 4147 2053 4147 
L 1259 4147 
z
" transform="scale(0.015625)"/>
       <path id="DejaVuSans-77" d="M 269 3500 
L 844 3500 
L 1563 769 
L 2278 3500 
L 2956 3500 
L 3675 769 
L 4391 3500 
L 4966 3500 
L 4050 0 
L 3372 0 
L 2619 2869 
L 1863 0 
L 1184 0 
L 269 3500 
z
" transform="scale(0.015625)"/>
       <path id="DejaVuSans-61" d="M 2194 1759 
Q 1497 1759 1228 1600 
Q 959 1441 959 1056 
Q 959 750 1161 570 
Q 1363 391 1709 391 
Q 2188 391 2477 730 
Q 2766 1069 2766 1631 
L 2766 1759 
L 2194 1759 
z
M 3341 1997 
L 3341 0 
L 2766 0 
L 2766 531 
Q 2569 213 2275 61 
Q 1981 -91 1556 -91 
Q 1019 -91 701 211 
Q 384 513 384 1019 
Q 384 1609 779 1909 
Q 1175 2209 1959 2209 
L 2766 2209 
L 2766 2266 
Q 2766 2663 2505 2880 
Q 2244 3097 1772 3097 
Q 1472 3097 1187 3025 
Q 903 2953 641 2809 
L 641 3341 
Q 956 3463 1253 3523 
Q 1550 3584 1831 3584 
Q 2591 3584 2966 3190 
Q 3341 2797 3341 1997 
z
" transform="scale(0.015625)"/>
       <path id="DejaVuSans-72" d="M 2631 2963 
Q 2534 3019 2420 3045 
Q 2306 3072 2169 3072 
Q 1681 3072 1420 2755 
Q 1159 2438 1159 1844 
L 1159 0 
L 581 0 
L 581 3500 
L 1159 3500 
L 1159 2956 
Q 1341 3275 1631 3429 
Q 1922 3584 2338 3584 
Q 2397 3584 2469 3576 
Q 2541 3569 2628 3553 
L 2631 2963 
z
" transform="scale(0.015625)"/>
      </defs>
      <use xlink:href="#DejaVuSans-52"/>
      <use xlink:href="#DejaVuSans-65" transform="translate(64.982422 0)"/>
      <use xlink:href="#DejaVuSans-77" transform="translate(126.505859 0)"/>
      <use xlink:href="#DejaVuSans-61" transform="translate(208.292969 0)"/>
      <use xlink:href="#DejaVuSans-72" transform="translate(269.572266 0)"/>
      <use xlink:href="#DejaVuSans-64" transform="translate(308.935547 0)"/>
     </g>
    </g>
   </g>
   <g id="line2d_27">
    <path d="M 97.292727 371.505192 
L 100.900037 330.575271 
L 104.507346 234.225308 
L 108.114655 394.214917 
L 111.721964 228.494077 
L 115.329274 253.257724 
L 118.936583 363.802845 
L 122.543892 273.816949 
L 126.151201 250.190811 
L 129.758511 249.32309 
L 133.36582 281.974205 
L 136.973129 302.781374 
L 140.580439 305.457184 
L 144.187748 304.931853 
L 147.795057 229.221161 
L 151.402366 244.121339 
L 155.009676 291.587061 
L 158.616985 263.579317 
L 162.224294 311.882508 
L 165.831603 347.635277 
L 169.438913 297.013472 
L 173.046222 294.407163 
L 176.653531 351.347104 
L 180.260841 300.830573 
L 183.86815 278.464325 
L 187.475459 282.111594 
L 191.082768 283.660236 
L 194.690078 290.394477 
L 198.297387 262.447936 
L 201.904696 256.305799 
L 205.512005 298.09219 
L 209.119315 255.092689 
L 212.726624 266.067944 
L 216.333933 259.638639 
L 219.941243 258.76154 
L 223.548552 338.375233 
L 227.155861 190.740424 
L 230.76317 235.226344 
L 234.37048 257.276996 
L 237.977789 263.949956 
L 241.585098 194.411089 
L 245.192407 200.675876 
L 248.799717 182.012023 
L 252.407026 212.374121 
L 256.014335 147.615941 
L 259.621645 145.127436 
L 263.228954 184.224422 
L 266.836263 189.181032 
L 274.050882 138.132285 
L 277.658191 148.672714 
L 281.2655 195.197174 
L 284.87281 154.03671 
L 288.480119 144.325186 
L 292.087428 138.404865 
L 295.694737 164.608104 
L 299.302047 167.329428 
L 302.909356 168.440774 
L 306.516665 139.832659 
L 310.123974 132.907052 
L 313.731284 162.105231 
L 317.338593 153.886122 
L 320.945902 140.769538 
L 324.553212 139.108463 
L 328.160521 140.020424 
L 331.76783 131.176461 
L 335.375139 134.381927 
L 338.982449 125.100116 
L 346.197067 151.72173 
L 349.804376 136.530382 
L 353.411686 141.058364 
L 357.018995 128.164581 
L 360.626304 134.872365 
L 364.233614 138.356234 
L 367.840923 137.906503 
L 371.448232 124.456067 
L 375.055541 147.662198 
L 378.662851 124.691719 
L 382.27016 147.596483 
L 385.877469 135.804549 
L 389.484778 139.546981 
L 393.092088 131.718974 
L 396.699397 139.216806 
L 400.306706 150.968372 
L 403.914016 148.293317 
L 407.521325 139.099571 
L 411.128634 124.00694 
L 414.735943 159.696826 
L 418.343253 126.529582 
L 421.950562 129.840758 
L 425.557871 129.272809 
L 429.16518 129.100184 
L 432.77249 124.018082 
L 436.379799 112.431827 
L 439.987108 117.965507 
L 443.594418 152.725041 
L 447.201727 125.880503 
L 450.809036 146.846087 
L 454.416345 142.147372 
L 458.023655 123.401293 
L 461.630964 121.442497 
L 465.238273 134.083407 
L 468.845582 152.191858 
L 472.452892 127.860144 
L 476.060201 141.930027 
L 479.66751 152.827014 
L 483.27482 170.244003 
L 486.882129 141.810672 
L 490.489438 116.66037 
L 494.096747 157.558527 
L 497.704057 130.001367 
L 501.311366 135.352997 
L 504.918675 138.915461 
L 508.525984 138.724437 
L 512.133294 136.195891 
L 515.740603 167.367819 
L 519.347912 159.673808 
L 522.955222 169.09031 
L 526.562531 148.942258 
L 530.16984 149.679805 
L 533.777149 145.868241 
L 537.384459 144.29211 
L 540.991768 161.459255 
L 544.599077 148.406776 
L 548.206386 147.999614 
L 551.813696 137.865982 
L 555.421005 157.104449 
L 559.028314 161.521835 
L 562.635624 169.831742 
L 566.242933 140.772568 
L 569.850242 170.07041 
L 573.457551 140.970297 
L 577.064861 130.705327 
L 580.67217 138.106449 
L 584.279479 157.079892 
L 587.886788 155.719094 
L 591.494098 159.925697 
L 595.101407 163.695915 
L 598.708716 142.841751 
L 602.316026 154.057673 
L 605.923335 150.109057 
L 609.530644 151.686512 
L 613.137953 147.90337 
L 616.745263 151.689583 
L 620.352572 136.088883 
L 623.959881 139.138087 
L 627.56719 163.387766 
L 631.1745 148.389902 
L 634.781809 180.634952 
L 638.389118 131.076289 
L 641.996428 133.030435 
L 645.603737 147.179529 
L 649.211046 128.866899 
L 652.818355 163.187695 
L 656.425665 157.678264 
L 660.032974 155.872589 
L 663.640283 161.552047 
L 667.247593 179.072545 
L 670.854902 195.621593 
L 674.462211 148.283385 
L 678.06952 151.783513 
L 681.67683 169.632409 
L 685.284139 158.709826 
L 688.891448 136.280303 
L 692.498757 134.986122 
L 696.106067 152.76072 
L 699.713376 153.230229 
L 703.320685 166.329518 
L 706.927995 145.715361 
L 710.535304 184.898366 
L 714.142613 148.194864 
L 717.749922 124.656578 
L 721.357232 180.174588 
L 724.964541 124.490871 
L 728.57185 150.220451 
L 732.179159 158.302569 
L 735.786469 143.129293 
L 739.393778 154.439162 
L 743.001087 167.098156 
L 746.608397 137.141245 
L 750.215706 145.147694 
L 753.823015 167.221456 
L 757.430324 173.546222 
L 761.037634 141.151357 
L 764.644943 177.968632 
L 768.252252 139.74286 
L 771.859561 142.064495 
L 775.466871 147.635466 
L 779.07418 170.778595 
L 782.681489 136.072763 
L 786.288799 170.965865 
L 789.896108 137.722238 
L 793.503417 177.392503 
L 797.110726 152.740349 
L 800.718036 155.710969 
L 804.325345 155.712468 
L 807.932654 168.420107 
L 811.539963 167.804405 
L 815.147273 193.592729 
L 815.147273 193.592729 
" clip-path="url(#p2df5fd69ca)" style="fill: none; stroke: #1f77b4; stroke-width: 1.5; stroke-linecap: round"/>
   </g>
   <g id="patch_3">
    <path d="M 61.4 387.88 
L 61.4 92.30325 
" style="fill: none; stroke: #000000; stroke-width: 0.8; stroke-linejoin: miter; stroke-linecap: square"/>
   </g>
   <g id="patch_4">
    <path d="M 851.04 387.88 
L 851.04 92.30325 
" style="fill: none; stroke: #000000; stroke-width: 0.8; stroke-linejoin: miter; stroke-linecap: square"/>
   </g>
   <g id="patch_5">
    <path d="M 61.4 387.88 
L 851.04 387.88 
" style="fill: none; stroke: #000000; stroke-width: 0.8; stroke-linejoin: miter; stroke-linecap: square"/>
   </g>
   <g id="patch_6">
    <path d="M 61.4 92.30325 
L 851.04 92.30325 
" style="fill: none; stroke: #000000; stroke-width: 0.8; stroke-linejoin: miter; stroke-linecap: square"/>
   </g>
   <g id="text_16">
    <!-- TDλ -->
    <g transform="translate(444.384062 32.193375) scale(0.12 -0.12)">
     <defs>
      <path id="DejaVuSans-54" d="M -19 4666 
L 3928 4666 
L 3928 4134 
L 2272 4134 
L 2272 0 
L 1638 0 
L 1638 4134 
L -19 4134 
L -19 4666 
z
" transform="scale(0.015625)"/>
      <path id="DejaVuSans-44" d="M 1259 4147 
L 1259 519 
L 2022 519 
Q 2988 519 3436 956 
Q 3884 1394 3884 2338 
Q 3884 3275 3436 3711 
Q 2988 4147 2022 4147 
L 1259 4147 
z
M 628 4666 
L 1925 4666 
Q 3281 4666 3915 4102 
Q 4550 3538 4550 2338 
Q 4550 1131 3912 565 
Q 3275 0 1925 0 
L 628 0 
L 628 4666 
z
" transform="scale(0.015625)"/>
      <path id="DejaVuSans-3bb" d="M 1981 4316 
L 3597 0 
L 2988 0 
L 2006 2588 
L 800 0 
L 191 0 
L 1725 3356 
L 1494 3975 
Q 1347 4369 1013 4369 
L 713 4369 
L 713 4863 
L 1078 4856 
Q 1784 4847 1981 4316 
z
" transform="scale(0.015625)"/>
     </defs>
     <use xlink:href="#DejaVuSans-54"/>
     <use xlink:href="#DejaVuSans-44" transform="translate(61.083984 0)"/>
     <use xlink:href="#DejaVuSans-3bb" transform="translate(138.085938 0)"/>
    </g>
    <!-- Best score Episode 94: 218.4 (238.7 ± 20.4) -->
    <g transform="translate(322.822187 45.63075) scale(0.12 -0.12)">
     <defs>
      <path id="DejaVuSans-42" d="M 1259 2228 
L 1259 519 
L 2272 519 
Q 2781 519 3026 730 
Q 3272 941 3272 1375 
Q 3272 1813 3026 2020 
Q 2781 2228 2272 2228 
L 1259 2228 
z
M 1259 4147 
L 1259 2741 
L 2194 2741 
Q 2656 2741 2882 2914 
Q 3109 3088 3109 3444 
Q 3109 3797 2882 3972 
Q 2656 4147 2194 4147 
L 1259 4147 
z
M 628 4666 
L 2241 4666 
Q 2963 4666 3353 4366 
Q 3744 4066 3744 3513 
Q 3744 3084 3544 2831 
Q 3344 2578 2956 2516 
Q 3422 2416 3680 2098 
Q 3938 1781 3938 1306 
Q 3938 681 3513 340 
Q 3088 0 2303 0 
L 628 0 
L 628 4666 
z
" transform="scale(0.015625)"/>
      <path id="DejaVuSans-74" d="M 1172 4494 
L 1172 3500 
L 2356 3500 
L 2356 3053 
L 1172 3053 
L 1172 1153 
Q 1172 725 1289 603 
Q 1406 481 1766 481 
L 2356 481 
L 2356 0 
L 1766 0 
Q 1100 0 847 248 
Q 594 497 594 1153 
L 594 3053 
L 172 3053 
L 172 3500 
L 594 3500 
L 594 4494 
L 1172 4494 
z
" transform="scale(0.015625)"/>
      <path id="DejaVuSans-20" transform="scale(0.015625)"/>
      <path id="DejaVuSans-63" d="M 3122 3366 
L 3122 2828 
Q 2878 2963 2633 3030 
Q 2388 3097 2138 3097 
Q 1578 3097 1268 2742 
Q 959 2388 959 1747 
Q 959 1106 1268 751 
Q 1578 397 2138 397 
Q 2388 397 2633 464 
Q 2878 531 3122 666 
L 3122 134 
Q 2881 22 2623 -34 
Q 2366 -91 2075 -91 
Q 1284 -91 818 406 
Q 353 903 353 1747 
Q 353 2603 823 3093 
Q 1294 3584 2113 3584 
Q 2378 3584 2631 3529 
Q 2884 3475 3122 3366 
z
" transform="scale(0.015625)"/>
      <path id="DejaVuSans-39" d="M 703 97 
L 703 672 
Q 941 559 1184 500 
Q 1428 441 1663 441 
Q 2288 441 2617 861 
Q 2947 1281 2994 2138 
Q 2813 1869 2534 1725 
Q 2256 1581 1919 1581 
Q 1219 1581 811 2004 
Q 403 2428 403 3163 
Q 403 3881 828 4315 
Q 1253 4750 1959 4750 
Q 2769 4750 3195 4129 
Q 3622 3509 3622 2328 
Q 3622 1225 3098 567 
Q 2575 -91 1691 -91 
Q 1453 -91 1209 -44 
Q 966 3 703 97 
z
M 1959 2075 
Q 2384 2075 2632 2365 
Q 2881 2656 2881 3163 
Q 2881 3666 2632 3958 
Q 2384 4250 1959 4250 
Q 1534 4250 1286 3958 
Q 1038 3666 1038 3163 
Q 1038 2656 1286 2365 
Q 1534 2075 1959 2075 
z
" transform="scale(0.015625)"/>
      <path id="DejaVuSans-3a" d="M 750 794 
L 1409 794 
L 1409 0 
L 750 0 
L 750 794 
z
M 750 3309 
L 1409 3309 
L 1409 2516 
L 750 2516 
L 750 3309 
z
" transform="scale(0.015625)"/>
      <path id="DejaVuSans-38" d="M 2034 2216 
Q 1584 2216 1326 1975 
Q 1069 1734 1069 1313 
Q 1069 891 1326 650 
Q 1584 409 2034 409 
Q 2484 409 2743 651 
Q 3003 894 3003 1313 
Q 3003 1734 2745 1975 
Q 2488 2216 2034 2216 
z
M 1403 2484 
Q 997 2584 770 2862 
Q 544 3141 544 3541 
Q 544 4100 942 4425 
Q 1341 4750 2034 4750 
Q 2731 4750 3128 4425 
Q 3525 4100 3525 3541 
Q 3525 3141 3298 2862 
Q 3072 2584 2669 2484 
Q 3125 2378 3379 2068 
Q 3634 1759 3634 1313 
Q 3634 634 3220 271 
Q 2806 -91 2034 -91 
Q 1263 -91 848 271 
Q 434 634 434 1313 
Q 434 1759 690 2068 
Q 947 2378 1403 2484 
z
M 1172 3481 
Q 1172 3119 1398 2916 
Q 1625 2713 2034 2713 
Q 2441 2713 2670 2916 
Q 2900 3119 2900 3481 
Q 2900 3844 2670 4047 
Q 2441 4250 2034 4250 
Q 1625 4250 1398 4047 
Q 1172 3844 1172 3481 
z
" transform="scale(0.015625)"/>
      <path id="DejaVuSans-2e" d="M 684 794 
L 1344 794 
L 1344 0 
L 684 0 
L 684 794 
z
" transform="scale(0.015625)"/>
      <path id="DejaVuSans-28" d="M 1984 4856 
Q 1566 4138 1362 3434 
Q 1159 2731 1159 2009 
Q 1159 1288 1364 580 
Q 1569 -128 1984 -844 
L 1484 -844 
Q 1016 -109 783 600 
Q 550 1309 550 2009 
Q 550 2706 781 3412 
Q 1013 4119 1484 4856 
L 1984 4856 
z
" transform="scale(0.015625)"/>
      <path id="DejaVuSans-37" d="M 525 4666 
L 3525 4666 
L 3525 4397 
L 1831 0 
L 1172 0 
L 2766 4134 
L 525 4134 
L 525 4666 
z
" transform="scale(0.015625)"/>
      <path id="DejaVuSans-b1" d="M 2944 4013 
L 2944 2803 
L 4684 2803 
L 4684 2272 
L 2944 2272 
L 2944 1063 
L 2419 1063 
L 2419 2272 
L 678 2272 
L 678 2803 
L 2419 2803 
L 2419 4013 
L 2944 4013 
z
M 678 531 
L 4684 531 
L 4684 0 
L 678 0 
L 678 531 
z
" transform="scale(0.015625)"/>
      <path id="DejaVuSans-29" d="M 513 4856 
L 1013 4856 
Q 1481 4119 1714 3412 
Q 1947 2706 1947 2009 
Q 1947 1309 1714 600 
Q 1481 -109 1013 -844 
L 513 -844 
Q 928 -128 1133 580 
Q 1338 1288 1338 2009 
Q 1338 2731 1133 3434 
Q 928 4138 513 4856 
z
" transform="scale(0.015625)"/>
     </defs>
     <use xlink:href="#DejaVuSans-42"/>
     <use xlink:href="#DejaVuSans-65" transform="translate(68.603516 0)"/>
     <use xlink:href="#DejaVuSans-73" transform="translate(130.126953 0)"/>
     <use xlink:href="#DejaVuSans-74" transform="translate(182.226562 0)"/>
     <use xlink:href="#DejaVuSans-20" transform="translate(221.435547 0)"/>
     <use xlink:href="#DejaVuSans-73" transform="translate(253.222656 0)"/>
     <use xlink:href="#DejaVuSans-63" transform="translate(305.322266 0)"/>
     <use xlink:href="#DejaVuSans-6f" transform="translate(360.302734 0)"/>
     <use xlink:href="#DejaVuSans-72" transform="translate(421.484375 0)"/>
     <use xlink:href="#DejaVuSans-65" transform="translate(460.347656 0)"/>
     <use xlink:href="#DejaVuSans-20" transform="translate(521.871094 0)"/>
     <use xlink:href="#DejaVuSans-45" transform="translate(553.658203 0)"/>
     <use xlink:href="#DejaVuSans-70" transform="translate(616.841797 0)"/>
     <use xlink:href="#DejaVuSans-69" transform="translate(680.318359 0)"/>
     <use xlink:href="#DejaVuSans-73" transform="translate(708.101562 0)"/>
     <use xlink:href="#DejaVuSans-6f" transform="translate(760.201172 0)"/>
     <use xlink:href="#DejaVuSans-64" transform="translate(821.382812 0)"/>
     <use xlink:href="#DejaVuSans-65" transform="translate(884.859375 0)"/>
     <use xlink:href="#DejaVuSans-20" transform="translate(946.382812 0)"/>
     <use xlink:href="#DejaVuSans-39" transform="translate(978.169922 0)"/>
     <use xlink:href="#DejaVuSans-34" transform="translate(1041.792969 0)"/>
     <use xlink:href="#DejaVuSans-3a" transform="translate(1105.416016 0)"/>
     <use xlink:href="#DejaVuSans-20" transform="translate(1139.107422 0)"/>
     <use xlink:href="#DejaVuSans-32" transform="translate(1170.894531 0)"/>
     <use xlink:href="#DejaVuSans-31" transform="translate(1234.517578 0)"/>
     <use xlink:href="#DejaVuSans-38" transform="translate(1298.140625 0)"/>
     <use xlink:href="#DejaVuSans-2e" transform="translate(1361.763672 0)"/>
     <use xlink:href="#DejaVuSans-34" transform="translate(1393.550781 0)"/>
     <use xlink:href="#DejaVuSans-20" transform="translate(1457.173828 0)"/>
     <use xlink:href="#DejaVuSans-28" transform="translate(1488.960938 0)"/>
     <use xlink:href="#DejaVuSans-32" transform="translate(1527.974609 0)"/>
     <use xlink:href="#DejaVuSans-33" transform="translate(1591.597656 0)"/>
     <use xlink:href="#DejaVuSans-38" transform="translate(1655.220703 0)"/>
     <use xlink:href="#DejaVuSans-2e" transform="translate(1718.84375 0)"/>
     <use xlink:href="#DejaVuSans-37" transform="translate(1750.630859 0)"/>
     <use xlink:href="#DejaVuSans-20" transform="translate(1814.253906 0)"/>
     <use xlink:href="#DejaVuSans-b1" transform="translate(1846.041016 0)"/>
     <use xlink:href="#DejaVuSans-20" transform="translate(1929.830078 0)"/>
     <use xlink:href="#DejaVuSans-32" transform="translate(1961.617188 0)"/>
     <use xlink:href="#DejaVuSans-30" transform="translate(2025.240234 0)"/>
     <use xlink:href="#DejaVuSans-2e" transform="translate(2088.863281 0)"/>
     <use xlink:href="#DejaVuSans-34" transform="translate(2120.650391 0)"/>
     <use xlink:href="#DejaVuSans-29" transform="translate(2184.273438 0)"/>
    </g>
    <!-- x:state_interactions -->
    <g transform="translate(396.874375 59.068125) scale(0.12 -0.12)">
     <defs>
      <path id="DejaVuSans-78" d="M 3513 3500 
L 2247 1797 
L 3578 0 
L 2900 0 
L 1881 1375 
L 863 0 
L 184 0 
L 1544 1831 
L 300 3500 
L 978 3500 
L 1906 2253 
L 2834 3500 
L 3513 3500 
z
" transform="scale(0.015625)"/>
      <path id="DejaVuSans-5f" d="M 3263 -1063 
L 3263 -1509 
L -63 -1509 
L -63 -1063 
L 3263 -1063 
z
" transform="scale(0.015625)"/>
      <path id="DejaVuSans-6e" d="M 3513 2113 
L 3513 0 
L 2938 0 
L 2938 2094 
Q 2938 2591 2744 2837 
Q 2550 3084 2163 3084 
Q 1697 3084 1428 2787 
Q 1159 2491 1159 1978 
L 1159 0 
L 581 0 
L 581 3500 
L 1159 3500 
L 1159 2956 
Q 1366 3272 1645 3428 
Q 1925 3584 2291 3584 
Q 2894 3584 3203 3211 
Q 3513 2838 3513 2113 
z
" transform="scale(0.015625)"/>
     </defs>
     <use xlink:href="#DejaVuSans-78"/>
     <use xlink:href="#DejaVuSans-3a" transform="translate(59.179688 0)"/>
     <use xlink:href="#DejaVuSans-73" transform="translate(92.871094 0)"/>
     <use xlink:href="#DejaVuSans-74" transform="translate(144.970703 0)"/>
     <use xlink:href="#DejaVuSans-61" transform="translate(184.179688 0)"/>
     <use xlink:href="#DejaVuSans-74" transform="translate(245.458984 0)"/>
     <use xlink:href="#DejaVuSans-65" transform="translate(284.667969 0)"/>
     <use xlink:href="#DejaVuSans-5f" transform="translate(346.191406 0)"/>
     <use xlink:href="#DejaVuSans-69" transform="translate(396.191406 0)"/>
     <use xlink:href="#DejaVuSans-6e" transform="translate(423.974609 0)"/>
     <use xlink:href="#DejaVuSans-74" transform="translate(487.353516 0)"/>
     <use xlink:href="#DejaVuSans-65" transform="translate(526.5625 0)"/>
     <use xlink:href="#DejaVuSans-72" transform="translate(588.085938 0)"/>
     <use xlink:href="#DejaVuSans-61" transform="translate(629.199219 0)"/>
     <use xlink:href="#DejaVuSans-63" transform="translate(690.478516 0)"/>
     <use xlink:href="#DejaVuSans-74" transform="translate(745.458984 0)"/>
     <use xlink:href="#DejaVuSans-69" transform="translate(784.667969 0)"/>
     <use xlink:href="#DejaVuSans-6f" transform="translate(812.451172 0)"/>
     <use xlink:href="#DejaVuSans-6e" transform="translate(873.632812 0)"/>
     <use xlink:href="#DejaVuSans-73" transform="translate(937.011719 0)"/>
    </g>
    <!-- $\gamma$=9.990e-01, $\lambda$=5.000e-01, $\Delta$=1.000e-06 -->
    <g transform="translate(330.28 72.8415) scale(0.12 -0.12)">
     <defs>
      <path id="DejaVuSans-Oblique-3b3" d="M 1491 2950 
L 1838 788 
L 3456 3500 
L 4066 3500 
L 1972 0 
L 1713 -1331 
L 1138 -1331 
L 1397 0 
L 988 2613 
Q 925 3006 628 3006 
L 475 3006 
L 569 3500 
L 788 3500 
Q 1403 3500 1491 2950 
z
" transform="scale(0.015625)"/>
      <path id="DejaVuSans-3d" d="M 678 2906 
L 4684 2906 
L 4684 2381 
L 678 2381 
L 678 2906 
z
M 678 1631 
L 4684 1631 
L 4684 1100 
L 678 1100 
L 678 1631 
z
" transform="scale(0.015625)"/>
      <path id="DejaVuSans-2d" d="M 313 2009 
L 1997 2009 
L 1997 1497 
L 313 1497 
L 313 2009 
z
" transform="scale(0.015625)"/>
      <path id="DejaVuSans-2c" d="M 750 794 
L 1409 794 
L 1409 256 
L 897 -744 
L 494 -744 
L 750 256 
L 750 794 
z
" transform="scale(0.015625)"/>
      <path id="DejaVuSans-Oblique-3bb" d="M 2350 4316 
L 3125 0 
L 2516 0 
L 2038 2588 
L 328 0 
L -281 0 
L 1903 3356 
L 1794 3975 
Q 1725 4369 1391 4369 
L 1091 4369 
L 1184 4863 
L 1550 4856 
Q 2253 4847 2350 4316 
z
" transform="scale(0.015625)"/>
      <path id="DejaVuSans-394" d="M 2188 4044 
L 906 525 
L 3472 525 
L 2188 4044 
z
M 50 0 
L 1831 4666 
L 2547 4666 
L 4325 0 
L 50 0 
z
" transform="scale(0.015625)"/>
     </defs>
     <use xlink:href="#DejaVuSans-Oblique-3b3" transform="translate(0 0.015625)"/>
     <use xlink:href="#DejaVuSans-3d" transform="translate(59.179688 0.015625)"/>
     <use xlink:href="#DejaVuSans-39" transform="translate(142.96875 0.015625)"/>
     <use xlink:href="#DejaVuSans-2e" transform="translate(206.591797 0.015625)"/>
     <use xlink:href="#DejaVuSans-39" transform="translate(238.378906 0.015625)"/>
     <use xlink:href="#DejaVuSans-39" transform="translate(302.001953 0.015625)"/>
     <use xlink:href="#DejaVuSans-30" transform="translate(365.625 0.015625)"/>
     <use xlink:href="#DejaVuSans-65" transform="translate(429.248047 0.015625)"/>
     <use xlink:href="#DejaVuSans-2d" transform="translate(490.771484 0.015625)"/>
     <use xlink:href="#DejaVuSans-30" transform="translate(526.855469 0.015625)"/>
     <use xlink:href="#DejaVuSans-31" transform="translate(590.478516 0.015625)"/>
     <use xlink:href="#DejaVuSans-2c" transform="translate(654.101562 0.015625)"/>
     <use xlink:href="#DejaVuSans-20" transform="translate(685.888672 0.015625)"/>
     <use xlink:href="#DejaVuSans-Oblique-3bb" transform="translate(717.675781 0.015625)"/>
     <use xlink:href="#DejaVuSans-3d" transform="translate(776.855469 0.015625)"/>
     <use xlink:href="#DejaVuSans-35" transform="translate(860.644531 0.015625)"/>
     <use xlink:href="#DejaVuSans-2e" transform="translate(924.267578 0.015625)"/>
     <use xlink:href="#DejaVuSans-30" transform="translate(956.054688 0.015625)"/>
     <use xlink:href="#DejaVuSans-30" transform="translate(1019.677734 0.015625)"/>
     <use xlink:href="#DejaVuSans-30" transform="translate(1083.300781 0.015625)"/>
     <use xlink:href="#DejaVuSans-65" transform="translate(1146.923828 0.015625)"/>
     <use xlink:href="#DejaVuSans-2d" transform="translate(1208.447266 0.015625)"/>
     <use xlink:href="#DejaVuSans-30" transform="translate(1244.53125 0.015625)"/>
     <use xlink:href="#DejaVuSans-31" transform="translate(1308.154297 0.015625)"/>
     <use xlink:href="#DejaVuSans-2c" transform="translate(1371.777344 0.015625)"/>
     <use xlink:href="#DejaVuSans-20" transform="translate(1403.564453 0.015625)"/>
     <use xlink:href="#DejaVuSans-394" transform="translate(1435.351562 0.015625)"/>
     <use xlink:href="#DejaVuSans-3d" transform="translate(1503.759766 0.015625)"/>
     <use xlink:href="#DejaVuSans-31" transform="translate(1587.548828 0.015625)"/>
     <use xlink:href="#DejaVuSans-2e" transform="translate(1651.171875 0.015625)"/>
     <use xlink:href="#DejaVuSans-30" transform="translate(1682.958984 0.015625)"/>
     <use xlink:href="#DejaVuSans-30" transform="translate(1746.582031 0.015625)"/>
     <use xlink:href="#DejaVuSans-30" transform="translate(1810.205078 0.015625)"/>
     <use xlink:href="#DejaVuSans-65" transform="translate(1873.828125 0.015625)"/>
     <use xlink:href="#DejaVuSans-2d" transform="translate(1935.351562 0.015625)"/>
     <use xlink:href="#DejaVuSans-30" transform="translate(1971.435547 0.015625)"/>
     <use xlink:href="#DejaVuSans-36" transform="translate(2035.058594 0.015625)"/>
    </g>
    <!-- lr=(0.100,0.100,0.000), er=(0.000,0.000,0.000) -->
    <g transform="translate(312.00625 86.30325) scale(0.12 -0.12)">
     <defs>
      <path id="DejaVuSans-6c" d="M 603 4863 
L 1178 4863 
L 1178 0 
L 603 0 
L 603 4863 
z
" transform="scale(0.015625)"/>
     </defs>
     <use xlink:href="#DejaVuSans-6c"/>
     <use xlink:href="#DejaVuSans-72" transform="translate(27.783203 0)"/>
     <use xlink:href="#DejaVuSans-3d" transform="translate(68.896484 0)"/>
     <use xlink:href="#DejaVuSans-28" transform="translate(152.685547 0)"/>
     <use xlink:href="#DejaVuSans-30" transform="translate(191.699219 0)"/>
     <use xlink:href="#DejaVuSans-2e" transform="translate(255.322266 0)"/>
     <use xlink:href="#DejaVuSans-31" transform="translate(287.109375 0)"/>
     <use xlink:href="#DejaVuSans-30" transform="translate(350.732422 0)"/>
     <use xlink:href="#DejaVuSans-30" transform="translate(414.355469 0)"/>
     <use xlink:href="#DejaVuSans-2c" transform="translate(477.978516 0)"/>
     <use xlink:href="#DejaVuSans-30" transform="translate(509.765625 0)"/>
     <use xlink:href="#DejaVuSans-2e" transform="translate(573.388672 0)"/>
     <use xlink:href="#DejaVuSans-31" transform="translate(605.175781 0)"/>
     <use xlink:href="#DejaVuSans-30" transform="translate(668.798828 0)"/>
     <use xlink:href="#DejaVuSans-30" transform="translate(732.421875 0)"/>
     <use xlink:href="#DejaVuSans-2c" transform="translate(796.044922 0)"/>
     <use xlink:href="#DejaVuSans-30" transform="translate(827.832031 0)"/>
     <use xlink:href="#DejaVuSans-2e" transform="translate(891.455078 0)"/>
     <use xlink:href="#DejaVuSans-30" transform="translate(923.242188 0)"/>
     <use xlink:href="#DejaVuSans-30" transform="translate(986.865234 0)"/>
     <use xlink:href="#DejaVuSans-30" transform="translate(1050.488281 0)"/>
     <use xlink:href="#DejaVuSans-29" transform="translate(1114.111328 0)"/>
     <use xlink:href="#DejaVuSans-2c" transform="translate(1153.125 0)"/>
     <use xlink:href="#DejaVuSans-20" transform="translate(1184.912109 0)"/>
     <use xlink:href="#DejaVuSans-65" transform="translate(1216.699219 0)"/>
     <use xlink:href="#DejaVuSans-72" transform="translate(1278.222656 0)"/>
     <use xlink:href="#DejaVuSans-3d" transform="translate(1319.335938 0)"/>
     <use xlink:href="#DejaVuSans-28" transform="translate(1403.125 0)"/>
     <use xlink:href="#DejaVuSans-30" transform="translate(1442.138672 0)"/>
     <use xlink:href="#DejaVuSans-2e" transform="translate(1505.761719 0)"/>
     <use xlink:href="#DejaVuSans-30" transform="translate(1537.548828 0)"/>
     <use xlink:href="#DejaVuSans-30" transform="translate(1601.171875 0)"/>
     <use xlink:href="#DejaVuSans-30" transform="translate(1664.794922 0)"/>
     <use xlink:href="#DejaVuSans-2c" transform="translate(1728.417969 0)"/>
     <use xlink:href="#DejaVuSans-30" transform="translate(1760.205078 0)"/>
     <use xlink:href="#DejaVuSans-2e" transform="translate(1823.828125 0)"/>
     <use xlink:href="#DejaVuSans-30" transform="translate(1855.615234 0)"/>
     <use xlink:href="#DejaVuSans-30" transform="translate(1919.238281 0)"/>
     <use xlink:href="#DejaVuSans-30" transform="translate(1982.861328 0)"/>
     <use xlink:href="#DejaVuSans-2c" transform="translate(2046.484375 0)"/>
     <use xlink:href="#DejaVuSans-30" transform="translate(2078.271484 0)"/>
     <use xlink:href="#DejaVuSans-2e" transform="translate(2141.894531 0)"/>
     <use xlink:href="#DejaVuSans-30" transform="translate(2173.681641 0)"/>
     <use xlink:href="#DejaVuSans-30" transform="translate(2237.304688 0)"/>
     <use xlink:href="#DejaVuSans-30" transform="translate(2300.927734 0)"/>
     <use xlink:href="#DejaVuSans-29" transform="translate(2364.550781 0)"/>
    </g>
   </g>
   <g id="legend_1">
    <g id="patch_7">
     <path d="M 769.26875 382.38 
L 843.34 382.38 
Q 845.54 382.38 845.54 380.18 
L 845.54 348.965781 
Q 845.54 346.765781 843.34 346.765781 
L 769.26875 346.765781 
Q 767.06875 346.765781 767.06875 348.965781 
L 767.06875 380.18 
Q 767.06875 382.38 769.26875 382.38 
z
" style="fill: #ffffff; opacity: 0.8; stroke: #cccccc; stroke-linejoin: miter"/>
    </g>
    <g id="line2d_28">
     <path d="M 771.46875 355.674062 
L 782.46875 355.674062 
L 793.46875 355.674062 
" style="fill: none; stroke: #1f77b4; stroke-width: 1.5; stroke-linecap: round"/>
    </g>
    <g id="text_17">
     <!-- $\mu$ -->
     <g style="fill: #262626" transform="translate(802.26875 359.524063) scale(0.11 -0.11)">
      <defs>
       <path id="DejaVuSans-Oblique-3bc" d="M -84 -1331 
L 856 3500 
L 1434 3500 
L 1009 1322 
Q 997 1256 987 1175 
Q 978 1094 978 1013 
Q 978 722 1161 565 
Q 1344 409 1684 409 
Q 2147 409 2431 671 
Q 2716 934 2816 1459 
L 3213 3500 
L 3788 3500 
L 3266 809 
Q 3253 750 3248 706 
Q 3244 663 3244 628 
Q 3244 531 3283 486 
Q 3322 441 3406 441 
Q 3438 441 3492 456 
Q 3547 472 3647 513 
L 3559 50 
Q 3422 -19 3297 -55 
Q 3172 -91 3053 -91 
Q 2847 -91 2730 40 
Q 2613 172 2613 403 
Q 2438 153 2195 31 
Q 1953 -91 1625 -91 
Q 1334 -91 1117 43 
Q 900 178 831 397 
L 494 -1331 
L -84 -1331 
z
" transform="scale(0.015625)"/>
      </defs>
      <use xlink:href="#DejaVuSans-Oblique-3bc" transform="translate(0 0.3125)"/>
     </g>
    </g>
    <g id="patch_8">
     <path d="M 771.46875 375.692344 
L 793.46875 375.692344 
L 793.46875 367.992344 
L 771.46875 367.992344 
z
" style="fill: #1f77b4; fill-opacity: 0.3; stroke: #ffffff; stroke-opacity: 0.3; stroke-linejoin: miter"/>
    </g>
    <g id="text_18">
     <!-- 95% CI -->
     <g style="fill: #262626" transform="translate(802.26875 375.692344) scale(0.11 -0.11)">
      <defs>
       <path id="DejaVuSans-25" d="M 4653 2053 
Q 4381 2053 4226 1822 
Q 4072 1591 4072 1178 
Q 4072 772 4226 539 
Q 4381 306 4653 306 
Q 4919 306 5073 539 
Q 5228 772 5228 1178 
Q 5228 1588 5073 1820 
Q 4919 2053 4653 2053 
z
M 4653 2450 
Q 5147 2450 5437 2106 
Q 5728 1763 5728 1178 
Q 5728 594 5436 251 
Q 5144 -91 4653 -91 
Q 4153 -91 3862 251 
Q 3572 594 3572 1178 
Q 3572 1766 3864 2108 
Q 4156 2450 4653 2450 
z
M 1428 4353 
Q 1159 4353 1004 4120 
Q 850 3888 850 3481 
Q 850 3069 1003 2837 
Q 1156 2606 1428 2606 
Q 1700 2606 1854 2837 
Q 2009 3069 2009 3481 
Q 2009 3884 1853 4118 
Q 1697 4353 1428 4353 
z
M 4250 4750 
L 4750 4750 
L 1831 -91 
L 1331 -91 
L 4250 4750 
z
M 1428 4750 
Q 1922 4750 2215 4408 
Q 2509 4066 2509 3481 
Q 2509 2891 2217 2550 
Q 1925 2209 1428 2209 
Q 931 2209 642 2551 
Q 353 2894 353 3481 
Q 353 4063 643 4406 
Q 934 4750 1428 4750 
z
" transform="scale(0.015625)"/>
       <path id="DejaVuSans-43" d="M 4122 4306 
L 4122 3641 
Q 3803 3938 3442 4084 
Q 3081 4231 2675 4231 
Q 1875 4231 1450 3742 
Q 1025 3253 1025 2328 
Q 1025 1406 1450 917 
Q 1875 428 2675 428 
Q 3081 428 3442 575 
Q 3803 722 4122 1019 
L 4122 359 
Q 3791 134 3420 21 
Q 3050 -91 2638 -91 
Q 1578 -91 968 557 
Q 359 1206 359 2328 
Q 359 3453 968 4101 
Q 1578 4750 2638 4750 
Q 3056 4750 3426 4639 
Q 3797 4528 4122 4306 
z
" transform="scale(0.015625)"/>
       <path id="DejaVuSans-49" d="M 628 4666 
L 1259 4666 
L 1259 0 
L 628 0 
L 628 4666 
z
" transform="scale(0.015625)"/>
      </defs>
      <use xlink:href="#DejaVuSans-39"/>
      <use xlink:href="#DejaVuSans-35" transform="translate(63.623047 0)"/>
      <use xlink:href="#DejaVuSans-25" transform="translate(127.246094 0)"/>
      <use xlink:href="#DejaVuSans-20" transform="translate(222.265625 0)"/>
      <use xlink:href="#DejaVuSans-43" transform="translate(254.052734 0)"/>
      <use xlink:href="#DejaVuSans-49" transform="translate(323.876953 0)"/>
     </g>
    </g>
   </g>
  </g>
 </g>
 <defs>
  <clipPath id="p2df5fd69ca">
   <rect x="61.4" y="92.30325" width="789.64" height="295.57675"/>
  </clipPath>
 </defs>
</svg>
